{
.appVersion = "1105";
DisplayStrings = (
"\012OAGA UNFUG\012\012ABCDEFGHIJKLMNOPQRSTUVWXYZ 1234567890\012UNFUG gemachat \012fuer das Leben\012abcdefghijklmenopqrstuvwxyz.t/emdash/endash ?!-\012Motherfking\012"
);
date = "2018-01-12 17:36:00 +0000";
designer = Franz;
familyName = OUFONT;
fontMaster = (
{
ascender = 800;
capHeight = 700;
descender = -200;
id = "7185A08A-2B1C-4BBD-ABBC-D0B58775A973";
xHeight = 500;
}
);
glyphs = (
{
glyphname = A;
lastChange = "2018-01-13 17:20:01 +0000";
layers = (
{
layerId = "7185A08A-2B1C-4BBD-ABBC-D0B58775A973";
paths = (
{
closed = 1;
nodes = (
"399 167 OFFCURVE",
"400 179 OFFCURVE",
"398 190 CURVE",
"398 193 OFFCURVE",
"387 200 OFFCURVE",
"386 199 CURVE",
"364 186 OFFCURVE",
"344 198 OFFCURVE",
"327 204 CURVE",
"288 217 OFFCURVE",
"249 230 OFFCURVE",
"210 242 CURVE",
"207 243 OFFCURVE",
"197 240 OFFCURVE",
"196 234 CURVE",
"174 183 OFFCURVE",
"156 130 OFFCURVE",
"132 78 CURVE",
"121 55 OFFCURVE",
"104 34 OFFCURVE",
"92 11 CURVE",
"87 4 OFFCURVE",
"85 -5 OFFCURVE",
"79 -10 CURVE",
"74 -16 OFFCURVE",
"64 -21 OFFCURVE",
"57 -25 CURVE",
"53 -19 OFFCURVE",
"50 -11 OFFCURVE",
"45 -5 CURVE",
"44 -4 OFFCURVE",
"45 -1 OFFCURVE",
"44 1 CURVE",
"16 36 OFFCURVE",
"36 66 OFFCURVE",
"52 98 CURVE",
"67 128 OFFCURVE",
"88 159 OFFCURVE",
"103 190 CURVE",
"116 215 OFFCURVE",
"122 243 OFFCURVE",
"130 269 CURVE",
"149 315 OFFCURVE",
"168 362 OFFCURVE",
"186 409 CURVE",
"216 479 OFFCURVE",
"245 549 OFFCURVE",
"277 618 CURVE",
"289 647 OFFCURVE",
"305 672 OFFCURVE",
"320 696 CURVE",
"324 700 OFFCURVE",
"341 702 OFFCURVE",
"345 698 CURVE",
"366 678 OFFCURVE",
"385 657 OFFCURVE",
"392 627 CURVE",
"403 582 OFFCURVE",
"422 537 OFFCURVE",
"434 491 CURVE",
"448 428 OFFCURVE",
"461 366 OFFCURVE",
"474 303 CURVE",
"482 268 OFFCURVE",
"492 232 OFFCURVE",
"493 197 CURVE",
"494 155 OFFCURVE",
"523 121 OFFCURVE",
"525 79 CURVE",
"526 59 OFFCURVE",
"529 37 OFFCURVE",
"526 15 CURVE",
"524 -2 OFFCURVE",
"497 -7 OFFCURVE",
"485 10 CURVE",
"464 40 OFFCURVE",
"446 73 OFFCURVE",
"426 104 CURVE",
"424 110 OFFCURVE",
"422 116 OFFCURVE",
"418 118 CURVE",
"399 123 OFFCURVE",
"394 137 OFFCURVE",
"399 155 CURVE"
);
},
{
closed = 1;
nodes = (
"392 399 OFFCURVE",
"391 402 OFFCURVE",
"391 407 CURVE",
"384 445 OFFCURVE",
"377 483 OFFCURVE",
"369 520 CURVE",
"363 546 OFFCURVE",
"354 570 OFFCURVE",
"345 595 CURVE",
"345 597 OFFCURVE",
"336 597 OFFCURVE",
"336 596 CURVE",
"328 581 OFFCURVE",
"320 563 OFFCURVE",
"315 545 CURVE",
"305 516 OFFCURVE",
"296 484 OFFCURVE",
"285 455 CURVE",
"267 403 OFFCURVE",
"247 353 OFFCURVE",
"228 303 CURVE",
"224 291 OFFCURVE",
"224 281 OFFCURVE",
"242 279 CURVE",
"272 277 OFFCURVE",
"302 275 OFFCURVE",
"333 274 CURVE",
"345 274 OFFCURVE",
"354 272 OFFCURVE",
"361 260 CURVE",
"364 254 OFFCURVE",
"378 254 OFFCURVE",
"387 251 CURVE",
"388 256 OFFCURVE",
"388 263 OFFCURVE",
"389 269 CURVE",
"392 279 OFFCURVE",
"391 293 OFFCURVE",
"398 300 CURVE",
"406 308 OFFCURVE",
"408 315 OFFCURVE",
"402 325 CURVE",
"397 336 OFFCURVE",
"388 348 OFFCURVE",
"386 360 CURVE",
"384 372 OFFCURVE",
"388 383 OFFCURVE",
"392 400 CURVE"
);
},
{
closed = 1;
nodes = (
"126 -19 OFFCURVE",
"115 -13 OFFCURVE",
"103 -8 CURVE",
"100 -7 OFFCURVE",
"98 -1 OFFCURVE",
"96 2 CURVE",
"100 4 OFFCURVE",
"104 6 OFFCURVE",
"109 6 CURVE",
"128 4 OFFCURVE",
"149 1 OFFCURVE",
"170 -1 CURVE",
"177 -1 OFFCURVE",
"184 0 OFFCURVE",
"192 1 CURVE",
"195 1 OFFCURVE",
"200 1 OFFCURVE",
"205 1 CURVE",
"201 -2 OFFCURVE",
"197 -8 OFFCURVE",
"193 -9 CURVE",
"175 -15 OFFCURVE",
"159 -19 OFFCURVE",
"138 -23 CURVE"
);
}
);
width = 557;
}
);
unicode = 0041;
},
{
glyphname = B;
lastChange = "2018-01-13 17:21:13 +0000";
layers = (
{
layerId = "7185A08A-2B1C-4BBD-ABBC-D0B58775A973";
paths = (
{
closed = 1;
nodes = (
"102 10 OFFCURVE",
"103 15 OFFCURVE",
"103 24 CURVE",
"104 36 OFFCURVE",
"98 44 OFFCURVE",
"84 44 CURVE",
"80 46 OFFCURVE",
"73 53 OFFCURVE",
"75 56 CURVE",
"80 77 OFFCURVE",
"89 97 OFFCURVE",
"95 119 CURVE",
"98 130 OFFCURVE",
"102 143 OFFCURVE",
"102 154 CURVE",
"99 179 OFFCURVE",
"95 206 OFFCURVE",
"94 232 CURVE",
"94 254 OFFCURVE",
"93 276 OFFCURVE",
"98 297 CURVE",
"113 337 OFFCURVE",
"108 380 OFFCURVE",
"104 420 CURVE",
"98 477 OFFCURVE",
"90 534 OFFCURVE",
"69 587 CURVE",
"68 593 OFFCURVE",
"69 605 OFFCURVE",
"73 609 CURVE",
"90 617 OFFCURVE",
"84 630 OFFCURVE",
"87 645 CURVE",
"87 661 OFFCURVE",
"84 680 OFFCURVE",
"84 698 CURVE",
"84 705 OFFCURVE",
"90 711 OFFCURVE",
"93 716 CURVE",
"98 712 OFFCURVE",
"104 707 OFFCURVE",
"106 701 CURVE",
"113 682 OFFCURVE",
"138 679 OFFCURVE",
"154 692 CURVE",
"177 712 OFFCURVE",
"204 721 OFFCURVE",
"239 712 CURVE",
"244 711 OFFCURVE",
"250 711 OFFCURVE",
"255 712 CURVE",
"268 722 OFFCURVE",
"282 718 OFFCURVE",
"293 711 CURVE",
"323 693 OFFCURVE",
"353 675 OFFCURVE",
"380 656 CURVE",
"393 645 OFFCURVE",
"401 629 OFFCURVE",
"412 617 CURVE",
"424 605 OFFCURVE",
"439 596 OFFCURVE",
"451 586 CURVE",
"455 581 OFFCURVE",
"463 575 OFFCURVE",
"463 570 CURVE",
"463 539 OFFCURVE",
"463 510 OFFCURVE",
"455 482 CURVE",
"451 457 OFFCURVE",
"437 435 OFFCURVE",
"428 411 CURVE",
"424 400 OFFCURVE",
"419 386 OFFCURVE",
"412 376 CURVE",
"403 364 OFFCURVE",
"393 356 OFFCURVE",
"383 347 CURVE",
"370 339 OFFCURVE",
"370 333 OFFCURVE",
"385 329 CURVE",
"395 325 OFFCURVE",
"405 320 OFFCURVE",
"414 319 CURVE",
"440 312 OFFCURVE",
"446 297 OFFCURVE",
"437 270 CURVE",
"424 226 OFFCURVE",
"409 179 OFFCURVE",
"394 135 CURVE",
"389 121 OFFCURVE",
"388 103 OFFCURVE",
"379 92 CURVE",
"365 74 OFFCURVE",
"347 60 OFFCURVE",
"331 46 CURVE",
"314 33 OFFCURVE",
"289 24 OFFCURVE",
"282 7 CURVE",
"261 -36 OFFCURVE",
"227 -34 OFFCURVE",
"190 -27 CURVE",
"173 -24 OFFCURVE",
"154 -21 OFFCURVE",
"138 -19 CURVE",
"135 -19 OFFCURVE",
"133 -19 OFFCURVE",
"130 -20 CURVE",
"106 -27 OFFCURVE",
"102 -24 OFFCURVE",
"102 7 CURVE"
);
},
{
closed = 1;
nodes = (
"380 560 OFFCURVE",
"376 570 OFFCURVE",
"374 580 CURVE",
"362 609 OFFCURVE",
"339 626 OFFCURVE",
"314 641 CURVE",
"309 645 OFFCURVE",
"299 647 OFFCURVE",
"295 645 CURVE",
"246 620 OFFCURVE",
"203 651 OFFCURVE",
"159 660 CURVE",
"154 660 OFFCURVE",
"154 661 OFFCURVE",
"150 663 CURVE",
"148 660 OFFCURVE",
"148 656 OFFCURVE",
"148 652 CURVE",
"148 631 OFFCURVE",
"148 610 OFFCURVE",
"152 591 CURVE",
"154 553 OFFCURVE",
"159 516 OFFCURVE",
"188 489 CURVE",
"190 487 OFFCURVE",
"190 482 OFFCURVE",
"190 477 CURVE",
"188 452 OFFCURVE",
"183 426 OFFCURVE",
"180 400 CURVE",
"178 377 OFFCURVE",
"183 369 OFFCURVE",
"208 371 CURVE",
"225 372 OFFCURVE",
"240 380 OFFCURVE",
"258 382 CURVE",
"279 386 OFFCURVE",
"300 386 OFFCURVE",
"319 392 CURVE",
"335 398 OFFCURVE",
"354 409 OFFCURVE",
"358 420 CURVE",
"369 461 OFFCURVE",
"374 505 OFFCURVE",
"383 552 CURVE"
);
},
{
closed = 1;
nodes = (
"237 319 OFFCURVE",
"237 319 OFFCURVE",
"235 316 CURVE",
"214 316 OFFCURVE",
"214 316 OFFCURVE",
"200 289 CURVE",
"172 219 OFFCURVE",
"176 144 OFFCURVE",
"168 71 CURVE",
"168 65 OFFCURVE",
"169 57 OFFCURVE",
"169 51 CURVE",
"169 39 OFFCURVE",
"174 34 OFFCURVE",
"188 44 CURVE",
"229 69 OFFCURVE",
"273 91 OFFCURVE",
"314 116 CURVE",
"323 121 OFFCURVE",
"331 131 OFFCURVE",
"335 143 CURVE",
"345 170 OFFCURVE",
"353 196 OFFCURVE",
"363 222 CURVE",
"372 246 OFFCURVE",
"365 262 OFFCURVE",
"343 270 CURVE",
"331 275 OFFCURVE",
"322 283 OFFCURVE",
"310 289 CURVE",
"287 300 OFFCURVE",
"262 311 OFFCURVE",
"239 322 CURVE"
);
},
{
closed = 1;
nodes = (
"58 140 OFFCURVE",
"52 144 OFFCURVE",
"54 149 CURVE",
"54 153 OFFCURVE",
"59 161 OFFCURVE",
"63 158 CURVE",
"69 158 OFFCURVE",
"75 153 OFFCURVE",
"77 149 CURVE",
"77 145 OFFCURVE",
"70 140 OFFCURVE",
"64 134 CURVE"
);
}
);
width = 600;
}
);
unicode = 0042;
},
{
glyphname = C;
lastChange = "2018-01-13 17:27:24 +0000";
layers = (
{
layerId = "7185A08A-2B1C-4BBD-ABBC-D0B58775A973";
paths = (
{
closed = 1;
nodes = (
"280 -22 OFFCURVE",
"264 -25 OFFCURVE",
"245 -28 CURVE",
"221 -34 OFFCURVE",
"163 -22 OFFCURVE",
"141 -10 CURVE",
"134 -4 OFFCURVE",
"122 -7 OFFCURVE",
"113 -4 CURVE",
"104 2 OFFCURVE",
"94 5 OFFCURVE",
"88 14 CURVE",
"75 31 OFFCURVE",
"59 52 OFFCURVE",
"53 76 CURVE",
"40 117 OFFCURVE",
"35 162 OFFCURVE",
"50 203 CURVE",
"59 224 OFFCURVE",
"59 242 OFFCURVE",
"53 262 CURVE",
"44 280 OFFCURVE",
"47 301 OFFCURVE",
"50 319 CURVE",
"56 339 OFFCURVE",
"72 357 OFFCURVE",
"78 378 CURVE",
"88 404 OFFCURVE",
"97 434 OFFCURVE",
"107 461 CURVE",
"113 487 OFFCURVE",
"113 517 OFFCURVE",
"125 541 CURVE",
"134 573 OFFCURVE",
"192 603 OFFCURVE",
"208 632 CURVE",
"221 659 OFFCURVE",
"232 683 OFFCURVE",
"245 706 CURVE",
"258 730 OFFCURVE",
"283 739 OFFCURVE",
"308 739 CURVE",
"342 736 OFFCURVE",
"374 736 OFFCURVE",
"404 742 CURVE",
"430 745 OFFCURVE",
"461 730 OFFCURVE",
"467 706 CURVE",
"476 680 OFFCURVE",
"489 656 OFFCURVE",
"498 629 CURVE",
"501 623 OFFCURVE",
"501 612 OFFCURVE",
"498 609 CURVE",
"492 603 OFFCURVE",
"482 600 OFFCURVE",
"476 600 CURVE",
"439 594 OFFCURVE",
"423 623 OFFCURVE",
"398 638 CURVE",
"380 653 OFFCURVE",
"361 668 OFFCURVE",
"342 683 CURVE",
"323 694 OFFCURVE",
"283 683 OFFCURVE",
"274 662 CURVE",
"255 620 OFFCURVE",
"239 576 OFFCURVE",
"221 535 CURVE",
"214 520 OFFCURVE",
"208 502 OFFCURVE",
"202 487 CURVE",
"199 470 OFFCURVE",
"202 452 OFFCURVE",
"199 434 CURVE",
"195 422 OFFCURVE",
"189 410 OFFCURVE",
"183 396 CURVE",
"176 378 OFFCURVE",
"173 360 OFFCURVE",
"167 342 CURVE",
"164 330 OFFCURVE",
"164 319 OFFCURVE",
"161 307 CURVE",
"157 268 OFFCURVE",
"154 233 OFFCURVE",
"146 197 CURVE",
"136 159 OFFCURVE",
"157 129 OFFCURVE",
"164 97 CURVE",
"167 79 OFFCURVE",
"183 61 OFFCURVE",
"195 43 CURVE",
"195 43 OFFCURVE",
"202 40 OFFCURVE",
"202 40 CURVE",
"227 46 OFFCURVE",
"255 49 OFFCURVE",
"274 61 CURVE",
"299 76 OFFCURVE",
"323 82 OFFCURVE",
"352 76 CURVE",
"358 73 OFFCURVE",
"364 67 OFFCURVE",
"364 64 CURVE",
"367 46 OFFCURVE",
"371 29 OFFCURVE",
"367 14 CURVE",
"367 -7 OFFCURVE",
"352 -19 OFFCURVE",
"329 -19 CURVE",
"317 -19 OFFCURVE",
"308 -19 OFFCURVE",
"299 -19 CURVE",
"299 -19 OFFCURVE",
"299 -19 OFFCURVE",
"299 -19 CURVE"
);
}
);
width = 600;
}
);
unicode = 0043;
},
{
glyphname = D;
lastChange = "2018-01-13 17:22:39 +0000";
layers = (
{
layerId = "7185A08A-2B1C-4BBD-ABBC-D0B58775A973";
paths = (
{
closed = 1;
nodes = (
"394 530 OFFCURVE",
"400 505 OFFCURVE",
"400 486 CURVE",
"407 474 OFFCURVE",
"400 461 OFFCURVE",
"400 455 CURVE",
"400 436 OFFCURVE",
"400 417 OFFCURVE",
"407 398 CURVE",
"407 386 OFFCURVE",
"413 379 OFFCURVE",
"407 373 CURVE",
"407 323 OFFCURVE",
"407 279 OFFCURVE",
"400 235 CURVE",
"394 197 OFFCURVE",
"382 166 OFFCURVE",
"375 134 CURVE",
"375 122 OFFCURVE",
"369 115 OFFCURVE",
"369 109 CURVE",
"350 71 OFFCURVE",
"319 52 OFFCURVE",
"287 34 CURVE",
"262 21 OFFCURVE",
"243 15 OFFCURVE",
"218 8 CURVE",
"205 2 OFFCURVE",
"187 2 OFFCURVE",
"174 2 CURVE",
"155 2 OFFCURVE",
"130 -4 OFFCURVE",
"111 -4 CURVE",
"105 -4 OFFCURVE",
"92 2 OFFCURVE",
"92 8 CURVE",
"92 21 OFFCURVE",
"92 27 OFFCURVE",
"99 40 CURVE",
"111 84 OFFCURVE",
"99 134 OFFCURVE",
"92 178 CURVE",
"86 216 OFFCURVE",
"92 247 OFFCURVE",
"92 279 CURVE",
"92 329 OFFCURVE",
"99 373 OFFCURVE",
"99 423 CURVE",
"105 455 OFFCURVE",
"111 480 OFFCURVE",
"111 511 CURVE",
"117 543 OFFCURVE",
"117 581 OFFCURVE",
"117 612 CURVE",
"117 625 OFFCURVE",
"117 637 OFFCURVE",
"117 643 CURVE",
"124 675 OFFCURVE",
"143 706 OFFCURVE",
"174 713 CURVE",
"187 713 OFFCURVE",
"205 713 OFFCURVE",
"224 713 CURVE",
"249 713 OFFCURVE",
"281 725 OFFCURVE",
"306 694 CURVE",
"312 687 OFFCURVE",
"319 681 OFFCURVE",
"319 669 CURVE",
"331 643 OFFCURVE",
"344 631 OFFCURVE",
"363 618 CURVE",
"382 599 OFFCURVE",
"388 581 OFFCURVE",
"388 555 CURVE"
);
},
{
closed = 1;
nodes = (
"212 59 OFFCURVE",
"243 65 OFFCURVE",
"268 71 CURVE",
"275 78 OFFCURVE",
"281 78 OFFCURVE",
"281 84 CURVE",
"294 109 OFFCURVE",
"300 128 OFFCURVE",
"312 147 CURVE",
"319 172 OFFCURVE",
"319 197 OFFCURVE",
"331 216 CURVE",
"344 254 OFFCURVE",
"350 285 OFFCURVE",
"350 329 CURVE",
"344 367 OFFCURVE",
"338 405 OFFCURVE",
"350 449 CURVE",
"350 461 OFFCURVE",
"344 480 OFFCURVE",
"338 499 CURVE",
"331 518 OFFCURVE",
"325 537 OFFCURVE",
"312 555 CURVE",
"312 562 OFFCURVE",
"312 568 OFFCURVE",
"319 568 CURVE",
"319 568 OFFCURVE",
"325 568 OFFCURVE",
"325 562 CURVE",
"331 555 OFFCURVE",
"338 549 OFFCURVE",
"338 543 CURVE",
"338 543 OFFCURVE",
"344 537 OFFCURVE",
"344 537 CURVE",
"344 543 OFFCURVE",
"350 543 OFFCURVE",
"350 543 CURVE",
"344 555 OFFCURVE",
"338 568 OFFCURVE",
"331 574 CURVE",
"306 593 OFFCURVE",
"275 612 OFFCURVE",
"249 625 CURVE",
"243 631 OFFCURVE",
"237 637 OFFCURVE",
"224 643 CURVE",
"224 650 OFFCURVE",
"218 650 OFFCURVE",
"218 650 CURVE",
"212 650 OFFCURVE",
"212 643 OFFCURVE",
"212 637 CURVE",
"205 631 OFFCURVE",
"205 618 OFFCURVE",
"205 606 CURVE",
"199 568 OFFCURVE",
"193 537 OFFCURVE",
"193 499 CURVE",
"187 467 OFFCURVE",
"187 442 OFFCURVE",
"180 411 CURVE",
"174 379 OFFCURVE",
"161 348 OFFCURVE",
"149 317 CURVE",
"149 310 OFFCURVE",
"149 304 OFFCURVE",
"149 298 CURVE",
"155 266 OFFCURVE",
"161 241 OFFCURVE",
"161 216 CURVE",
"161 172 OFFCURVE",
"161 128 OFFCURVE",
"161 84 CURVE",
"161 59 OFFCURVE",
"161 52 OFFCURVE",
"193 52 CURVE"
);
},
{
closed = 1;
nodes = (
"287 687 OFFCURVE",
"281 687 OFFCURVE",
"281 687 CURVE",
"281 687 OFFCURVE",
"275 687 OFFCURVE",
"275 681 CURVE",
"275 681 OFFCURVE",
"275 675 OFFCURVE",
"281 675 CURVE",
"281 675 OFFCURVE",
"287 681 OFFCURVE",
"287 681 CURVE"
);
}
);
width = 600;
}
);
unicode = 0044;
},
{
glyphname = E;
lastChange = "2018-01-13 17:23:16 +0000";
layers = (
{
layerId = "7185A08A-2B1C-4BBD-ABBC-D0B58775A973";
paths = (
{
closed = 1;
nodes = (
"216 311 OFFCURVE",
"209 304 OFFCURVE",
"216 267 CURVE",
"221 210 OFFCURVE",
"235 148 OFFCURVE",
"221 86 CURVE",
"216 86 OFFCURVE",
"228 73 OFFCURVE",
"235 73 CURVE",
"285 61 OFFCURVE",
"340 54 OFFCURVE",
"397 47 CURVE",
"404 47 OFFCURVE",
"409 43 OFFCURVE",
"416 43 CURVE",
"423 36 OFFCURVE",
"429 29 OFFCURVE",
"429 22 CURVE",
"423 22 OFFCURVE",
"423 22 OFFCURVE",
"416 18 CURVE",
"416 18 OFFCURVE",
"409 18 OFFCURVE",
"409 18 CURVE",
"372 -14 OFFCURVE",
"329 -14 OFFCURVE",
"278 -1 CURVE",
"260 -1 OFFCURVE",
"246 4 OFFCURVE",
"228 4 CURVE",
"216 4 OFFCURVE",
"209 -1 OFFCURVE",
"196 -1 CURVE",
"191 -8 OFFCURVE",
"177 -8 OFFCURVE",
"173 -8 CURVE",
"166 -1 OFFCURVE",
"159 11 OFFCURVE",
"152 22 CURVE",
"141 73 OFFCURVE",
"159 123 OFFCURVE",
"166 173 CURVE",
"166 173 OFFCURVE",
"166 185 OFFCURVE",
"159 185 CURVE",
"148 192 OFFCURVE",
"148 206 OFFCURVE",
"148 217 CURVE",
"159 286 OFFCURVE",
"173 348 OFFCURVE",
"177 416 CURVE",
"177 416 OFFCURVE",
"184 423 OFFCURVE",
"184 430 CURVE",
"166 492 OFFCURVE",
"184 556 OFFCURVE",
"184 618 CURVE",
"184 629 OFFCURVE",
"177 636 OFFCURVE",
"177 650 CURVE",
"173 643 OFFCURVE",
"166 629 OFFCURVE",
"159 625 CURVE",
"152 611 OFFCURVE",
"148 604 OFFCURVE",
"141 593 CURVE",
"141 593 OFFCURVE",
"134 593 OFFCURVE",
"127 586 CURVE",
"127 593 OFFCURVE",
"127 593 OFFCURVE",
"127 600 CURVE",
"134 629 OFFCURVE",
"148 661 OFFCURVE",
"173 680 CURVE",
"177 687 OFFCURVE",
"196 687 OFFCURVE",
"209 694 CURVE",
"235 705 OFFCURVE",
"253 687 OFFCURVE",
"278 694 CURVE",
"315 698 OFFCURVE",
"358 694 OFFCURVE",
"397 698 CURVE",
"429 712 OFFCURVE",
"448 694 OFFCURVE",
"478 694 CURVE",
"484 698 OFFCURVE",
"491 687 OFFCURVE",
"498 680 CURVE",
"491 673 OFFCURVE",
"484 668 OFFCURVE",
"473 668 CURVE",
"459 661 OFFCURVE",
"448 661 OFFCURVE",
"429 655 CURVE",
"429 655 OFFCURVE",
"429 650 OFFCURVE",
"429 650 CURVE",
"441 643 OFFCURVE",
"452 636 OFFCURVE",
"459 629 CURVE",
"466 625 OFFCURVE",
"473 618 OFFCURVE",
"478 611 CURVE",
"473 604 OFFCURVE",
"466 604 OFFCURVE",
"459 600 CURVE",
"452 600 OFFCURVE",
"448 600 OFFCURVE",
"448 600 CURVE",
"434 579 OFFCURVE",
"416 586 OFFCURVE",
"404 593 CURVE",
"358 604 OFFCURVE",
"310 618 OFFCURVE",
"260 629 CURVE",
"246 636 OFFCURVE",
"235 636 OFFCURVE",
"235 611 CURVE",
"235 556 OFFCURVE",
"228 492 OFFCURVE",
"228 437 CURVE",
"228 393 OFFCURVE",
"221 393 OFFCURVE",
"271 393 CURVE",
"290 393 OFFCURVE",
"315 387 OFFCURVE",
"336 387 CURVE",
"340 380 OFFCURVE",
"340 380 OFFCURVE",
"347 373 CURVE",
"354 373 OFFCURVE",
"358 368 OFFCURVE",
"372 368 CURVE",
"372 361 OFFCURVE",
"379 361 OFFCURVE",
"379 361 CURVE",
"379 361 OFFCURVE",
"379 354 OFFCURVE",
"372 354 CURVE",
"365 348 OFFCURVE",
"358 348 OFFCURVE",
"354 343 CURVE",
"347 336 OFFCURVE",
"340 329 OFFCURVE",
"336 325 CURVE",
"329 325 OFFCURVE",
"322 318 OFFCURVE",
"315 311 CURVE",
"297 311 OFFCURVE",
"271 311 OFFCURVE",
"260 304 CURVE"
);
}
);
width = 600;
}
);
unicode = 0045;
},
{
glyphname = F;
lastChange = "2018-01-13 17:24:29 +0000";
layers = (
{
layerId = "7185A08A-2B1C-4BBD-ABBC-D0B58775A973";
paths = (
{
closed = 1;
nodes = (
"493 672 OFFCURVE",
"481 672 OFFCURVE",
"467 684 CURVE",
"406 698 OFFCURVE",
"354 722 OFFCURVE",
"291 722 CURVE",
"267 722 OFFCURVE",
"229 736 OFFCURVE",
"204 722 CURVE",
"178 722 OFFCURVE",
"166 736 OFFCURVE",
"152 748 CURVE",
"152 748 OFFCURVE",
"152 748 OFFCURVE",
"140 748 CURVE",
"140 748 OFFCURVE",
"140 736 OFFCURVE",
"140 736 CURVE",
"140 736 OFFCURVE",
"128 736 OFFCURVE",
"128 736 CURVE",
"128 722 OFFCURVE",
"128 722 OFFCURVE",
"128 722 CURVE",
"140 710 OFFCURVE",
"140 698 OFFCURVE",
"140 684 CURVE",
"140 660 OFFCURVE",
"128 623 OFFCURVE",
"140 597 CURVE",
"140 585 OFFCURVE",
"140 585 OFFCURVE",
"140 571 CURVE",
"140 571 OFFCURVE",
"128 559 OFFCURVE",
"140 546 CURVE",
"140 470 OFFCURVE",
"152 409 OFFCURVE",
"166 332 CURVE",
"166 320 OFFCURVE",
"166 308 OFFCURVE",
"166 294 CURVE",
"166 256 OFFCURVE",
"166 232 OFFCURVE",
"178 193 CURVE",
"178 181 OFFCURVE",
"178 169 OFFCURVE",
"178 155 CURVE",
"191 118 OFFCURVE",
"191 80 OFFCURVE",
"204 56 CURVE",
"204 42 OFFCURVE",
"204 30 OFFCURVE",
"204 30 CURVE",
"216 17 OFFCURVE",
"241 -7 OFFCURVE",
"267 -7 CURVE",
"253 80 OFFCURVE",
"267 42 OFFCURVE",
"279 5 CURVE",
"291 17 OFFCURVE",
"305 42 OFFCURVE",
"305 68 CURVE",
"291 94 OFFCURVE",
"291 118 OFFCURVE",
"291 143 CURVE",
"279 181 OFFCURVE",
"279 207 OFFCURVE",
"279 244 CURVE",
"267 270 OFFCURVE",
"267 308 OFFCURVE",
"253 345 CURVE",
"253 357 OFFCURVE",
"253 369 OFFCURVE",
"253 383 CURVE",
"279 395 OFFCURVE",
"317 395 OFFCURVE",
"342 409 CURVE",
"354 409 OFFCURVE",
"368 409 OFFCURVE",
"368 409 CURVE",
"392 421 OFFCURVE",
"406 433 OFFCURVE",
"392 458 CURVE",
"342 458 OFFCURVE",
"279 458 OFFCURVE",
"229 458 CURVE",
"216 522 OFFCURVE",
"204 585 OFFCURVE",
"204 660 CURVE",
"216 660 OFFCURVE",
"241 647 OFFCURVE",
"253 647 CURVE",
"305 660 OFFCURVE",
"342 647 OFFCURVE",
"392 647 CURVE",
"418 647 OFFCURVE",
"455 635 OFFCURVE",
"481 647 CURVE",
"505 647 OFFCURVE",
"505 660 OFFCURVE",
"505 672 CURVE"
);
},
{
closed = 1;
nodes = (
"329 294 OFFCURVE",
"329 308 OFFCURVE",
"329 308 CURVE",
"317 308 OFFCURVE",
"317 308 OFFCURVE",
"317 308 CURVE",
"329 308 OFFCURVE",
"329 294 OFFCURVE",
"329 294 CURVE",
"329 294 OFFCURVE",
"329 294 OFFCURVE",
"329 294 CURVE"
);
},
{
closed = 1;
nodes = (
"329 270 OFFCURVE",
"329 256 OFFCURVE",
"342 256 CURVE",
"342 256 OFFCURVE",
"342 256 OFFCURVE",
"342 256 CURVE",
"342 270 OFFCURVE",
"329 270 OFFCURVE",
"329 282 CURVE",
"329 282 OFFCURVE",
"329 282 OFFCURVE",
"329 270 CURVE"
);
}
);
width = 600;
}
);
unicode = 0046;
},
{
glyphname = G;
lastChange = "2018-01-13 17:24:48 +0000";
layers = (
{
layerId = "7185A08A-2B1C-4BBD-ABBC-D0B58775A973";
paths = (
{
closed = 1;
nodes = (
"66 744 OFFCURVE",
"66 744 OFFCURVE",
"66 744 CURVE",
"66 744 OFFCURVE",
"66 744 OFFCURVE",
"66 756 CURVE",
"66 756 OFFCURVE",
"66 756 OFFCURVE",
"66 756 CURVE",
"66 756 OFFCURVE",
"66 756 OFFCURVE",
"66 756 CURVE",
"66 756 OFFCURVE",
"66 756 OFFCURVE",
"66 756 CURVE",
"66 756 OFFCURVE",
"66 756 OFFCURVE",
"66 756 CURVE",
"66 756 OFFCURVE",
"66 756 OFFCURVE",
"66 756 CURVE",
"66 756 OFFCURVE",
"66 756 OFFCURVE",
"66 756 CURVE",
"66 756 OFFCURVE",
"66 699 OFFCURVE",
"66 699 CURVE",
"81 699 OFFCURVE",
"81 721 OFFCURVE",
"81 744 CURVE",
"81 744 OFFCURVE",
"66 744 OFFCURVE",
"66 744 CURVE",
"66 744 OFFCURVE",
"66 744 OFFCURVE",
"66 744 CURVE"
);
},
{
closed = 1;
nodes = (
"66 756 OFFCURVE",
"66 756 OFFCURVE",
"66 756 CURVE",
"66 756 OFFCURVE",
"66 756 OFFCURVE",
"66 756 CURVE"
);
},
{
closed = 1;
nodes = (
"520 293 OFFCURVE",
"535 305 OFFCURVE",
"520 327 CURVE",
"520 339 OFFCURVE",
"520 351 OFFCURVE",
"506 351 CURVE",
"479 374 OFFCURVE",
"435 386 OFFCURVE",
"394 386 CURVE",
"394 386 OFFCURVE",
"394 398 OFFCURVE",
"394 398 CURVE",
"379 398 OFFCURVE",
"350 398 OFFCURVE",
"336 398 CURVE",
"307 374 OFFCURVE",
"294 362 OFFCURVE",
"265 339 CURVE",
"294 327 OFFCURVE",
"294 327 OFFCURVE",
"336 339 CURVE",
"336 327 OFFCURVE",
"350 339 OFFCURVE",
"350 339 CURVE",
"379 339 OFFCURVE",
"407 327 OFFCURVE",
"407 305 CURVE",
"394 269 OFFCURVE",
"394 235 OFFCURVE",
"394 200 CURVE",
"394 200 OFFCURVE",
"394 188 OFFCURVE",
"394 188 CURVE",
"379 154 OFFCURVE",
"365 107 OFFCURVE",
"336 73 CURVE",
"322 50 OFFCURVE",
"322 50 OFFCURVE",
"280 61 CURVE",
"265 73 OFFCURVE",
"251 85 OFFCURVE",
"237 95 CURVE",
"208 119 OFFCURVE",
"195 131 OFFCURVE",
"166 154 CURVE",
"166 177 OFFCURVE",
"152 200 OFFCURVE",
"137 224 CURVE",
"137 235 OFFCURVE",
"137 258 OFFCURVE",
"123 281 CURVE",
"123 317 OFFCURVE",
"110 362 OFFCURVE",
"110 408 CURVE",
"110 408 OFFCURVE",
"110 420 OFFCURVE",
"110 420 CURVE",
"110 444 OFFCURVE",
"123 455 OFFCURVE",
"123 467 CURVE",
"123 479 OFFCURVE",
"137 489 OFFCURVE",
"137 501 CURVE",
"152 525 OFFCURVE",
"180 536 OFFCURVE",
"195 559 CURVE",
"208 570 OFFCURVE",
"222 582 OFFCURVE",
"237 594 CURVE",
"280 594 OFFCURVE",
"280 594 OFFCURVE",
"294 570 CURVE",
"307 548 OFFCURVE",
"336 525 OFFCURVE",
"365 501 CURVE",
"379 489 OFFCURVE",
"394 489 OFFCURVE",
"407 479 CURVE",
"407 467 OFFCURVE",
"421 479 OFFCURVE",
"435 479 CURVE",
"435 489 OFFCURVE",
"435 501 OFFCURVE",
"435 513 CURVE",
"421 513 OFFCURVE",
"421 525 OFFCURVE",
"407 536 CURVE",
"379 559 OFFCURVE",
"365 582 OFFCURVE",
"350 618 CURVE",
"350 618 OFFCURVE",
"350 629 OFFCURVE",
"350 629 CURVE",
"322 652 OFFCURVE",
"294 663 OFFCURVE",
"265 687 CURVE",
"265 687 OFFCURVE",
"251 687 OFFCURVE",
"251 699 CURVE",
"237 699 OFFCURVE",
"152 744 OFFCURVE",
"137 744 CURVE",
"110 756 OFFCURVE",
"166 710 OFFCURVE",
"152 699 CURVE",
"152 687 OFFCURVE",
"152 687 OFFCURVE",
"152 687 CURVE",
"152 687 OFFCURVE",
"137 687 OFFCURVE",
"137 687 CURVE",
"137 687 OFFCURVE",
"137 687 OFFCURVE",
"137 687 CURVE",
"137 699 OFFCURVE",
"137 699 OFFCURVE",
"137 699 CURVE",
"137 710 OFFCURVE",
"81 744 OFFCURVE",
"81 744 CURVE",
"81 744 OFFCURVE",
"81 744 OFFCURVE",
"81 756 CURVE",
"81 756 OFFCURVE",
"81 744 OFFCURVE",
"81 744 CURVE",
"95 733 OFFCURVE",
"123 710 OFFCURVE",
"123 699 CURVE",
"123 699 OFFCURVE",
"123 699 OFFCURVE",
"123 687 CURVE",
"123 687 OFFCURVE",
"123 687 OFFCURVE",
"123 675 CURVE",
"123 675 OFFCURVE",
"137 687 OFFCURVE",
"137 675 CURVE",
"137 675 OFFCURVE",
"137 675 OFFCURVE",
"137 675 CURVE",
"137 675 OFFCURVE",
"137 675 OFFCURVE",
"137 675 CURVE",
"123 640 OFFCURVE",
"95 606 OFFCURVE",
"81 570 CURVE",
"81 570 OFFCURVE",
"81 559 OFFCURVE",
"66 559 CURVE",
"52 548 OFFCURVE",
"38 536 OFFCURVE",
"38 513 CURVE",
"23 489 OFFCURVE",
"-4 479 OFFCURVE",
"23 455 CURVE",
"23 455 OFFCURVE",
"23 444 OFFCURVE",
"23 444 CURVE",
"23 420 OFFCURVE",
"23 386 OFFCURVE",
"23 362 CURVE",
"38 317 OFFCURVE",
"38 269 OFFCURVE",
"66 224 CURVE",
"66 200 OFFCURVE",
"81 177 OFFCURVE",
"95 166 CURVE",
"95 154 OFFCURVE",
"95 143 OFFCURVE",
"95 143 CURVE",
"95 131 OFFCURVE",
"110 131 OFFCURVE",
"110 131 CURVE",
"123 119 OFFCURVE",
"123 107 OFFCURVE",
"123 95 CURVE",
"152 73 OFFCURVE",
"180 38 OFFCURVE",
"222 26 CURVE",
"251 4 OFFCURVE",
"280 -8 OFFCURVE",
"307 -8 CURVE",
"336 -8 OFFCURVE",
"365 -8 OFFCURVE",
"379 4 CURVE",
"407 4 OFFCURVE",
"421 14 OFFCURVE",
"435 26 CURVE",
"450 50 OFFCURVE",
"464 85 OFFCURVE",
"479 107 CURVE",
"492 119 OFFCURVE",
"492 119 OFFCURVE",
"492 131 CURVE",
"506 154 OFFCURVE",
"520 188 OFFCURVE",
"520 212 CURVE",
"535 224 OFFCURVE",
"535 235 OFFCURVE",
"520 246 CURVE",
"520 258 OFFCURVE",
"520 269 OFFCURVE",
"520 269 CURVE"
);
},
{
closed = 1;
nodes = (
"564 756 OFFCURVE",
"564 756 OFFCURVE",
"549 756 CURVE",
"564 756 OFFCURVE",
"578 756 OFFCURVE",
"591 756 CURVE"
);
}
);
width = 530;
}
);
unicode = 0047;
},
{
glyphname = H;
lastChange = "2018-01-13 17:26:57 +0000";
layers = (
{
layerId = "7185A08A-2B1C-4BBD-ABBC-D0B58775A973";
paths = (
{
closed = 1;
nodes = (
"131 85 OFFCURVE",
"131 128 OFFCURVE",
"126 165 CURVE",
"126 170 OFFCURVE",
"126 175 OFFCURVE",
"120 175 CURVE",
"105 180 OFFCURVE",
"99 192 OFFCURVE",
"105 202 CURVE",
"110 233 OFFCURVE",
"115 261 OFFCURVE",
"120 292 CURVE",
"120 302 OFFCURVE",
"120 313 OFFCURVE",
"120 323 CURVE",
"120 333 OFFCURVE",
"115 349 OFFCURVE",
"120 365 CURVE",
"126 418 OFFCURVE",
"131 471 OFFCURVE",
"136 523 CURVE",
"141 566 OFFCURVE",
"136 613 OFFCURVE",
"126 655 CURVE",
"126 661 OFFCURVE",
"126 666 OFFCURVE",
"131 671 CURVE",
"136 671 OFFCURVE",
"154 671 OFFCURVE",
"159 666 CURVE",
"165 661 OFFCURVE",
"170 666 OFFCURVE",
"170 676 CURVE",
"175 687 OFFCURVE",
"175 702 OFFCURVE",
"181 714 CURVE",
"186 719 OFFCURVE",
"197 724 OFFCURVE",
"202 719 CURVE",
"207 719 OFFCURVE",
"212 708 OFFCURVE",
"212 697 CURVE",
"212 671 OFFCURVE",
"202 644 OFFCURVE",
"207 613 CURVE",
"212 592 OFFCURVE",
"207 571 OFFCURVE",
"207 550 CURVE",
"202 535 OFFCURVE",
"202 513 OFFCURVE",
"202 492 CURVE",
"202 492 OFFCURVE",
"202 487 OFFCURVE",
"207 481 CURVE",
"223 461 OFFCURVE",
"212 433 OFFCURVE",
"207 407 CURVE",
"207 392 OFFCURVE",
"207 392 OFFCURVE",
"223 392 CURVE",
"254 392 OFFCURVE",
"285 392 OFFCURVE",
"323 392 CURVE",
"344 392 OFFCURVE",
"366 392 OFFCURVE",
"387 387 CURVE",
"402 387 OFFCURVE",
"407 387 OFFCURVE",
"413 402 CURVE",
"413 418 OFFCURVE",
"413 439 OFFCURVE",
"413 455 CURVE",
"402 497 OFFCURVE",
"407 535 OFFCURVE",
"413 576 CURVE",
"413 597 OFFCURVE",
"413 618 OFFCURVE",
"413 644 CURVE",
"418 655 OFFCURVE",
"423 666 OFFCURVE",
"428 676 CURVE",
"433 692 OFFCURVE",
"439 702 OFFCURVE",
"439 719 CURVE",
"444 735 OFFCURVE",
"444 740 OFFCURVE",
"459 740 CURVE",
"476 740 OFFCURVE",
"487 735 OFFCURVE",
"487 719 CURVE",
"487 697 OFFCURVE",
"481 676 OFFCURVE",
"481 655 CURVE",
"481 628 OFFCURVE",
"476 597 OFFCURVE",
"476 571 CURVE",
"476 540 OFFCURVE",
"470 513 OFFCURVE",
"470 481 CURVE",
"470 471 OFFCURVE",
"470 455 OFFCURVE",
"470 444 CURVE",
"470 439 OFFCURVE",
"470 433 OFFCURVE",
"476 433 CURVE",
"492 423 OFFCURVE",
"492 413 OFFCURVE",
"487 397 CURVE",
"487 380 OFFCURVE",
"481 360 OFFCURVE",
"487 339 CURVE",
"487 323 OFFCURVE",
"487 313 OFFCURVE",
"487 297 CURVE",
"487 261 OFFCURVE",
"487 218 OFFCURVE",
"487 180 CURVE",
"487 154 OFFCURVE",
"492 123 OFFCURVE",
"492 96 CURVE",
"492 91 OFFCURVE",
"487 80 OFFCURVE",
"481 75 CURVE",
"470 70 OFFCURVE",
"465 65 OFFCURVE",
"465 49 CURVE",
"470 44 OFFCURVE",
"465 39 OFFCURVE",
"459 33 CURVE",
"459 28 OFFCURVE",
"449 23 OFFCURVE",
"449 23 CURVE",
"444 28 OFFCURVE",
"439 33 OFFCURVE",
"439 39 CURVE",
"433 113 OFFCURVE",
"428 192 OFFCURVE",
"423 266 CURVE",
"423 287 OFFCURVE",
"428 302 OFFCURVE",
"433 318 CURVE",
"439 344 OFFCURVE",
"428 354 OFFCURVE",
"402 349 CURVE",
"381 349 OFFCURVE",
"359 339 OFFCURVE",
"344 328 CURVE",
"339 323 OFFCURVE",
"328 323 OFFCURVE",
"323 323 CURVE",
"285 323 OFFCURVE",
"249 318 OFFCURVE",
"207 318 CURVE",
"207 318 OFFCURVE",
"202 307 OFFCURVE",
"202 302 CURVE",
"202 271 OFFCURVE",
"202 239 OFFCURVE",
"202 207 CURVE",
"202 175 OFFCURVE",
"207 149 OFFCURVE",
"207 118 CURVE",
"207 101 OFFCURVE",
"207 85 OFFCURVE",
"202 75 CURVE",
"202 70 OFFCURVE",
"202 70 OFFCURVE",
"202 65 CURVE",
"212 49 OFFCURVE",
"202 33 OFFCURVE",
"192 18 CURVE",
"181 7 OFFCURVE",
"152 2 OFFCURVE",
"136 -3 CURVE",
"136 -3 OFFCURVE",
"126 2 OFFCURVE",
"126 7 CURVE",
"126 23 OFFCURVE",
"126 33 OFFCURVE",
"126 44 CURVE",
"126 44 OFFCURVE",
"126 44 OFFCURVE",
"131 44 CURVE"
);
}
);
width = 600;
}
);
unicode = 0048;
},
{
glyphname = I;
lastChange = "2018-01-13 17:36:05 +0000";
layers = (
{
layerId = "7185A08A-2B1C-4BBD-ABBC-D0B58775A973";
paths = (
{
closed = 1;
nodes = (
"261 679 OFFCURVE",
"261 705 OFFCURVE",
"287 716 CURVE",
"292 716 OFFCURVE",
"298 722 OFFCURVE",
"303 716 CURVE",
"309 716 OFFCURVE",
"309 705 OFFCURVE",
"309 700 CURVE",
"313 651 OFFCURVE",
"298 599 OFFCURVE",
"303 550 CURVE",
"313 481 OFFCURVE",
"292 422 OFFCURVE",
"281 357 CURVE",
"281 326 OFFCURVE",
"281 299 OFFCURVE",
"281 268 CURVE",
"281 251 OFFCURVE",
"281 230 OFFCURVE",
"281 208 CURVE",
"281 192 OFFCURVE",
"281 177 OFFCURVE",
"287 160 CURVE",
"287 149 OFFCURVE",
"281 139 OFFCURVE",
"281 128 CURVE",
"281 106 OFFCURVE",
"281 86 OFFCURVE",
"281 65 CURVE",
"281 59 OFFCURVE",
"276 48 OFFCURVE",
"270 48 CURVE",
"261 43 OFFCURVE",
"255 37 OFFCURVE",
"255 26 CURVE",
"250 16 OFFCURVE",
"250 5 OFFCURVE",
"233 5 CURVE",
"223 11 OFFCURVE",
"218 22 OFFCURVE",
"218 32 CURVE",
"218 43 OFFCURVE",
"212 54 OFFCURVE",
"212 59 CURVE",
"207 75 OFFCURVE",
"212 91 OFFCURVE",
"212 102 CURVE",
"212 128 OFFCURVE",
"212 160 OFFCURVE",
"212 188 CURVE",
"212 188 OFFCURVE",
"212 192 OFFCURVE",
"212 192 CURVE",
"223 235 OFFCURVE",
"223 277 OFFCURVE",
"223 320 CURVE",
"228 353 OFFCURVE",
"223 379 OFFCURVE",
"223 406 CURVE",
"223 422 OFFCURVE",
"223 433 OFFCURVE",
"239 439 CURVE",
"244 439 OFFCURVE",
"244 448 OFFCURVE",
"244 454 CURVE",
"250 491 OFFCURVE",
"250 524 OFFCURVE",
"250 561 CURVE",
"255 593 OFFCURVE",
"255 625 OFFCURVE",
"261 657 CURVE"
);
}
);
width = 370;
}
);
unicode = 0049;
},
{
glyphname = J;
lastChange = "2018-01-13 17:28:15 +0000";
layers = (
{
layerId = "7185A08A-2B1C-4BBD-ABBC-D0B58775A973";
paths = (
{
closed = 1;
nodes = (
"385 280 OFFCURVE",
"385 313 OFFCURVE",
"385 345 CURVE",
"385 351 OFFCURVE",
"385 356 OFFCURVE",
"391 356 CURVE",
"413 367 OFFCURVE",
"407 389 OFFCURVE",
"402 406 CURVE",
"391 460 OFFCURVE",
"396 521 OFFCURVE",
"402 575 CURVE",
"407 608 OFFCURVE",
"413 641 OFFCURVE",
"418 674 CURVE",
"418 679 OFFCURVE",
"418 690 OFFCURVE",
"424 696 CURVE",
"429 701 OFFCURVE",
"435 701 OFFCURVE",
"440 701 CURVE",
"446 701 OFFCURVE",
"451 696 OFFCURVE",
"451 690 CURVE",
"451 674 OFFCURVE",
"462 668 OFFCURVE",
"479 668 CURVE",
"490 668 OFFCURVE",
"490 663 OFFCURVE",
"490 652 CURVE",
"479 592 OFFCURVE",
"462 526 OFFCURVE",
"457 460 CURVE",
"451 428 OFFCURVE",
"451 395 OFFCURVE",
"446 362 CURVE",
"446 313 OFFCURVE",
"440 263 OFFCURVE",
"429 220 CURVE",
"418 165 OFFCURVE",
"407 115 OFFCURVE",
"396 61 CURVE",
"391 55 OFFCURVE",
"380 50 OFFCURVE",
"375 44 CURVE",
"375 44 OFFCURVE",
"369 44 OFFCURVE",
"369 39 CURVE",
"353 17 OFFCURVE",
"325 1 OFFCURVE",
"303 -10 CURVE",
"292 -16 OFFCURVE",
"281 -21 OFFCURVE",
"276 -21 CURVE",
"249 -21 OFFCURVE",
"227 -21 OFFCURVE",
"205 -16 CURVE",
"199 -16 OFFCURVE",
"188 -10 OFFCURVE",
"183 -5 CURVE",
"161 22 OFFCURVE",
"139 50 OFFCURVE",
"134 88 CURVE",
"134 94 OFFCURVE",
"134 99 OFFCURVE",
"139 99 CURVE",
"145 105 OFFCURVE",
"150 99 OFFCURVE",
"156 99 CURVE",
"161 99 OFFCURVE",
"166 94 OFFCURVE",
"172 99 CURVE",
"183 105 OFFCURVE",
"188 99 OFFCURVE",
"194 88 CURVE",
"205 72 OFFCURVE",
"210 61 OFFCURVE",
"221 50 CURVE",
"243 33 OFFCURVE",
"265 33 OFFCURVE",
"281 55 CURVE",
"287 61 OFFCURVE",
"303 66 OFFCURVE",
"309 66 CURVE",
"336 72 OFFCURVE",
"347 88 OFFCURVE",
"353 110 CURVE",
"364 137 OFFCURVE",
"369 165 OFFCURVE",
"375 192 CURVE",
"380 209 OFFCURVE",
"385 230 OFFCURVE",
"391 247 CURVE",
"385 247 OFFCURVE",
"385 247 OFFCURVE",
"385 247 CURVE"
);
}
);
width = 600;
}
);
unicode = 004A;
},
{
glyphname = K;
lastChange = "2018-01-13 17:28:47 +0000";
layers = (
{
layerId = "7185A08A-2B1C-4BBD-ABBC-D0B58775A973";
paths = (
{
closed = 1;
nodes = (
"202 649 OFFCURVE",
"202 638 OFFCURVE",
"202 627 CURVE",
"219 582 OFFCURVE",
"213 531 OFFCURVE",
"213 479 CURVE",
"213 473 OFFCURVE",
"219 468 OFFCURVE",
"219 462 CURVE",
"219 451 OFFCURVE",
"224 445 OFFCURVE",
"224 439 CURVE",
"207 411 OFFCURVE",
"219 382 OFFCURVE",
"219 354 CURVE",
"224 354 OFFCURVE",
"224 354 OFFCURVE",
"230 354 CURVE",
"236 365 OFFCURVE",
"242 382 OFFCURVE",
"247 394 CURVE",
"259 433 OFFCURVE",
"276 468 OFFCURVE",
"293 508 CURVE",
"293 519 OFFCURVE",
"304 525 OFFCURVE",
"310 531 CURVE",
"310 536 OFFCURVE",
"316 542 OFFCURVE",
"316 553 CURVE",
"322 571 OFFCURVE",
"327 588 OFFCURVE",
"350 593 CURVE",
"362 593 OFFCURVE",
"362 610 OFFCURVE",
"367 621 CURVE",
"373 644 OFFCURVE",
"396 667 OFFCURVE",
"413 684 CURVE",
"419 684 OFFCURVE",
"424 689 OFFCURVE",
"430 684 CURVE",
"436 684 OFFCURVE",
"441 672 OFFCURVE",
"441 667 CURVE",
"436 649 OFFCURVE",
"430 632 OFFCURVE",
"424 616 CURVE",
"407 571 OFFCURVE",
"384 525 OFFCURVE",
"367 473 CURVE",
"350 445 OFFCURVE",
"344 405 OFFCURVE",
"327 376 CURVE",
"327 365 OFFCURVE",
"316 359 OFFCURVE",
"310 359 CURVE",
"299 354 OFFCURVE",
"287 326 OFFCURVE",
"293 315 CURVE",
"299 309 OFFCURVE",
"304 297 OFFCURVE",
"310 286 CURVE",
"316 286 OFFCURVE",
"316 280 OFFCURVE",
"322 280 CURVE",
"333 269 OFFCURVE",
"344 263 OFFCURVE",
"350 252 CURVE",
"373 217 OFFCURVE",
"402 172 OFFCURVE",
"424 132 CURVE",
"424 132 OFFCURVE",
"430 126 OFFCURVE",
"436 120 CURVE",
"436 120 OFFCURVE",
"436 115 OFFCURVE",
"436 109 CURVE",
"436 109 OFFCURVE",
"430 109 OFFCURVE",
"424 109 CURVE",
"424 109 OFFCURVE",
"419 109 OFFCURVE",
"419 109 CURVE",
"419 109 OFFCURVE",
"419 103 OFFCURVE",
"419 98 CURVE",
"430 81 OFFCURVE",
"441 59 OFFCURVE",
"453 41 CURVE",
"458 36 OFFCURVE",
"458 24 OFFCURVE",
"458 19 CURVE",
"447 19 OFFCURVE",
"441 13 OFFCURVE",
"436 19 CURVE",
"390 53 OFFCURVE",
"356 92 OFFCURVE",
"333 143 CURVE",
"322 166 OFFCURVE",
"304 189 OFFCURVE",
"293 212 CURVE",
"287 223 OFFCURVE",
"282 235 OFFCURVE",
"276 252 CURVE",
"270 263 OFFCURVE",
"264 275 OFFCURVE",
"242 275 CURVE",
"219 269 OFFCURVE",
"224 257 OFFCURVE",
"224 246 CURVE",
"230 206 OFFCURVE",
"236 160 OFFCURVE",
"224 115 CURVE",
"224 109 OFFCURVE",
"224 98 OFFCURVE",
"224 86 CURVE",
"219 70 OFFCURVE",
"219 53 OFFCURVE",
"213 36 CURVE",
"207 24 OFFCURVE",
"168 19 OFFCURVE",
"163 24 CURVE",
"157 30 OFFCURVE",
"151 36 OFFCURVE",
"151 47 CURVE",
"157 120 OFFCURVE",
"157 195 OFFCURVE",
"163 269 CURVE",
"163 275 OFFCURVE",
"163 280 OFFCURVE",
"157 286 CURVE",
"134 332 OFFCURVE",
"134 382 OFFCURVE",
"140 428 CURVE",
"140 451 OFFCURVE",
"140 473 OFFCURVE",
"140 496 CURVE",
"140 502 OFFCURVE",
"140 508 OFFCURVE",
"140 513 CURVE",
"128 559 OFFCURVE",
"123 599 OFFCURVE",
"111 644 CURVE",
"111 655 OFFCURVE",
"123 667 OFFCURVE",
"140 667 CURVE",
"146 672 OFFCURVE",
"157 678 OFFCURVE",
"163 678 CURVE",
"174 684 OFFCURVE",
"180 689 OFFCURVE",
"191 689 CURVE",
"196 684 OFFCURVE",
"202 672 OFFCURVE",
"207 667 CURVE",
"202 667 OFFCURVE",
"202 667 OFFCURVE",
"202 667 CURVE"
);
}
);
width = 600;
}
);
unicode = 004B;
},
{
glyphname = L;
lastChange = "2018-01-13 17:29:54 +0000";
layers = (
{
layerId = "7185A08A-2B1C-4BBD-ABBC-D0B58775A973";
paths = (
{
closed = 1;
nodes = (
"277 88 OFFCURVE",
"289 94 OFFCURVE",
"299 100 CURVE",
"356 100 OFFCURVE",
"406 100 OFFCURVE",
"462 100 CURVE",
"480 100 OFFCURVE",
"497 94 OFFCURVE",
"513 77 CURVE",
"513 71 OFFCURVE",
"513 66 OFFCURVE",
"518 60 CURVE",
"508 60 OFFCURVE",
"502 55 OFFCURVE",
"497 60 CURVE",
"485 60 OFFCURVE",
"474 71 OFFCURVE",
"462 77 CURVE",
"446 88 OFFCURVE",
"412 77 OFFCURVE",
"401 55 CURVE",
"401 55 OFFCURVE",
"395 48 OFFCURVE",
"395 48 CURVE",
"338 32 OFFCURVE",
"282 9 OFFCURVE",
"221 -1 CURVE",
"198 -8 OFFCURVE",
"175 4 OFFCURVE",
"147 9 CURVE",
"147 9 OFFCURVE",
"142 20 OFFCURVE",
"142 20 CURVE",
"142 27 OFFCURVE",
"147 32 OFFCURVE",
"153 32 CURVE",
"170 32 OFFCURVE",
"170 43 OFFCURVE",
"175 48 CURVE",
"198 88 OFFCURVE",
"186 128 OFFCURVE",
"186 172 CURVE",
"186 200 OFFCURVE",
"193 228 OFFCURVE",
"198 257 CURVE",
"198 279 OFFCURVE",
"204 296 OFFCURVE",
"209 314 CURVE",
"209 324 OFFCURVE",
"209 336 OFFCURVE",
"209 347 CURVE",
"209 359 OFFCURVE",
"209 370 OFFCURVE",
"209 380 CURVE",
"209 438 OFFCURVE",
"209 488 OFFCURVE",
"209 544 CURVE",
"209 578 OFFCURVE",
"204 618 OFFCURVE",
"204 651 CURVE",
"204 662 OFFCURVE",
"215 667 OFFCURVE",
"226 662 CURVE",
"238 662 OFFCURVE",
"243 656 OFFCURVE",
"254 667 CURVE",
"254 667 OFFCURVE",
"271 667 OFFCURVE",
"277 662 CURVE",
"282 646 OFFCURVE",
"289 634 OFFCURVE",
"277 618 CURVE",
"266 595 OFFCURVE",
"266 572 OFFCURVE",
"271 544 CURVE",
"271 532 OFFCURVE",
"271 516 OFFCURVE",
"271 499 CURVE",
"271 482 OFFCURVE",
"271 471 OFFCURVE",
"282 454 CURVE",
"282 454 OFFCURVE",
"282 448 OFFCURVE",
"282 443 CURVE",
"277 415 OFFCURVE",
"277 387 OFFCURVE",
"271 359 CURVE",
"266 314 OFFCURVE",
"266 268 OFFCURVE",
"261 223 CURVE",
"254 190 OFFCURVE",
"249 151 OFFCURVE",
"249 116 CURVE",
"243 105 OFFCURVE",
"243 88 OFFCURVE",
"271 88 CURVE"
);
}
);
width = 600;
}
);
unicode = 004C;
},
{
glyphname = M;
lastChange = "2018-01-13 17:30:04 +0000";
layers = (
{
layerId = "7185A08A-2B1C-4BBD-ABBC-D0B58775A973";
paths = (
{
closed = 1;
nodes = (
"20 303 OFFCURVE",
"31 364 OFFCURVE",
"37 419 CURVE",
"37 458 OFFCURVE",
"37 496 OFFCURVE",
"37 535 CURVE",
"37 557 OFFCURVE",
"31 579 OFFCURVE",
"31 601 CURVE",
"31 601 OFFCURVE",
"26 607 OFFCURVE",
"31 607 CURVE",
"42 629 OFFCURVE",
"37 656 OFFCURVE",
"37 684 CURVE",
"37 689 OFFCURVE",
"31 695 OFFCURVE",
"31 700 CURVE",
"37 706 OFFCURVE",
"37 711 OFFCURVE",
"42 711 CURVE",
"48 711 OFFCURVE",
"59 711 OFFCURVE",
"59 706 CURVE",
"64 700 OFFCURVE",
"70 695 OFFCURVE",
"70 689 CURVE",
"70 651 OFFCURVE",
"92 634 OFFCURVE",
"125 623 CURVE",
"125 623 OFFCURVE",
"131 618 OFFCURVE",
"131 618 CURVE",
"147 595 OFFCURVE",
"164 579 OFFCURVE",
"175 562 CURVE",
"186 529 OFFCURVE",
"213 507 OFFCURVE",
"230 485 CURVE",
"241 469 OFFCURVE",
"246 458 OFFCURVE",
"252 441 CURVE",
"252 441 OFFCURVE",
"252 441 OFFCURVE",
"252 436 CURVE",
"257 441 OFFCURVE",
"257 441 OFFCURVE",
"263 441 CURVE",
"290 480 OFFCURVE",
"318 518 OFFCURVE",
"346 562 CURVE",
"373 595 OFFCURVE",
"406 634 OFFCURVE",
"445 662 CURVE",
"450 667 OFFCURVE",
"456 667 OFFCURVE",
"461 667 CURVE",
"472 667 OFFCURVE",
"483 662 OFFCURVE",
"494 656 CURVE",
"500 651 OFFCURVE",
"500 645 OFFCURVE",
"500 640 CURVE",
"506 623 OFFCURVE",
"511 612 OFFCURVE",
"511 601 CURVE",
"517 590 OFFCURVE",
"517 584 OFFCURVE",
"517 579 CURVE",
"511 507 OFFCURVE",
"511 430 OFFCURVE",
"522 358 CURVE",
"522 331 OFFCURVE",
"522 303 OFFCURVE",
"522 276 CURVE",
"528 232 OFFCURVE",
"533 187 OFFCURVE",
"539 149 CURVE",
"539 143 OFFCURVE",
"539 138 OFFCURVE",
"539 138 CURVE",
"528 105 OFFCURVE",
"517 66 OFFCURVE",
"528 28 CURVE",
"533 28 OFFCURVE",
"528 22 OFFCURVE",
"528 17 CURVE",
"522 17 OFFCURVE",
"517 22 OFFCURVE",
"517 22 CURVE",
"506 39 OFFCURVE",
"500 55 OFFCURVE",
"494 77 CURVE",
"483 127 OFFCURVE",
"467 176 OFFCURVE",
"456 232 CURVE",
"450 276 OFFCURVE",
"450 320 OFFCURVE",
"450 364 CURVE",
"450 375 OFFCURVE",
"450 380 OFFCURVE",
"450 391 CURVE",
"450 403 OFFCURVE",
"450 414 OFFCURVE",
"434 414 CURVE",
"428 419 OFFCURVE",
"423 430 OFFCURVE",
"423 436 CURVE",
"428 474 OFFCURVE",
"434 518 OFFCURVE",
"434 562 CURVE",
"434 573 OFFCURVE",
"439 584 OFFCURVE",
"439 595 CURVE",
"439 601 OFFCURVE",
"434 601 OFFCURVE",
"434 601 CURVE",
"434 601 OFFCURVE",
"434 601 OFFCURVE",
"434 601 CURVE",
"406 573 OFFCURVE",
"384 546 OFFCURVE",
"362 518 CURVE",
"329 480 OFFCURVE",
"302 436 OFFCURVE",
"274 391 CURVE",
"257 364 OFFCURVE",
"246 358 OFFCURVE",
"224 386 CURVE",
"197 414 OFFCURVE",
"175 452 OFFCURVE",
"164 491 CURVE",
"153 518 OFFCURVE",
"131 546 OFFCURVE",
"109 568 CURVE",
"103 573 OFFCURVE",
"97 573 OFFCURVE",
"97 562 CURVE",
"97 507 OFFCURVE",
"97 447 OFFCURVE",
"92 386 CURVE",
"92 353 OFFCURVE",
"92 325 OFFCURVE",
"97 292 CURVE",
"97 265 OFFCURVE",
"103 232 OFFCURVE",
"103 204 CURVE",
"109 160 OFFCURVE",
"114 116 OFFCURVE",
"120 66 CURVE",
"120 61 OFFCURVE",
"114 50 OFFCURVE",
"109 50 CURVE",
"103 44 OFFCURVE",
"97 55 OFFCURVE",
"86 61 CURVE",
"86 61 OFFCURVE",
"81 66 OFFCURVE",
"75 66 CURVE",
"59 66 OFFCURVE",
"48 72 OFFCURVE",
"48 94 CURVE",
"48 110 OFFCURVE",
"42 127 OFFCURVE",
"31 143 CURVE",
"20 165 OFFCURVE",
"20 193 OFFCURVE",
"20 221 CURVE",
"15 226 OFFCURVE",
"20 237 OFFCURVE",
"20 248 CURVE",
"20 248 OFFCURVE",
"15 248 OFFCURVE",
"15 248 CURVE"
);
}
);
width = 600;
}
);
unicode = 004D;
},
{
glyphname = N;
lastChange = "2018-01-13 17:30:22 +0000";
layers = (
{
layerId = "7185A08A-2B1C-4BBD-ABBC-D0B58775A973";
paths = (
{
closed = 1;
nodes = (
"498 80 OFFCURVE",
"498 94 OFFCURVE",
"498 94 CURVE",
"498 131 OFFCURVE",
"498 156 OFFCURVE",
"498 194 CURVE",
"498 231 OFFCURVE",
"498 270 OFFCURVE",
"498 320 CURVE",
"498 332 OFFCURVE",
"498 358 OFFCURVE",
"498 383 CURVE",
"486 421 OFFCURVE",
"486 447 OFFCURVE",
"486 483 CURVE",
"486 509 OFFCURVE",
"473 547 OFFCURVE",
"473 584 CURVE",
"473 597 OFFCURVE",
"473 623 OFFCURVE",
"460 634 CURVE",
"460 648 OFFCURVE",
"460 648 OFFCURVE",
"447 660 CURVE",
"435 660 OFFCURVE",
"410 660 OFFCURVE",
"385 660 CURVE",
"397 660 OFFCURVE",
"397 660 OFFCURVE",
"410 660 CURVE",
"423 660 OFFCURVE",
"423 648 OFFCURVE",
"423 634 CURVE",
"423 610 OFFCURVE",
"423 571 OFFCURVE",
"423 534 CURVE",
"423 497 OFFCURVE",
"423 458 OFFCURVE",
"423 421 CURVE",
"423 383 OFFCURVE",
"423 332 OFFCURVE",
"423 294 CURVE",
"423 294 OFFCURVE",
"410 282 OFFCURVE",
"410 282 CURVE",
"410 294 OFFCURVE",
"410 294 OFFCURVE",
"410 308 CURVE",
"397 320 OFFCURVE",
"385 344 OFFCURVE",
"371 370 CURVE",
"371 395 OFFCURVE",
"360 408 OFFCURVE",
"347 433 CURVE",
"334 433 OFFCURVE",
"334 421 OFFCURVE",
"334 433 CURVE",
"322 447 OFFCURVE",
"310 471 OFFCURVE",
"297 483 CURVE",
"284 497 OFFCURVE",
"284 509 OFFCURVE",
"272 521 CURVE",
"258 534 OFFCURVE",
"258 547 OFFCURVE",
"246 547 CURVE",
"221 571 OFFCURVE",
"195 597 OFFCURVE",
"171 623 CURVE",
"158 634 OFFCURVE",
"145 660 OFFCURVE",
"133 673 CURVE",
"121 686 OFFCURVE",
"107 698 OFFCURVE",
"95 711 CURVE",
"82 698 OFFCURVE",
"82 686 OFFCURVE",
"82 660 CURVE",
"82 648 OFFCURVE",
"70 634 OFFCURVE",
"70 610 CURVE",
"70 584 OFFCURVE",
"57 560 OFFCURVE",
"57 534 CURVE",
"57 497 OFFCURVE",
"57 458 OFFCURVE",
"57 421 CURVE",
"57 395 OFFCURVE",
"57 370 OFFCURVE",
"57 358 CURVE",
"57 332 OFFCURVE",
"57 308 OFFCURVE",
"70 282 CURVE",
"70 257 OFFCURVE",
"70 231 OFFCURVE",
"82 194 CURVE",
"82 181 OFFCURVE",
"82 156 OFFCURVE",
"82 131 CURVE",
"82 118 OFFCURVE",
"82 94 OFFCURVE",
"95 80 CURVE",
"95 68 OFFCURVE",
"107 68 OFFCURVE",
"107 55 CURVE",
"121 42 OFFCURVE",
"121 18 OFFCURVE",
"145 18 CURVE",
"145 18 OFFCURVE",
"158 18 OFFCURVE",
"158 18 CURVE",
"171 18 OFFCURVE",
"184 5 OFFCURVE",
"195 18 CURVE",
"195 30 OFFCURVE",
"208 30 OFFCURVE",
"208 30 CURVE",
"208 42 OFFCURVE",
"208 55 OFFCURVE",
"195 80 CURVE",
"195 80 OFFCURVE",
"195 80 OFFCURVE",
"195 80 CURVE",
"184 106 OFFCURVE",
"184 131 OFFCURVE",
"171 144 CURVE",
"171 194 OFFCURVE",
"158 231 OFFCURVE",
"145 282 CURVE",
"145 308 OFFCURVE",
"133 332 OFFCURVE",
"133 358 CURVE",
"133 383 OFFCURVE",
"121 421 OFFCURVE",
"133 447 CURVE",
"133 458 OFFCURVE",
"133 471 OFFCURVE",
"133 471 CURVE",
"121 497 OFFCURVE",
"133 521 OFFCURVE",
"133 547 CURVE",
"121 560 OFFCURVE",
"133 571 OFFCURVE",
"133 584 CURVE",
"133 571 OFFCURVE",
"145 571 OFFCURVE",
"145 571 CURVE",
"158 547 OFFCURVE",
"184 521 OFFCURVE",
"195 497 CURVE",
"221 458 OFFCURVE",
"246 421 OFFCURVE",
"272 395 CURVE",
"272 383 OFFCURVE",
"284 383 OFFCURVE",
"284 370 CURVE",
"272 344 OFFCURVE",
"272 332 OFFCURVE",
"284 308 CURVE",
"284 332 OFFCURVE",
"284 344 OFFCURVE",
"284 358 CURVE",
"284 358 OFFCURVE",
"284 358 OFFCURVE",
"284 358 CURVE",
"284 358 OFFCURVE",
"284 358 OFFCURVE",
"284 358 CURVE",
"297 332 OFFCURVE",
"297 308 OFFCURVE",
"322 282 CURVE",
"322 282 OFFCURVE",
"322 282 OFFCURVE",
"322 282 CURVE",
"322 257 OFFCURVE",
"334 245 OFFCURVE",
"347 231 CURVE",
"360 207 OFFCURVE",
"360 181 OFFCURVE",
"371 156 CURVE",
"371 118 OFFCURVE",
"385 80 OFFCURVE",
"410 42 CURVE",
"410 42 OFFCURVE",
"410 42 OFFCURVE",
"410 42 CURVE",
"410 30 OFFCURVE",
"423 18 OFFCURVE",
"435 18 CURVE",
"447 5 OFFCURVE",
"460 5 OFFCURVE",
"473 5 CURVE",
"486 18 OFFCURVE",
"498 18 OFFCURVE",
"510 18 CURVE",
"498 42 OFFCURVE",
"498 55 OFFCURVE",
"498 80 CURVE"
);
},
{
closed = 1;
nodes = (
"284 294 OFFCURVE",
"284 308 OFFCURVE",
"284 332 CURVE",
"284 332 OFFCURVE",
"284 344 OFFCURVE",
"284 344 CURVE",
"284 320 OFFCURVE",
"272 308 OFFCURVE",
"284 270 CURVE"
);
}
);
width = 600;
}
);
unicode = 004E;
},
{
glyphname = O;
lastChange = "2018-01-13 17:31:19 +0000";
layers = (
{
layerId = "7185A08A-2B1C-4BBD-ABBC-D0B58775A973";
paths = (
{
closed = 1;
nodes = (
"525 532 OFFCURVE",
"531 507 OFFCURVE",
"537 489 CURVE",
"537 482 OFFCURVE",
"537 476 OFFCURVE",
"537 476 CURVE",
"537 438 OFFCURVE",
"531 394 OFFCURVE",
"525 357 CURVE",
"525 351 OFFCURVE",
"531 344 OFFCURVE",
"537 338 CURVE",
"537 331 OFFCURVE",
"543 326 OFFCURVE",
"543 319 CURVE",
"531 231 OFFCURVE",
"500 156 OFFCURVE",
"462 81 CURVE",
"443 43 OFFCURVE",
"412 13 OFFCURVE",
"387 -18 CURVE",
"375 -37 OFFCURVE",
"355 -37 OFFCURVE",
"337 -25 CURVE",
"330 -25 OFFCURVE",
"324 -25 OFFCURVE",
"312 -25 CURVE",
"268 -43 OFFCURVE",
"212 -37 OFFCURVE",
"180 -7 CURVE",
"167 7 OFFCURVE",
"155 25 OFFCURVE",
"149 38 CURVE",
"124 81 OFFCURVE",
"92 125 OFFCURVE",
"92 175 CURVE",
"92 188 OFFCURVE",
"80 201 OFFCURVE",
"80 213 CURVE",
"74 238 OFFCURVE",
"67 263 OFFCURVE",
"74 288 CURVE",
"74 306 OFFCURVE",
"80 331 OFFCURVE",
"87 351 CURVE",
"87 357 OFFCURVE",
"80 369 OFFCURVE",
"87 376 CURVE",
"87 394 OFFCURVE",
"92 419 OFFCURVE",
"99 438 CURVE",
"117 507 OFFCURVE",
"162 564 OFFCURVE",
"199 626 CURVE",
"212 657 OFFCURVE",
"230 676 OFFCURVE",
"249 701 CURVE",
"262 707 OFFCURVE",
"268 707 OFFCURVE",
"280 701 CURVE",
"287 695 OFFCURVE",
"287 689 OFFCURVE",
"293 689 CURVE",
"305 682 OFFCURVE",
"312 682 OFFCURVE",
"305 701 CURVE",
"305 707 OFFCURVE",
"312 714 OFFCURVE",
"312 720 CURVE",
"318 720 OFFCURVE",
"324 720 OFFCURVE",
"330 714 CURVE",
"349 714 OFFCURVE",
"368 707 OFFCURVE",
"387 701 CURVE",
"400 695 OFFCURVE",
"412 695 OFFCURVE",
"425 695 CURVE",
"425 689 OFFCURVE",
"430 676 OFFCURVE",
"425 676 CURVE",
"418 664 OFFCURVE",
"425 657 OFFCURVE",
"437 651 CURVE",
"443 651 OFFCURVE",
"450 651 OFFCURVE",
"450 651 CURVE",
"468 645 OFFCURVE",
"480 632 OFFCURVE",
"475 607 CURVE",
"475 601 OFFCURVE",
"475 601 OFFCURVE",
"475 594 CURVE",
"480 601 OFFCURVE",
"480 601 OFFCURVE",
"480 601 CURVE",
"487 607 OFFCURVE",
"500 614 OFFCURVE",
"506 614 CURVE",
"506 607 OFFCURVE",
"512 601 OFFCURVE",
"518 594 CURVE",
"518 582 OFFCURVE",
"518 569 OFFCURVE",
"525 557 CURVE",
"518 551 OFFCURVE",
"518 551 OFFCURVE",
"518 551 CURVE"
);
},
{
closed = 1;
nodes = (
"437 457 OFFCURVE",
"437 457 OFFCURVE",
"443 463 CURVE",
"437 469 OFFCURVE",
"430 482 OFFCURVE",
"425 494 CURVE",
"412 514 OFFCURVE",
"405 532 OFFCURVE",
"393 551 CURVE",
"380 569 OFFCURVE",
"368 582 OFFCURVE",
"355 594 CURVE",
"349 601 OFFCURVE",
"343 607 OFFCURVE",
"343 614 CURVE",
"330 626 OFFCURVE",
"318 645 OFFCURVE",
"299 645 CURVE",
"287 645 OFFCURVE",
"274 632 OFFCURVE",
"262 626 CURVE",
"237 620 OFFCURVE",
"224 594 OFFCURVE",
"217 576 CURVE",
"192 532 OFFCURVE",
"174 489 OFFCURVE",
"155 444 CURVE",
"155 432 OFFCURVE",
"149 426 OFFCURVE",
"149 413 CURVE",
"155 382 OFFCURVE",
"162 351 OFFCURVE",
"162 313 CURVE",
"162 306 OFFCURVE",
"167 301 OFFCURVE",
"174 288 CURVE",
"180 281 OFFCURVE",
"187 276 OFFCURVE",
"187 263 CURVE",
"187 219 OFFCURVE",
"180 175 OFFCURVE",
"187 131 CURVE",
"199 81 OFFCURVE",
"217 38 OFFCURVE",
"274 25 CURVE",
"274 18 OFFCURVE",
"280 13 OFFCURVE",
"280 13 CURVE",
"274 0 OFFCURVE",
"287 -7 OFFCURVE",
"293 0 CURVE",
"312 0 OFFCURVE",
"330 13 OFFCURVE",
"349 18 CURVE",
"349 25 OFFCURVE",
"355 32 OFFCURVE",
"355 38 CURVE",
"362 43 OFFCURVE",
"362 56 OFFCURVE",
"368 63 CURVE",
"380 81 OFFCURVE",
"400 95 OFFCURVE",
"412 106 CURVE",
"430 150 OFFCURVE",
"443 188 OFFCURVE",
"455 231 CURVE",
"455 231 OFFCURVE",
"455 238 OFFCURVE",
"450 244 CURVE",
"437 244 OFFCURVE",
"430 251 OFFCURVE",
"430 263 CURVE",
"430 269 OFFCURVE",
"430 281 OFFCURVE",
"430 288 CURVE",
"437 326 OFFCURVE",
"443 363 OFFCURVE",
"450 401 CURVE",
"450 407 OFFCURVE",
"450 413 OFFCURVE",
"450 419 CURVE",
"443 432 OFFCURVE",
"437 444 OFFCURVE",
"430 457 CURVE"
);
}
);
width = 676;
}
);
unicode = 004F;
},
{
glyphname = P;
lastChange = "2018-01-13 17:31:55 +0000";
layers = (
{
layerId = "7185A08A-2B1C-4BBD-ABBC-D0B58775A973";
paths = (
{
closed = 1;
nodes = (
"273 321 OFFCURVE",
"248 315 OFFCURVE",
"217 315 CURVE",
"217 309 OFFCURVE",
"211 304 OFFCURVE",
"211 304 CURVE",
"203 276 OFFCURVE",
"203 251 OFFCURVE",
"198 225 CURVE",
"198 220 OFFCURVE",
"198 214 OFFCURVE",
"198 208 CURVE",
"198 200 OFFCURVE",
"203 188 OFFCURVE",
"203 181 CURVE",
"203 174 OFFCURVE",
"211 164 OFFCURVE",
"211 150 CURVE",
"211 113 OFFCURVE",
"211 73 OFFCURVE",
"203 34 CURVE",
"203 23 OFFCURVE",
"191 3 OFFCURVE",
"172 -10 CURVE",
"166 -16 OFFCURVE",
"152 -2 OFFCURVE",
"152 10 CURVE",
"152 23 OFFCURVE",
"147 29 OFFCURVE",
"133 15 CURVE",
"128 10 OFFCURVE",
"121 10 OFFCURVE",
"114 10 CURVE",
"108 15 OFFCURVE",
"102 23 OFFCURVE",
"108 34 CURVE",
"108 113 OFFCURVE",
"108 188 OFFCURVE",
"114 265 CURVE",
"114 296 OFFCURVE",
"121 328 OFFCURVE",
"121 360 CURVE",
"128 366 OFFCURVE",
"121 379 OFFCURVE",
"114 385 CURVE",
"108 398 OFFCURVE",
"102 405 OFFCURVE",
"102 410 CURVE",
"108 441 OFFCURVE",
"114 475 OFFCURVE",
"121 506 CURVE",
"128 564 OFFCURVE",
"141 615 OFFCURVE",
"152 672 CURVE",
"159 697 OFFCURVE",
"159 728 OFFCURVE",
"203 728 CURVE",
"236 735 OFFCURVE",
"268 747 OFFCURVE",
"306 747 CURVE",
"324 747 OFFCURVE",
"349 735 OFFCURVE",
"374 728 CURVE",
"374 728 OFFCURVE",
"382 722 OFFCURVE",
"382 722 CURVE",
"382 702 OFFCURVE",
"394 702 OFFCURVE",
"408 697 CURVE",
"419 697 OFFCURVE",
"432 697 OFFCURVE",
"439 672 CURVE",
"444 660 OFFCURVE",
"464 646 OFFCURVE",
"478 627 CURVE",
"497 595 OFFCURVE",
"478 564 OFFCURVE",
"470 525 CURVE",
"458 487 OFFCURVE",
"444 441 OFFCURVE",
"432 405 CURVE",
"432 398 OFFCURVE",
"419 385 OFFCURVE",
"413 385 CURVE",
"394 385 OFFCURVE",
"402 398 OFFCURVE",
"402 410 CURVE",
"402 410 OFFCURVE",
"402 417 OFFCURVE",
"402 417 CURVE",
"402 417 OFFCURVE",
"394 417 OFFCURVE",
"394 410 CURVE",
"388 410 OFFCURVE",
"382 410 OFFCURVE",
"382 405 CURVE",
"374 405 OFFCURVE",
"374 398 OFFCURVE",
"369 391 CURVE",
"374 391 OFFCURVE",
"382 391 OFFCURVE",
"382 391 CURVE",
"388 391 OFFCURVE",
"388 391 OFFCURVE",
"388 391 CURVE",
"394 371 OFFCURVE",
"382 347 OFFCURVE",
"362 340 CURVE",
"343 335 OFFCURVE",
"324 328 OFFCURVE",
"306 321 CURVE",
"306 321 OFFCURVE",
"306 328 OFFCURVE",
"306 328 CURVE"
);
},
{
closed = 1;
nodes = (
"198 391 OFFCURVE",
"211 391 OFFCURVE",
"217 398 CURVE",
"242 405 OFFCURVE",
"261 410 OFFCURVE",
"279 417 CURVE",
"306 430 OFFCURVE",
"331 449 OFFCURVE",
"362 461 CURVE",
"382 468 OFFCURVE",
"388 475 OFFCURVE",
"388 494 CURVE",
"388 506 OFFCURVE",
"388 511 OFFCURVE",
"394 520 CURVE",
"402 545 OFFCURVE",
"413 571 OFFCURVE",
"419 595 CURVE",
"427 607 OFFCURVE",
"427 615 OFFCURVE",
"427 627 CURVE",
"427 646 OFFCURVE",
"382 677 OFFCURVE",
"362 685 CURVE",
"324 691 OFFCURVE",
"287 697 OFFCURVE",
"248 677 CURVE",
"248 677 OFFCURVE",
"242 677 OFFCURVE",
"236 677 CURVE",
"236 677 OFFCURVE",
"229 685 OFFCURVE",
"222 691 CURVE",
"222 691 OFFCURVE",
"222 697 OFFCURVE",
"222 702 CURVE",
"217 697 OFFCURVE",
"211 697 OFFCURVE",
"211 691 CURVE",
"198 677 OFFCURVE",
"198 665 OFFCURVE",
"211 646 CURVE",
"211 646 OFFCURVE",
"211 632 OFFCURVE",
"211 627 CURVE",
"203 595 OFFCURVE",
"198 571 OFFCURVE",
"191 537 CURVE",
"191 511 OFFCURVE",
"184 487 OFFCURVE",
"191 468 CURVE",
"198 449 OFFCURVE",
"203 430 OFFCURVE",
"198 410 CURVE"
);
}
);
width = 600;
}
);
unicode = 0050;
},
{
glyphname = Q;
lastChange = "2018-01-13 17:34:05 +0000";
layers = (
{
layerId = "7185A08A-2B1C-4BBD-ABBC-D0B58775A973";
paths = (
{
closed = 1;
nodes = (
"319 693 OFFCURVE",
"312 693 OFFCURVE",
"312 693 CURVE",
"304 693 OFFCURVE",
"304 693 OFFCURVE",
"304 693 CURVE",
"283 693 LINE",
"276 693 OFFCURVE",
"261 688 OFFCURVE",
"254 675 CURVE",
"248 665 OFFCURVE",
"225 660 OFFCURVE",
"204 654 CURVE",
"176 647 OFFCURVE",
"153 638 OFFCURVE",
"140 610 CURVE",
"125 559 OFFCURVE",
"104 502 OFFCURVE",
"82 448 CURVE",
"53 387 OFFCURVE",
"25 326 OFFCURVE",
"39 253 CURVE",
"46 236 OFFCURVE",
"39 215 OFFCURVE",
"53 205 CURVE",
"68 187 OFFCURVE",
"68 168 OFFCURVE",
"75 154 CURVE",
"75 136 OFFCURVE",
"75 119 OFFCURVE",
"97 108 CURVE",
"104 108 OFFCURVE",
"104 97 OFFCURVE",
"111 97 CURVE",
"125 70 OFFCURVE",
"140 42 OFFCURVE",
"169 19 CURVE",
"197 -4 OFFCURVE",
"241 -19 OFFCURVE",
"290 -14 CURVE",
"304 -14 OFFCURVE",
"326 -8 OFFCURVE",
"340 -4 CURVE",
"362 3 OFFCURVE",
"376 -8 OFFCURVE",
"384 -14 CURVE",
"391 -19 OFFCURVE",
"398 -26 OFFCURVE",
"412 -26 CURVE",
"420 -35 OFFCURVE",
"440 -35 OFFCURVE",
"447 -48 CURVE",
"463 -59 OFFCURVE",
"477 -69 OFFCURVE",
"498 -81 CURVE",
"498 -86 OFFCURVE",
"512 -86 OFFCURVE",
"521 -86 CURVE",
"521 -81 OFFCURVE",
"521 -69 OFFCURVE",
"512 -63 CURVE",
"505 -54 OFFCURVE",
"492 -41 OFFCURVE",
"477 -32 CURVE",
"463 -8 OFFCURVE",
"447 14 OFFCURVE",
"427 36 CURVE",
"420 47 OFFCURVE",
"420 58 OFFCURVE",
"427 70 CURVE",
"440 80 OFFCURVE",
"456 91 OFFCURVE",
"463 108 CURVE",
"492 154 OFFCURVE",
"512 205 OFFCURVE",
"542 247 CURVE",
"548 260 OFFCURVE",
"557 271 OFFCURVE",
"542 280 CURVE",
"542 287 OFFCURVE",
"542 299 OFFCURVE",
"542 304 CURVE",
"548 315 OFFCURVE",
"548 326 OFFCURVE",
"548 332 CURVE",
"548 353 OFFCURVE",
"548 381 OFFCURVE",
"548 404 CURVE",
"548 431 OFFCURVE",
"548 465 OFFCURVE",
"548 499 CURVE",
"548 509 OFFCURVE",
"542 521 OFFCURVE",
"535 530 CURVE",
"535 542 OFFCURVE",
"528 548 OFFCURVE",
"521 554 CURVE",
"521 570 OFFCURVE",
"521 586 OFFCURVE",
"512 603 CURVE",
"512 610 OFFCURVE",
"505 620 OFFCURVE",
"498 627 CURVE",
"477 642 OFFCURVE",
"456 654 OFFCURVE",
"447 675 CURVE",
"447 675 OFFCURVE",
"440 682 OFFCURVE",
"433 682 CURVE",
"433 682 OFFCURVE",
"427 675 OFFCURVE",
"427 675 CURVE",
"412 647 OFFCURVE",
"412 647 OFFCURVE",
"391 665 CURVE",
"391 670 OFFCURVE",
"391 670 OFFCURVE",
"384 670 CURVE",
"384 675 OFFCURVE",
"384 688 OFFCURVE",
"376 693 CURVE",
"369 693 OFFCURVE",
"340 693 OFFCURVE",
"319 693 CURVE"
);
},
{
closed = 1;
nodes = (
"204 86 OFFCURVE",
"197 75 OFFCURVE",
"190 80 CURVE",
"190 86 OFFCURVE",
"197 91 OFFCURVE",
"204 103 CURVE",
"218 91 OFFCURVE",
"225 86 OFFCURVE",
"232 75 CURVE",
"232 75 OFFCURVE",
"218 86 OFFCURVE",
"211 80 CURVE"
);
},
{
closed = 1;
nodes = (
"484 448 OFFCURVE",
"470 420 OFFCURVE",
"470 387 CURVE",
"470 348 OFFCURVE",
"470 308 OFFCURVE",
"470 271 CURVE",
"470 253 OFFCURVE",
"463 236 OFFCURVE",
"463 220 CURVE",
"456 187 OFFCURVE",
"447 159 OFFCURVE",
"433 126 CURVE",
"433 113 OFFCURVE",
"427 103 OFFCURVE",
"412 97 CURVE",
"405 86 OFFCURVE",
"398 86 OFFCURVE",
"398 97 CURVE",
"398 113 OFFCURVE",
"391 126 OFFCURVE",
"391 141 CURVE",
"384 154 OFFCURVE",
"376 159 OFFCURVE",
"362 159 CURVE",
"362 159 OFFCURVE",
"355 159 OFFCURVE",
"349 159 CURVE",
"326 159 OFFCURVE",
"326 154 OFFCURVE",
"326 136 CURVE",
"333 113 OFFCURVE",
"340 91 OFFCURVE",
"340 64 CURVE",
"340 64 OFFCURVE",
"333 58 OFFCURVE",
"326 58 CURVE",
"319 58 OFFCURVE",
"312 58 OFFCURVE",
"297 58 CURVE",
"276 58 OFFCURVE",
"261 64 OFFCURVE",
"248 80 CURVE",
"232 97 OFFCURVE",
"218 108 OFFCURVE",
"190 103 CURVE",
"183 103 OFFCURVE",
"176 108 OFFCURVE",
"176 113 CURVE",
"169 148 OFFCURVE",
"160 187 OFFCURVE",
"153 220 CURVE",
"153 260 OFFCURVE",
"153 304 OFFCURVE",
"153 348 CURVE",
"153 359 OFFCURVE",
"153 364 OFFCURVE",
"140 376 CURVE",
"133 381 OFFCURVE",
"133 392 OFFCURVE",
"133 399 CURVE",
"140 420 OFFCURVE",
"140 443 OFFCURVE",
"140 465 CURVE",
"146 482 OFFCURVE",
"153 502 OFFCURVE",
"169 526 CURVE",
"169 537 OFFCURVE",
"176 548 OFFCURVE",
"183 559 CURVE",
"190 559 OFFCURVE",
"197 565 OFFCURVE",
"197 565 CURVE",
"218 559 OFFCURVE",
"225 570 OFFCURVE",
"225 581 CURVE",
"241 610 OFFCURVE",
"297 620 OFFCURVE",
"333 598 CURVE",
"384 565 OFFCURVE",
"412 515 OFFCURVE",
"456 475 CURVE"
);
}
);
width = 600;
}
);
unicode = 0051;
},
{
glyphname = R;
lastChange = "2018-01-13 17:34:25 +0000";
layers = (
{
layerId = "7185A08A-2B1C-4BBD-ABBC-D0B58775A973";
paths = (
{
closed = 1;
nodes = (
"409 519 OFFCURVE",
"409 525 OFFCURVE",
"415 537 CURVE",
"421 561 OFFCURVE",
"427 585 OFFCURVE",
"433 609 CURVE",
"433 615 OFFCURVE",
"427 628 OFFCURVE",
"421 628 CURVE",
"396 646 OFFCURVE",
"366 658 OFFCURVE",
"342 670 CURVE",
"337 670 OFFCURVE",
"324 676 OFFCURVE",
"318 682 CURVE",
"307 694 OFFCURVE",
"294 700 OFFCURVE",
"270 687 CURVE",
"252 682 OFFCURVE",
"246 670 OFFCURVE",
"252 652 CURVE",
"258 633 OFFCURVE",
"246 615 OFFCURVE",
"258 604 CURVE",
"264 604 OFFCURVE",
"258 598 OFFCURVE",
"258 591 CURVE",
"246 513 OFFCURVE",
"234 435 OFFCURVE",
"216 356 CURVE",
"216 332 OFFCURVE",
"216 308 OFFCURVE",
"203 284 CURVE",
"203 284 OFFCURVE",
"210 272 OFFCURVE",
"210 272 CURVE",
"222 272 OFFCURVE",
"228 260 OFFCURVE",
"222 253 CURVE",
"216 199 OFFCURVE",
"203 151 OFFCURVE",
"198 97 CURVE",
"192 73 OFFCURVE",
"192 54 OFFCURVE",
"186 30 CURVE",
"186 19 OFFCURVE",
"173 13 OFFCURVE",
"168 13 CURVE",
"149 6 OFFCURVE",
"131 13 OFFCURVE",
"119 30 CURVE",
"107 43 OFFCURVE",
"101 54 OFFCURVE",
"107 79 CURVE",
"138 145 OFFCURVE",
"144 218 OFFCURVE",
"149 290 CURVE",
"149 338 OFFCURVE",
"155 386 OFFCURVE",
"155 440 CURVE",
"162 477 OFFCURVE",
"162 513 OFFCURVE",
"162 549 CURVE",
"168 585 OFFCURVE",
"173 628 OFFCURVE",
"179 670 CURVE",
"179 676 OFFCURVE",
"186 682 OFFCURVE",
"198 687 CURVE",
"216 700 OFFCURVE",
"240 712 OFFCURVE",
"258 718 CURVE",
"294 736 OFFCURVE",
"331 748 OFFCURVE",
"372 736 CURVE",
"385 730 OFFCURVE",
"403 730 OFFCURVE",
"415 730 CURVE",
"427 724 OFFCURVE",
"433 718 OFFCURVE",
"433 706 CURVE",
"433 700 OFFCURVE",
"439 694 OFFCURVE",
"439 687 CURVE",
"439 694 OFFCURVE",
"445 694 OFFCURVE",
"445 700 CURVE",
"451 706 OFFCURVE",
"463 712 OFFCURVE",
"469 700 CURVE",
"476 687 OFFCURVE",
"481 670 OFFCURVE",
"487 658 CURVE",
"487 652 OFFCURVE",
"487 646 OFFCURVE",
"493 639 CURVE",
"505 622 OFFCURVE",
"505 609 OFFCURVE",
"481 598 CURVE",
"481 598 OFFCURVE",
"481 585 OFFCURVE",
"481 585 CURVE",
"487 567 OFFCURVE",
"493 555 OFFCURVE",
"487 531 CURVE",
"476 494 OFFCURVE",
"469 453 OFFCURVE",
"463 416 CURVE",
"457 392 OFFCURVE",
"433 381 OFFCURVE",
"415 392 CURVE",
"396 405 OFFCURVE",
"385 392 OFFCURVE",
"379 386 CURVE",
"366 381 OFFCURVE",
"372 368 OFFCURVE",
"372 362 CURVE",
"385 332 OFFCURVE",
"403 301 OFFCURVE",
"409 272 CURVE",
"421 218 OFFCURVE",
"427 163 OFFCURVE",
"433 108 CURVE",
"439 73 OFFCURVE",
"445 43 OFFCURVE",
"445 6 CURVE",
"445 -5 OFFCURVE",
"445 -11 OFFCURVE",
"427 -5 CURVE",
"385 6 OFFCURVE",
"385 37 OFFCURVE",
"379 67 CURVE",
"366 115 OFFCURVE",
"348 163 OFFCURVE",
"337 212 CURVE",
"331 223 OFFCURVE",
"312 236 OFFCURVE",
"307 253 CURVE",
"294 277 OFFCURVE",
"288 296 OFFCURVE",
"283 320 CURVE",
"276 332 OFFCURVE",
"276 338 OFFCURVE",
"264 338 CURVE",
"252 344 OFFCURVE",
"240 362 OFFCURVE",
"246 381 CURVE",
"246 392 OFFCURVE",
"264 386 OFFCURVE",
"276 392 CURVE",
"300 398 OFFCURVE",
"324 411 OFFCURVE",
"348 422 CURVE",
"355 422 OFFCURVE",
"361 429 OFFCURVE",
"361 429 CURVE",
"396 446 OFFCURVE",
"409 465 OFFCURVE",
"403 507 CURVE"
);
},
{
closed = 1;
nodes = (
"445 658 OFFCURVE",
"439 658 OFFCURVE",
"439 658 CURVE",
"445 652 OFFCURVE",
"451 652 OFFCURVE",
"457 646 CURVE",
"457 646 OFFCURVE",
"457 646 OFFCURVE",
"457 646 CURVE",
"451 652 OFFCURVE",
"451 658 OFFCURVE",
"445 663 CURVE"
);
}
);
width = 600;
}
);
unicode = 0052;
},
{
glyphname = S;
lastChange = "2018-01-13 17:34:59 +0000";
layers = (
{
layerId = "7185A08A-2B1C-4BBD-ABBC-D0B58775A973";
paths = (
{
closed = 1;
nodes = (
"405 733 OFFCURVE",
"433 733 OFFCURVE",
"460 726 CURVE",
"467 726 OFFCURVE",
"474 712 OFFCURVE",
"481 706 CURVE",
"474 698 OFFCURVE",
"467 691 OFFCURVE",
"460 691 CURVE",
"425 677 OFFCURVE",
"398 677 OFFCURVE",
"371 671 CURVE",
"336 656 OFFCURVE",
"308 629 OFFCURVE",
"273 615 CURVE",
"232 588 OFFCURVE",
"240 546 OFFCURVE",
"225 519 CURVE",
"211 498 OFFCURVE",
"225 470 OFFCURVE",
"225 450 CURVE",
"232 450 OFFCURVE",
"232 442 OFFCURVE",
"232 442 CURVE",
"240 415 OFFCURVE",
"253 409 OFFCURVE",
"273 415 CURVE",
"288 422 OFFCURVE",
"302 415 OFFCURVE",
"308 401 CURVE",
"336 380 OFFCURVE",
"371 359 OFFCURVE",
"391 332 CURVE",
"419 297 OFFCURVE",
"439 263 OFFCURVE",
"467 228 CURVE",
"481 208 OFFCURVE",
"474 193 OFFCURVE",
"460 173 CURVE",
"446 153 OFFCURVE",
"439 132 OFFCURVE",
"433 111 CURVE",
"425 104 OFFCURVE",
"425 104 OFFCURVE",
"425 97 CURVE",
"398 76 OFFCURVE",
"371 49 OFFCURVE",
"350 28 CURVE",
"323 0 OFFCURVE",
"288 -7 OFFCURVE",
"260 -13 CURVE",
"240 -21 OFFCURVE",
"225 -27 OFFCURVE",
"205 -27 CURVE",
"170 -42 OFFCURVE",
"128 -55 OFFCURVE",
"94 -34 CURVE",
"87 -34 OFFCURVE",
"87 -34 OFFCURVE",
"80 -34 CURVE",
"59 -42 OFFCURVE",
"53 -42 OFFCURVE",
"53 -13 CURVE",
"53 21 OFFCURVE",
"53 56 OFFCURVE",
"53 91 CURVE",
"59 97 OFFCURVE",
"59 104 OFFCURVE",
"66 104 CURVE",
"66 104 OFFCURVE",
"74 104 OFFCURVE",
"80 97 CURVE",
"87 97 OFFCURVE",
"94 97 OFFCURVE",
"101 91 CURVE",
"107 76 OFFCURVE",
"115 70 OFFCURVE",
"122 56 CURVE",
"128 35 OFFCURVE",
"157 28 OFFCURVE",
"170 49 CURVE",
"184 56 OFFCURVE",
"190 56 OFFCURVE",
"205 56 CURVE",
"240 56 OFFCURVE",
"273 70 OFFCURVE",
"288 97 CURVE",
"323 145 OFFCURVE",
"350 193 OFFCURVE",
"377 242 CURVE",
"384 249 OFFCURVE",
"384 256 OFFCURVE",
"371 263 CURVE",
"323 297 OFFCURVE",
"281 332 OFFCURVE",
"232 359 CURVE",
"232 359 OFFCURVE",
"232 367 OFFCURVE",
"225 367 CURVE",
"170 374 OFFCURVE",
"184 422 OFFCURVE",
"177 457 CURVE",
"170 477 OFFCURVE",
"177 505 OFFCURVE",
"177 532 CURVE",
"177 546 OFFCURVE",
"177 560 OFFCURVE",
"177 573 CURVE",
"177 581 OFFCURVE",
"177 588 OFFCURVE",
"177 594 CURVE",
"205 643 OFFCURVE",
"240 691 OFFCURVE",
"288 726 CURVE",
"302 733 OFFCURVE",
"323 733 OFFCURVE",
"336 733 CURVE",
"350 733 OFFCURVE",
"371 733 OFFCURVE",
"384 733 CURVE",
"384 733 OFFCURVE",
"384 733 OFFCURVE",
"384 733 CURVE"
);
},
{
closed = 1;
nodes = (
"246 484 OFFCURVE",
"240 484 OFFCURVE",
"240 484 CURVE",
"240 490 OFFCURVE",
"232 490 OFFCURVE",
"232 490 CURVE",
"232 498 OFFCURVE",
"240 498 OFFCURVE",
"240 498 CURVE",
"240 498 OFFCURVE",
"246 490 OFFCURVE",
"253 484 CURVE"
);
}
);
width = 600;
}
);
unicode = 0053;
},
{
glyphname = T;
lastChange = "2018-01-13 17:35:24 +0000";
layers = (
{
layerId = "7185A08A-2B1C-4BBD-ABBC-D0B58775A973";
paths = (
{
closed = 1;
nodes = (
"433 642 OFFCURVE",
"410 642 OFFCURVE",
"382 637 CURVE",
"382 637 OFFCURVE",
"370 631 OFFCURVE",
"370 625 CURVE",
"364 579 OFFCURVE",
"364 534 OFFCURVE",
"359 489 CURVE",
"353 414 OFFCURVE",
"347 334 OFFCURVE",
"342 260 CURVE",
"342 237 OFFCURVE",
"336 214 OFFCURVE",
"336 191 CURVE",
"342 129 OFFCURVE",
"319 71 OFFCURVE",
"313 8 CURVE",
"313 3 OFFCURVE",
"302 -3 OFFCURVE",
"296 -9 CURVE",
"296 -3 OFFCURVE",
"285 3 OFFCURVE",
"285 8 CURVE",
"285 25 OFFCURVE",
"285 37 OFFCURVE",
"268 43 CURVE",
"268 43 OFFCURVE",
"262 49 OFFCURVE",
"262 49 CURVE",
"245 49 OFFCURVE",
"239 49 OFFCURVE",
"245 71 CURVE",
"245 83 OFFCURVE",
"239 100 OFFCURVE",
"245 117 CURVE",
"250 151 OFFCURVE",
"250 186 OFFCURVE",
"262 220 CURVE",
"290 283 OFFCURVE",
"279 351 OFFCURVE",
"285 414 CURVE",
"285 426 OFFCURVE",
"290 436 OFFCURVE",
"290 448 CURVE",
"302 511 OFFCURVE",
"290 574 OFFCURVE",
"285 637 CURVE",
"285 648 OFFCURVE",
"279 648 OFFCURVE",
"268 648 CURVE",
"245 654 OFFCURVE",
"216 654 OFFCURVE",
"193 654 CURVE",
"188 654 OFFCURVE",
"182 665 OFFCURVE",
"171 671 CURVE",
"176 677 OFFCURVE",
"188 677 OFFCURVE",
"193 683 CURVE",
"193 683 OFFCURVE",
"199 683 OFFCURVE",
"199 683 CURVE",
"233 717 OFFCURVE",
"279 705 OFFCURVE",
"319 711 CURVE",
"342 717 OFFCURVE",
"370 717 OFFCURVE",
"399 717 CURVE",
"410 717 OFFCURVE",
"427 705 OFFCURVE",
"444 694 CURVE",
"456 688 OFFCURVE",
"468 677 OFFCURVE",
"479 665 CURVE",
"485 660 OFFCURVE",
"485 654 OFFCURVE",
"485 648 CURVE",
"485 648 OFFCURVE",
"479 642 OFFCURVE",
"473 642 CURVE",
"468 642 OFFCURVE",
"461 642 OFFCURVE",
"456 642 CURVE"
);
}
);
width = 600;
}
);
unicode = 0054;
},
{
glyphname = U;
lastChange = "2018-01-13 17:25:11 +0000";
layers = (
{
layerId = "7185A08A-2B1C-4BBD-ABBC-D0B58775A973";
paths = (
{
closed = 1;
nodes = (
"72 94 OFFCURVE",
"45 94 OFFCURVE",
"19 107 CURVE",
"6 107 OFFCURVE",
"6 107 OFFCURVE",
"-8 107 CURVE",
"-8 107 OFFCURVE",
"-22 107 OFFCURVE",
"-22 107 CURVE",
"-22 107 OFFCURVE",
"-22 107 OFFCURVE",
"-22 107 CURVE",
"6 94 OFFCURVE",
"33 82 OFFCURVE",
"59 82 CURVE",
"99 82 OFFCURVE",
"126 82 OFFCURVE",
"152 82 CURVE",
"139 82 OFFCURVE",
"126 82 OFFCURVE",
"112 94 CURVE"
);
},
{
closed = 1;
nodes = (
"59 67 OFFCURVE",
"72 67 OFFCURVE",
"72 67 CURVE",
"72 67 OFFCURVE",
"59 67 OFFCURVE",
"59 67 CURVE"
);
},
{
closed = 1;
nodes = (
"460 722 OFFCURVE",
"460 734 OFFCURVE",
"446 734 CURVE",
"433 734 OFFCURVE",
"419 734 OFFCURVE",
"405 734 CURVE",
"393 722 OFFCURVE",
"379 707 OFFCURVE",
"393 694 CURVE",
"405 680 OFFCURVE",
"419 667 OFFCURVE",
"419 655 CURVE",
"419 641 OFFCURVE",
"419 627 OFFCURVE",
"419 613 CURVE",
"446 588 OFFCURVE",
"446 546 OFFCURVE",
"446 521 CURVE",
"446 467 OFFCURVE",
"446 413 OFFCURVE",
"446 361 CURVE",
"446 321 OFFCURVE",
"433 294 OFFCURVE",
"433 267 CURVE",
"433 254 OFFCURVE",
"419 240 OFFCURVE",
"419 228 CURVE",
"405 215 OFFCURVE",
"405 200 OFFCURVE",
"393 188 CURVE",
"393 188 OFFCURVE",
"393 188 OFFCURVE",
"393 188 CURVE",
"405 188 OFFCURVE",
"405 200 OFFCURVE",
"419 200 CURVE",
"405 161 OFFCURVE",
"393 134 OFFCURVE",
"379 94 CURVE",
"366 82 OFFCURVE",
"366 82 OFFCURVE",
"366 67 CURVE",
"352 54 OFFCURVE",
"326 54 OFFCURVE",
"312 54 CURVE",
"300 67 OFFCURVE",
"286 67 OFFCURVE",
"272 82 CURVE",
"286 94 OFFCURVE",
"286 94 OFFCURVE",
"300 107 CURVE",
"300 107 OFFCURVE",
"286 107 OFFCURVE",
"272 107 CURVE",
"272 94 OFFCURVE",
"259 94 OFFCURVE",
"259 94 CURVE",
"219 121 OFFCURVE",
"205 161 OFFCURVE",
"179 188 CURVE",
"179 188 OFFCURVE",
"179 200 OFFCURVE",
"193 200 CURVE",
"205 200 OFFCURVE",
"219 215 OFFCURVE",
"219 228 CURVE",
"233 228 OFFCURVE",
"233 228 OFFCURVE",
"245 240 CURVE",
"245 240 OFFCURVE",
"259 240 OFFCURVE",
"259 240 CURVE",
"259 240 OFFCURVE",
"259 240 OFFCURVE",
"259 254 CURVE",
"259 254 OFFCURVE",
"272 254 OFFCURVE",
"272 254 CURVE",
"166 200 LINE",
"139 254 OFFCURVE",
"112 307 OFFCURVE",
"99 374 CURVE",
"99 400 OFFCURVE",
"99 428 OFFCURVE",
"99 455 CURVE",
"112 507 OFFCURVE",
"112 546 OFFCURVE",
"126 588 CURVE",
"139 613 OFFCURVE",
"139 641 OFFCURVE",
"139 680 CURVE",
"152 694 OFFCURVE",
"152 694 OFFCURVE",
"139 707 CURVE",
"139 707 OFFCURVE",
"126 707 OFFCURVE",
"126 707 CURVE",
"99 641 OFFCURVE",
"72 561 OFFCURVE",
"45 495 CURVE",
"45 480 OFFCURVE",
"45 480 OFFCURVE",
"45 467 CURVE",
"33 428 OFFCURVE",
"45 374 OFFCURVE",
"45 321 CURVE",
"59 267 OFFCURVE",
"72 215 OFFCURVE",
"112 173 CURVE",
"85 161 LINE",
"112 161 OFFCURVE",
"112 148 OFFCURVE",
"112 148 CURVE",
"112 148 OFFCURVE",
"112 148 OFFCURVE",
"112 148 CURVE",
"139 121 OFFCURVE",
"152 94 OFFCURVE",
"179 67 CURVE",
"166 67 OFFCURVE",
"139 67 OFFCURVE",
"126 67 CURVE",
"112 67 OFFCURVE",
"99 67 OFFCURVE",
"99 67 CURVE",
"99 54 OFFCURVE",
"112 54 OFFCURVE",
"126 54 CURVE",
"139 54 OFFCURVE",
"152 54 OFFCURVE",
"152 54 CURVE",
"152 54 OFFCURVE",
"166 54 OFFCURVE",
"166 54 CURVE",
"166 54 OFFCURVE",
"166 54 OFFCURVE",
"166 54 CURVE",
"166 54 OFFCURVE",
"179 54 OFFCURVE",
"179 54 CURVE",
"193 54 OFFCURVE",
"193 54 OFFCURVE",
"193 54 CURVE",
"193 54 OFFCURVE",
"205 54 OFFCURVE",
"205 54 CURVE",
"219 27 OFFCURVE",
"245 15 OFFCURVE",
"286 1 CURVE",
"312 -13 OFFCURVE",
"339 -13 OFFCURVE",
"379 15 CURVE",
"405 27 OFFCURVE",
"419 54 OFFCURVE",
"433 82 CURVE",
"446 107 OFFCURVE",
"460 148 OFFCURVE",
"460 173 CURVE",
"472 215 OFFCURVE",
"485 254 OFFCURVE",
"485 307 CURVE",
"500 321 OFFCURVE",
"500 347 OFFCURVE",
"500 361 CURVE",
"500 388 OFFCURVE",
"500 400 OFFCURVE",
"500 413 CURVE",
"500 440 OFFCURVE",
"500 455 OFFCURVE",
"500 480 CURVE",
"512 507 OFFCURVE",
"512 521 OFFCURVE",
"512 546 CURVE",
"512 588 OFFCURVE",
"512 613 OFFCURVE",
"500 655 CURVE",
"500 667 OFFCURVE",
"485 694 OFFCURVE",
"472 722 CURVE"
);
},
{
closed = 1;
nodes = (
"339 254 OFFCURVE",
"393 188 OFFCURVE",
"393 188 CURVE",
"405 200 OFFCURVE",
"405 240 OFFCURVE",
"419 267 CURVE",
"405 254 OFFCURVE",
"352 267 OFFCURVE",
"352 254 CURVE"
);
},
{
closed = 1;
nodes = (
"419 267 OFFCURVE",
"419 267 OFFCURVE",
"419 267 CURVE",
"419 267 OFFCURVE",
"433 267 OFFCURVE",
"433 280 CURVE"
);
}
);
width = 600;
}
);
unicode = 0055;
},
{
glyphname = V;
lastChange = "2018-01-13 17:35:48 +0000";
layers = (
{
layerId = "7185A08A-2B1C-4BBD-ABBC-D0B58775A973";
paths = (
{
closed = 1;
nodes = (
"174 684 OFFCURVE",
"177 676 OFFCURVE",
"180 667 CURVE",
"181 661 OFFCURVE",
"183 655 OFFCURVE",
"184 649 CURVE",
"184 646 OFFCURVE",
"183 642 OFFCURVE",
"185 639 CURVE",
"203 603 OFFCURVE",
"189 563 OFFCURVE",
"196 526 CURVE",
"203 496 OFFCURVE",
"207 466 OFFCURVE",
"211 436 CURVE",
"212 425 OFFCURVE",
"208 413 OFFCURVE",
"209 402 CURVE",
"210 374 OFFCURVE",
"211 346 OFFCURVE",
"215 318 CURVE",
"217 298 OFFCURVE",
"223 278 OFFCURVE",
"228 258 CURVE",
"229 256 OFFCURVE",
"231 254 OFFCURVE",
"232 252 CURVE",
"233 254 OFFCURVE",
"235 256 OFFCURVE",
"236 258 CURVE",
"246 277 OFFCURVE",
"256 297 OFFCURVE",
"266 317 CURVE",
"274 332 OFFCURVE",
"286 347 OFFCURVE",
"293 362 CURVE",
"312 405 OFFCURVE",
"331 448 OFFCURVE",
"349 491 CURVE",
"352 499 OFFCURVE",
"350 510 OFFCURVE",
"353 519 CURVE",
"360 541 OFFCURVE",
"368 563 OFFCURVE",
"378 583 CURVE",
"389 605 OFFCURVE",
"406 625 OFFCURVE",
"417 647 CURVE",
"432 677 OFFCURVE",
"450 702 OFFCURVE",
"485 710 CURVE",
"489 711 OFFCURVE",
"492 715 OFFCURVE",
"494 718 CURVE",
"507 732 OFFCURVE",
"531 732 OFFCURVE",
"543 716 CURVE",
"545 713 OFFCURVE",
"545 705 OFFCURVE",
"542 701 CURVE",
"521 666 OFFCURVE",
"499 632 OFFCURVE",
"479 597 CURVE",
"460 564 OFFCURVE",
"442 530 OFFCURVE",
"424 497 CURVE",
"404 458 OFFCURVE",
"385 419 OFFCURVE",
"364 380 CURVE",
"360 372 OFFCURVE",
"354 365 OFFCURVE",
"350 358 CURVE",
"336 329 OFFCURVE",
"322 299 OFFCURVE",
"309 270 CURVE",
"293 232 OFFCURVE",
"278 193 OFFCURVE",
"263 155 CURVE",
"262 153 OFFCURVE",
"261 151 OFFCURVE",
"260 149 CURVE",
"258 144 OFFCURVE",
"255 140 OFFCURVE",
"252 135 CURVE",
"251 139 OFFCURVE",
"251 144 OFFCURVE",
"250 149 CURVE",
"250 151 OFFCURVE",
"248 152 OFFCURVE",
"247 154 CURVE",
"245 153 OFFCURVE",
"243 151 OFFCURVE",
"242 149 CURVE",
"224 118 OFFCURVE",
"214 84 OFFCURVE",
"214 48 CURVE",
"214 31 OFFCURVE",
"189 3 OFFCURVE",
"172 2 CURVE",
"167 1 OFFCURVE",
"161 8 OFFCURVE",
"158 13 CURVE",
"148 36 OFFCURVE",
"159 58 OFFCURVE",
"168 76 CURVE",
"187 114 OFFCURVE",
"184 153 OFFCURVE",
"185 192 CURVE",
"185 220 OFFCURVE",
"188 248 OFFCURVE",
"186 276 CURVE",
"183 311 OFFCURVE",
"177 346 OFFCURVE",
"173 382 CURVE",
"171 401 OFFCURVE",
"175 423 OFFCURVE",
"168 440 CURVE",
"154 472 OFFCURVE",
"156 506 OFFCURVE",
"151 540 CURVE",
"146 584 OFFCURVE",
"139 627 OFFCURVE",
"135 670 CURVE",
"133 687 OFFCURVE",
"136 704 OFFCURVE",
"139 721 CURVE",
"140 725 OFFCURVE",
"148 732 OFFCURVE",
"151 732 CURVE",
"158 730 OFFCURVE",
"166 725 OFFCURVE",
"170 718 CURVE",
"173 712 OFFCURVE",
"173 702 OFFCURVE",
"175 694 CURVE",
"173 694 OFFCURVE",
"172 694 OFFCURVE",
"171 693 CURVE"
);
}
);
width = 600;
}
);
unicode = 0056;
},
{
glyphname = W;
lastChange = "2018-01-13 17:37:08 +0000";
layers = (
{
layerId = "7185A08A-2B1C-4BBD-ABBC-D0B58775A973";
paths = (
{
closed = 1;
nodes = (
"93 699 OFFCURVE",
"99 686 OFFCURVE",
"101 674 CURVE",
"104 653 OFFCURVE",
"104 632 OFFCURVE",
"104 611 CURVE",
"106 585 OFFCURVE",
"102 558 OFFCURVE",
"106 532 CURVE",
"110 499 OFFCURVE",
"118 467 OFFCURVE",
"124 434 CURVE",
"130 383 OFFCURVE",
"138 334 OFFCURVE",
"146 283 CURVE",
"148 270 OFFCURVE",
"157 262 OFFCURVE",
"160 249 CURVE",
"167 228 OFFCURVE",
"173 207 OFFCURVE",
"177 186 CURVE",
"179 179 OFFCURVE",
"179 170 OFFCURVE",
"181 163 CURVE",
"181 161 OFFCURVE",
"183 158 OFFCURVE",
"185 156 CURVE",
"189 158 OFFCURVE",
"190 160 OFFCURVE",
"192 163 CURVE",
"192 168 OFFCURVE",
"192 172 OFFCURVE",
"193 177 CURVE",
"193 185 OFFCURVE",
"195 191 OFFCURVE",
"199 197 CURVE",
"218 234 OFFCURVE",
"240 270 OFFCURVE",
"257 307 CURVE",
"271 335 OFFCURVE",
"281 367 OFFCURVE",
"308 388 CURVE",
"318 397 OFFCURVE",
"322 391 OFFCURVE",
"327 383 CURVE",
"334 367 OFFCURVE",
"343 352 OFFCURVE",
"352 338 CURVE",
"354 337 OFFCURVE",
"359 337 OFFCURVE",
"362 338 CURVE",
"368 342 OFFCURVE",
"371 348 OFFCURVE",
"377 352 CURVE",
"380 346 OFFCURVE",
"385 340 OFFCURVE",
"387 334 CURVE",
"395 301 OFFCURVE",
"403 272 OFFCURVE",
"410 240 CURVE",
"411 238 OFFCURVE",
"413 237 OFFCURVE",
"415 235 CURVE",
"415 237 OFFCURVE",
"417 238 OFFCURVE",
"419 240 CURVE",
"420 258 OFFCURVE",
"422 275 OFFCURVE",
"426 295 CURVE",
"434 342 OFFCURVE",
"442 389 OFFCURVE",
"456 437 CURVE",
"475 502 OFFCURVE",
"497 566 OFFCURVE",
"522 630 CURVE",
"533 656 OFFCURVE",
"550 683 OFFCURVE",
"568 707 CURVE",
"577 721 OFFCURVE",
"582 711 OFFCURVE",
"585 702 CURVE",
"587 699 OFFCURVE",
"589 697 OFFCURVE",
"591 694 CURVE",
"593 697 OFFCURVE",
"594 699 OFFCURVE",
"596 701 CURVE",
"603 707 OFFCURVE",
"610 711 OFFCURVE",
"617 717 CURVE",
"619 707 OFFCURVE",
"621 695 OFFCURVE",
"619 688 CURVE",
"593 629 OFFCURVE",
"566 568 OFFCURVE",
"542 511 CURVE",
"531 485 OFFCURVE",
"520 458 OFFCURVE",
"510 432 CURVE",
"507 425 OFFCURVE",
"510 416 OFFCURVE",
"508 407 CURVE",
"507 395 OFFCURVE",
"508 379 OFFCURVE",
"503 367 CURVE",
"485 319 OFFCURVE",
"478 270 OFFCURVE",
"471 221 CURVE",
"466 183 OFFCURVE",
"466 142 OFFCURVE",
"462 101 CURVE",
"460 91 OFFCURVE",
"456 81 OFFCURVE",
"454 70 CURVE",
"454 65 OFFCURVE",
"456 56 OFFCURVE",
"457 54 CURVE",
"469 47 OFFCURVE",
"464 44 OFFCURVE",
"459 36 CURVE",
"450 30 OFFCURVE",
"444 19 OFFCURVE",
"436 12 CURVE",
"434 10 OFFCURVE",
"429 8 OFFCURVE",
"426 8 CURVE",
"405 10 OFFCURVE",
"393 24 OFFCURVE",
"381 38 CURVE",
"369 54 OFFCURVE",
"359 71 OFFCURVE",
"348 89 CURVE",
"344 93 OFFCURVE",
"344 100 OFFCURVE",
"343 105 CURVE",
"329 151 OFFCURVE",
"317 197 OFFCURVE",
"303 240 CURVE",
"303 242 OFFCURVE",
"301 244 OFFCURVE",
"299 246 CURVE",
"297 246 OFFCURVE",
"295 244 OFFCURVE",
"293 242 CURVE",
"250 187 OFFCURVE",
"220 126 OFFCURVE",
"190 63 CURVE",
"189 59 OFFCURVE",
"189 52 OFFCURVE",
"187 49 CURVE",
"185 44 OFFCURVE",
"179 38 OFFCURVE",
"175 36 CURVE",
"173 36 OFFCURVE",
"165 42 OFFCURVE",
"164 46 CURVE",
"160 58 OFFCURVE",
"159 70 OFFCURVE",
"153 81 CURVE",
"146 101 OFFCURVE",
"134 121 OFFCURVE",
"126 140 CURVE",
"118 156 OFFCURVE",
"111 173 OFFCURVE",
"106 191 CURVE",
"99 219 OFFCURVE",
"95 251 OFFCURVE",
"88 279 CURVE",
"77 316 OFFCURVE",
"65 351 OFFCURVE",
"55 386 CURVE",
"53 395 OFFCURVE",
"53 405 OFFCURVE",
"51 416 CURVE",
"50 430 OFFCURVE",
"48 444 OFFCURVE",
"34 456 CURVE",
"26 462 OFFCURVE",
"30 479 OFFCURVE",
"30 491 CURVE",
"32 513 OFFCURVE",
"34 532 OFFCURVE",
"36 553 CURVE",
"36 564 OFFCURVE",
"37 574 OFFCURVE",
"39 585 CURVE",
"41 588 OFFCURVE",
"43 593 OFFCURVE",
"43 597 CURVE",
"41 629 OFFCURVE",
"39 660 OFFCURVE",
"37 692 CURVE",
"36 706 OFFCURVE",
"37 717 OFFCURVE",
"51 723 CURVE",
"59 727 OFFCURVE",
"65 734 OFFCURVE",
"71 739 CURVE",
"81 750 OFFCURVE",
"88 748 OFFCURVE",
"90 734 CURVE",
"92 727 OFFCURVE",
"92 719 OFFCURVE",
"93 713 CURVE",
"92 713 OFFCURVE",
"90 713 OFFCURVE",
"88 711 CURVE"
);
}
);
width = 600;
}
);
unicode = 0057;
},
{
glyphname = X;
lastChange = "2018-01-13 17:36:58 +0000";
layers = (
{
layerId = "7185A08A-2B1C-4BBD-ABBC-D0B58775A973";
paths = (
{
closed = 1;
nodes = (
"103 21 OFFCURVE",
"110 35 OFFCURVE",
"116 50 CURVE",
"132 94 OFFCURVE",
"159 132 OFFCURVE",
"166 179 CURVE",
"169 193 OFFCURVE",
"180 206 OFFCURVE",
"187 221 CURVE",
"189 223 OFFCURVE",
"192 229 OFFCURVE",
"191 231 CURVE",
"182 246 OFFCURVE",
"191 259 OFFCURVE",
"198 272 CURVE",
"219 305 OFFCURVE",
"234 343 OFFCURVE",
"264 371 CURVE",
"274 380 OFFCURVE",
"276 393 OFFCURVE",
"266 406 CURVE",
"243 441 OFFCURVE",
"219 477 OFFCURVE",
"196 512 CURVE",
"171 550 OFFCURVE",
"152 589 OFFCURVE",
"124 624 CURVE",
"105 646 OFFCURVE",
"105 673 OFFCURVE",
"91 696 CURVE",
"90 699 OFFCURVE",
"92 706 OFFCURVE",
"95 708 CURVE",
"98 710 OFFCURVE",
"104 710 OFFCURVE",
"108 709 CURVE",
"113 706 OFFCURVE",
"118 701 OFFCURVE",
"124 698 CURVE",
"127 695 OFFCURVE",
"135 693 OFFCURVE",
"138 694 CURVE",
"158 705 OFFCURVE",
"167 691 OFFCURVE",
"177 679 CURVE",
"187 666 OFFCURVE",
"194 653 OFFCURVE",
"211 647 CURVE",
"220 644 OFFCURVE",
"226 629 OFFCURVE",
"232 620 CURVE",
"240 606 OFFCURVE",
"246 591 OFFCURVE",
"253 577 CURVE",
"273 542 OFFCURVE",
"292 508 OFFCURVE",
"312 474 CURVE",
"316 470 OFFCURVE",
"321 465 OFFCURVE",
"326 460 CURVE",
"330 465 OFFCURVE",
"334 468 OFFCURVE",
"338 473 CURVE",
"375 537 OFFCURVE",
"414 600 OFFCURVE",
"452 663 CURVE",
"460 676 OFFCURVE",
"469 688 OFFCURVE",
"479 701 CURVE",
"481 705 OFFCURVE",
"485 707 OFFCURVE",
"488 709 CURVE",
"502 714 OFFCURVE",
"516 720 OFFCURVE",
"529 725 CURVE",
"533 726 OFFCURVE",
"538 726 OFFCURVE",
"541 726 CURVE",
"540 722 OFFCURVE",
"541 719 OFFCURVE",
"539 715 CURVE",
"526 693 OFFCURVE",
"512 672 OFFCURVE",
"500 649 CURVE",
"494 638 OFFCURVE",
"494 622 OFFCURVE",
"487 611 CURVE",
"453 561 OFFCURVE",
"417 513 OFFCURVE",
"384 464 CURVE",
"372 445 OFFCURVE",
"367 421 OFFCURVE",
"358 400 CURVE",
"355 396 OFFCURVE",
"351 392 OFFCURVE",
"347 389 CURVE",
"340 383 OFFCURVE",
"335 379 OFFCURVE",
"346 372 CURVE",
"350 370 OFFCURVE",
"352 363 OFFCURVE",
"353 357 CURVE",
"360 330 OFFCURVE",
"365 303 OFFCURVE",
"372 276 CURVE",
"373 270 OFFCURVE",
"382 268 OFFCURVE",
"387 263 CURVE",
"393 257 OFFCURVE",
"401 251 OFFCURVE",
"402 244 CURVE",
"410 208 OFFCURVE",
"414 171 OFFCURVE",
"421 136 CURVE",
"429 94 OFFCURVE",
"440 51 OFFCURVE",
"449 8 CURVE",
"451 0 OFFCURVE",
"449 -9 OFFCURVE",
"449 -17 CURVE",
"449 -29 OFFCURVE",
"449 -42 OFFCURVE",
"449 -54 CURVE",
"448 -60 OFFCURVE",
"445 -65 OFFCURVE",
"442 -71 CURVE",
"438 -67 OFFCURVE",
"432 -64 OFFCURVE",
"429 -59 CURVE",
"425 -47 OFFCURVE",
"421 -34 OFFCURVE",
"417 -22 CURVE",
"401 15 OFFCURVE",
"386 50 OFFCURVE",
"373 87 CURVE",
"360 122 OFFCURVE",
"351 159 OFFCURVE",
"341 196 CURVE",
"331 231 OFFCURVE",
"323 266 OFFCURVE",
"313 302 CURVE",
"312 304 OFFCURVE",
"311 307 OFFCURVE",
"308 311 CURVE",
"306 315 OFFCURVE",
"303 322 OFFCURVE",
"299 322 CURVE",
"296 320 OFFCURVE",
"290 316 OFFCURVE",
"287 311 CURVE",
"278 292 OFFCURVE",
"269 273 OFFCURVE",
"258 255 CURVE",
"243 226 OFFCURVE",
"226 198 OFFCURVE",
"211 170 CURVE",
"210 168 OFFCURVE",
"207 165 OFFCURVE",
"206 162 CURVE",
"190 107 OFFCURVE",
"156 61 OFFCURVE",
"133 8 CURVE",
"130 1 OFFCURVE",
"118 -4 OFFCURVE",
"110 -7 CURVE",
"106 -9 OFFCURVE",
"100 -2 OFFCURVE",
"93 2 CURVE"
);
}
);
width = 600;
}
);
unicode = 0058;
},
{
glyphname = Y;
lastChange = "2018-01-13 17:37:43 +0000";
layers = (
{
layerId = "7185A08A-2B1C-4BBD-ABBC-D0B58775A973";
paths = (
{
closed = 1;
nodes = (
"226 66 OFFCURVE",
"228 87 OFFCURVE",
"231 109 CURVE",
"240 153 OFFCURVE",
"253 198 OFFCURVE",
"262 241 CURVE",
"270 297 OFFCURVE",
"284 347 OFFCURVE",
"281 394 CURVE",
"280 405 OFFCURVE",
"279 410 OFFCURVE",
"273 414 CURVE",
"256 454 OFFCURVE",
"229 488 OFFCURVE",
"213 527 CURVE",
"190 572 OFFCURVE",
"162 610 OFFCURVE",
"131 643 CURVE",
"124 647 OFFCURVE",
"123 658 OFFCURVE",
"129 659 CURVE",
"132 670 OFFCURVE",
"130 680 OFFCURVE",
"119 683 CURVE",
"112 693 OFFCURVE",
"106 698 OFFCURVE",
"115 709 CURVE",
"115 709 OFFCURVE",
"114 715 OFFCURVE",
"114 715 CURVE",
"118 726 OFFCURVE",
"127 733 OFFCURVE",
"132 744 CURVE",
"138 735 OFFCURVE",
"150 731 OFFCURVE",
"155 727 CURVE",
"168 712 OFFCURVE",
"171 692 OFFCURVE",
"184 672 CURVE",
"199 648 OFFCURVE",
"219 624 OFFCURVE",
"233 600 CURVE",
"241 585 OFFCURVE",
"249 565 OFFCURVE",
"257 550 CURVE",
"258 545 OFFCURVE",
"265 535 OFFCURVE",
"271 531 CURVE",
"270 536 OFFCURVE",
"275 537 OFFCURVE",
"280 544 CURVE",
"285 544 OFFCURVE",
"288 555 OFFCURVE",
"288 555 CURVE",
"293 556 OFFCURVE",
"303 557 OFFCURVE",
"309 558 CURVE",
"315 554 OFFCURVE",
"317 543 OFFCURVE",
"317 543 CURVE",
"313 533 OFFCURVE",
"310 516 OFFCURVE",
"301 508 CURVE",
"287 497 OFFCURVE",
"278 485 OFFCURVE",
"292 471 CURVE",
"293 460 OFFCURVE",
"299 455 OFFCURVE",
"300 446 CURVE",
"305 451 OFFCURVE",
"309 457 OFFCURVE",
"313 463 CURVE",
"334 504 OFFCURVE",
"349 543 OFFCURVE",
"371 579 CURVE",
"395 625 OFFCURVE",
"420 667 OFFCURVE",
"445 713 CURVE",
"450 720 OFFCURVE",
"459 726 OFFCURVE",
"464 732 CURVE",
"468 733 OFFCURVE",
"479 735 OFFCURVE",
"485 730 CURVE",
"485 730 OFFCURVE",
"482 719 OFFCURVE",
"482 719 CURVE",
"435 642 OFFCURVE",
"400 556 OFFCURVE",
"365 471 CURVE",
"362 460 OFFCURVE",
"359 449 OFFCURVE",
"349 437 CURVE",
"349 437 OFFCURVE",
"345 430 OFFCURVE",
"346 425 CURVE",
"332 376 OFFCURVE",
"320 320 OFFCURVE",
"307 270 CURVE",
"308 260 OFFCURVE",
"310 249 OFFCURVE",
"311 239 CURVE",
"312 234 OFFCURVE",
"312 234 OFFCURVE",
"312 234 CURVE",
"305 179 OFFCURVE",
"297 124 OFFCURVE",
"294 71 CURVE",
"288 48 OFFCURVE",
"285 26 OFFCURVE",
"283 6 CURVE",
"279 -1 OFFCURVE",
"270 -8 OFFCURVE",
"265 -8 CURVE",
"259 -9 OFFCURVE",
"248 -6 OFFCURVE",
"247 0 CURVE",
"239 14 OFFCURVE",
"232 29 OFFCURVE",
"224 44 CURVE"
);
}
);
width = 600;
}
);
unicode = 0059;
},
{
glyphname = Z;
lastChange = "2018-01-13 17:38:15 +0000";
layers = (
{
layerId = "7185A08A-2B1C-4BBD-ABBC-D0B58775A973";
paths = (
{
closed = 1;
nodes = (
"427 -4 OFFCURVE",
"376 -11 OFFCURVE",
"324 -18 CURVE",
"275 -26 OFFCURVE",
"223 -36 OFFCURVE",
"170 -22 CURVE",
"158 -18 OFFCURVE",
"142 -22 OFFCURVE",
"132 -16 CURVE",
"116 -13 OFFCURVE",
"102 -6 OFFCURVE",
"89 3 CURVE",
"83 9 OFFCURVE",
"77 22 OFFCURVE",
"79 29 CURVE",
"87 84 OFFCURVE",
"106 136 OFFCURVE",
"134 183 CURVE",
"142 201 OFFCURVE",
"154 218 OFFCURVE",
"142 241 CURVE",
"138 248 OFFCURVE",
"144 263 OFFCURVE",
"152 274 CURVE",
"176 311 OFFCURVE",
"201 348 OFFCURVE",
"224 385 CURVE",
"228 391 OFFCURVE",
"226 402 OFFCURVE",
"226 409 CURVE",
"228 413 OFFCURVE",
"226 418 OFFCURVE",
"228 421 CURVE",
"252 448 OFFCURVE",
"276 478 OFFCURVE",
"302 503 CURVE",
"326 535 OFFCURVE",
"355 564 OFFCURVE",
"382 595 CURVE",
"392 605 OFFCURVE",
"400 617 OFFCURVE",
"409 628 CURVE",
"412 633 OFFCURVE",
"410 637 OFFCURVE",
"412 641 CURVE",
"406 643 OFFCURVE",
"403 644 OFFCURVE",
"400 643 CURVE",
"378 637 OFFCURVE",
"357 629 OFFCURVE",
"334 624 CURVE",
"315 619 OFFCURVE",
"297 623 OFFCURVE",
"279 629 CURVE",
"264 637 OFFCURVE",
"241 634 OFFCURVE",
"224 634 CURVE",
"210 636 OFFCURVE",
"193 636 OFFCURVE",
"179 637 CURVE",
"176 639 OFFCURVE",
"168 650 OFFCURVE",
"170 653 CURVE",
"170 657 OFFCURVE",
"180 664 OFFCURVE",
"185 662 CURVE",
"219 653 OFFCURVE",
"248 678 OFFCURVE",
"279 678 CURVE",
"323 711 OFFCURVE",
"373 696 OFFCURVE",
"422 699 CURVE",
"443 701 OFFCURVE",
"460 701 OFFCURVE",
"467 728 CURVE",
"467 731 OFFCURVE",
"472 733 OFFCURVE",
"474 734 CURVE",
"475 733 OFFCURVE",
"477 728 OFFCURVE",
"478 726 CURVE",
"484 723 OFFCURVE",
"489 718 OFFCURVE",
"494 718 CURVE",
"502 718 OFFCURVE",
"511 722 OFFCURVE",
"519 725 CURVE",
"542 736 OFFCURVE",
"560 725 OFFCURVE",
"577 711 CURVE",
"581 708 OFFCURVE",
"584 699 OFFCURVE",
"583 696 CURVE",
"581 692 OFFCURVE",
"576 688 OFFCURVE",
"570 688 CURVE",
"557 686 OFFCURVE",
"547 688 OFFCURVE",
"535 686 CURVE",
"526 684 OFFCURVE",
"513 682 OFFCURVE",
"523 665 CURVE",
"526 662 OFFCURVE",
"520 651 OFFCURVE",
"516 646 CURVE",
"502 633 OFFCURVE",
"485 619 OFFCURVE",
"475 602 CURVE",
"468 596 OFFCURVE",
"468 581 OFFCURVE",
"467 571 CURVE",
"467 564 OFFCURVE",
"467 557 OFFCURVE",
"456 564 CURVE",
"451 565 OFFCURVE",
"441 564 OFFCURVE",
"437 561 CURVE",
"398 512 OFFCURVE",
"357 463 OFFCURVE",
"320 413 CURVE",
"288 372 OFFCURVE",
"261 327 OFFCURVE",
"237 282 CURVE",
"214 246 OFFCURVE",
"199 207 OFFCURVE",
"183 169 CURVE",
"176 154 OFFCURVE",
"174 139 OFFCURVE",
"168 126 CURVE",
"162 112 OFFCURVE",
"154 102 OFFCURVE",
"149 90 CURVE",
"141 77 OFFCURVE",
"135 64 OFFCURVE",
"129 50 CURVE",
"129 47 OFFCURVE",
"127 39 OFFCURVE",
"129 37 CURVE",
"132 33 OFFCURVE",
"138 32 OFFCURVE",
"142 32 CURVE",
"188 37 OFFCURVE",
"231 45 OFFCURVE",
"276 49 CURVE",
"286 50 OFFCURVE",
"297 45 OFFCURVE",
"310 43 CURVE",
"326 40 OFFCURVE",
"344 40 OFFCURVE",
"360 39 CURVE",
"380 39 OFFCURVE",
"402 43 OFFCURVE",
"422 36 CURVE",
"447 26 OFFCURVE",
"470 32 OFFCURVE",
"495 39 CURVE",
"511 45 OFFCURVE",
"529 45 OFFCURVE",
"546 32 CURVE",
"547 30 OFFCURVE",
"550 26 OFFCURVE",
"550 23 CURVE",
"550 20 OFFCURVE",
"546 16 OFFCURVE",
"542 14 CURVE",
"520 11 OFFCURVE",
"499 5 OFFCURVE",
"477 2 CURVE",
"477 2 OFFCURVE",
"477 3 OFFCURVE",
"477 3 CURVE"
);
},
{
closed = 1;
nodes = (
"475 794 OFFCURVE",
"477 777 OFFCURVE",
"477 761 CURVE",
"477 758 OFFCURVE",
"474 756 OFFCURVE",
"472 752 CURVE",
"470 753 OFFCURVE",
"467 758 OFFCURVE",
"467 760 CURVE",
"467 777 OFFCURVE",
"468 794 OFFCURVE",
"470 809 CURVE",
"470 815 OFFCURVE",
"474 819 OFFCURVE",
"475 825 CURVE",
"477 819 OFFCURVE",
"477 815 OFFCURVE",
"478 812 CURVE",
"477 812 OFFCURVE",
"475 812 OFFCURVE",
"475 809 CURVE"
);
}
);
width = 600;
}
);
unicode = 005A;
},
{
glyphname = a;
lastChange = "2018-01-13 17:55:21 +0000";
layers = (
{
layerId = "7185A08A-2B1C-4BBD-ABBC-D0B58775A973";
paths = (
{
closed = 1;
nodes = (
"371 530 OFFCURVE",
"400 493 OFFCURVE",
"399 460 CURVE",
"418 382 OFFCURVE",
"426 305 OFFCURVE",
"434 239 CURVE",
"442 182 OFFCURVE",
"462 138 OFFCURVE",
"471 94 CURVE",
"470 72 OFFCURVE",
"500 52 OFFCURVE",
"499 29 CURVE",
"478 43 OFFCURVE",
"457 44 OFFCURVE",
"446 54 CURVE",
"423 55 OFFCURVE",
"412 55 OFFCURVE",
"401 46 CURVE",
"368 34 OFFCURVE",
"345 14 OFFCURVE",
"322 4 CURVE",
"254 -36 OFFCURVE",
"122 -30 OFFCURVE",
"83 70 CURVE",
"73 103 OFFCURVE",
"74 125 OFFCURVE",
"97 146 CURVE",
"144 188 OFFCURVE",
"177 219 OFFCURVE",
"223 262 CURVE",
"245 272 OFFCURVE",
"280 291 OFFCURVE",
"302 290 CURVE",
"356 288 OFFCURVE",
"358 333 OFFCURVE",
"360 367 CURVE",
"360 367 OFFCURVE",
"349 376 OFFCURVE",
"349 376 CURVE",
"352 455 OFFCURVE",
"352 455 OFFCURVE",
"274 436 CURVE",
"252 426 OFFCURVE",
"241 426 OFFCURVE",
"220 427 CURVE",
"209 427 OFFCURVE",
"176 440 OFFCURVE",
"176 450 CURVE",
"177 463 OFFCURVE",
"188 483 OFFCURVE",
"200 494 CURVE",
"255 503 OFFCURVE",
"312 522 OFFCURVE",
"356 530 CURVE"
);
},
{
closed = 1;
nodes = (
"226 74 OFFCURVE",
"247 51 OFFCURVE",
"279 61 CURVE SMOOTH",
"368 89 OFFCURVE",
"372 122 OFFCURVE",
"365 211 CURVE",
"354 245 OFFCURVE",
"343 246 OFFCURVE",
"321 235 CURVE",
"264 193 OFFCURVE",
"199 186 OFFCURVE",
"173 121 CURVE",
"161 110 OFFCURVE",
"150 89 OFFCURVE",
"150 89 CURVE",
"160 77 OFFCURVE",
"171 66 OFFCURVE",
"182 65 CURVE"
);
}
);
width = 600;
}
);
unicode = 0061;
},
{
glyphname = b;
lastChange = "2018-01-13 17:56:33 +0000";
layers = (
{
layerId = "7185A08A-2B1C-4BBD-ABBC-D0B58775A973";
paths = (
{
closed = 1;
nodes = (
"248 -16 OFFCURVE",
"209 -26 OFFCURVE",
"177 -26 CURVE",
"162 -26 OFFCURVE",
"144 -16 OFFCURVE",
"137 3 CURVE",
"100 43 OFFCURVE",
"75 82 OFFCURVE",
"100 160 CURVE",
"122 230 OFFCURVE",
"115 318 OFFCURVE",
"129 388 CURVE",
"152 515 OFFCURVE",
"177 632 OFFCURVE",
"201 752 CURVE",
"209 771 OFFCURVE",
"224 781 OFFCURVE",
"234 790 CURVE",
"241 800 OFFCURVE",
"255 800 OFFCURVE",
"263 800 CURVE",
"271 800 OFFCURVE",
"285 809 OFFCURVE",
"285 809 CURVE",
"292 800 OFFCURVE",
"292 781 OFFCURVE",
"292 771 CURVE",
"278 700 OFFCURVE",
"255 632 OFFCURVE",
"241 556 CURVE",
"224 495 OFFCURVE",
"227 525 OFFCURVE",
"212 467 CURVE",
"212 445 OFFCURVE",
"220 435 OFFCURVE",
"220 427 CURVE",
"227 427 OFFCURVE",
"256 467 OFFCURVE",
"245 435 CURVE",
"282 445 OFFCURVE",
"321 459 OFFCURVE",
"353 459 CURVE",
"393 467 OFFCURVE",
"393 417 OFFCURVE",
"400 398 CURVE",
"445 291 OFFCURVE",
"382 123 OFFCURVE",
"349 25 CURVE",
"342 3 OFFCURVE",
"310 -7 OFFCURVE",
"285 -26 CURVE",
"285 -16 OFFCURVE",
"285 -16 OFFCURVE",
"285 -7 CURVE"
);
},
{
closed = 1;
nodes = (
"302 72 OFFCURVE",
"302 82 OFFCURVE",
"325 160 CURVE",
"346 282 OFFCURVE",
"321 319 OFFCURVE",
"346 348 CURVE",
"353 348 OFFCURVE",
"336 369 OFFCURVE",
"336 369 CURVE",
"328 369 OFFCURVE",
"321 357 OFFCURVE",
"313 348 CURVE",
"303 348 OFFCURVE",
"296 329 OFFCURVE",
"289 329 CURVE",
"274 319 OFFCURVE",
"252 319 OFFCURVE",
"235 319 CURVE",
"227 310 OFFCURVE",
"212 310 OFFCURVE",
"212 301 CURVE",
"188 259 OFFCURVE",
"207 230 OFFCURVE",
"189 192 CURVE",
"182 180 OFFCURVE",
"162 145 OFFCURVE",
"144 82 CURVE",
"144 72 OFFCURVE",
"162 72 OFFCURVE",
"162 72 CURVE",
"184 72 OFFCURVE",
"209 82 OFFCURVE",
"234 82 CURVE"
);
}
);
width = 600;
}
);
unicode = 0062;
},
{
glyphname = c;
lastChange = "2018-01-13 17:57:18 +0000";
layers = (
{
layerId = "7185A08A-2B1C-4BBD-ABBC-D0B58775A973";
paths = (
{
closed = 1;
nodes = (
"173 -34 OFFCURVE",
"128 31 OFFCURVE",
"105 136 CURVE",
"82 294 OFFCURVE",
"138 437 OFFCURVE",
"263 516 CURVE",
"284 529 OFFCURVE",
"330 516 OFFCURVE",
"364 516 CURVE",
"364 502 OFFCURVE",
"352 464 OFFCURVE",
"352 464 CURVE",
"228 464 OFFCURVE",
"207 345 OFFCURVE",
"173 254 CURVE SMOOTH",
"173 254 OFFCURVE",
"173 239 OFFCURVE",
"173 239 CURVE",
"128 123 OFFCURVE",
"195 83 OFFCURVE",
"308 97 CURVE",
"330 97 OFFCURVE",
"364 83 OFFCURVE",
"364 83 CURVE",
"375 18 OFFCURVE",
"352 -7 OFFCURVE",
"308 -21 CURVE",
"295 -21 OFFCURVE",
"284 -21 OFFCURVE",
"284 -21 CURVE"
);
}
);
width = 600;
}
);
unicode = 0063;
},
{
glyphname = d;
lastChange = "2018-01-13 17:58:08 +0000";
layers = (
{
layerId = "7185A08A-2B1C-4BBD-ABBC-D0B58775A973";
paths = (
{
closed = 1;
nodes = (
"280 514 OFFCURVE",
"299 501 OFFCURVE",
"318 501 CURVE",
"332 497 OFFCURVE",
"347 507 OFFCURVE",
"351 520 CURVE",
"363 536 OFFCURVE",
"380 624 OFFCURVE",
"397 713 CURVE",
"402 734 OFFCURVE",
"402 754 OFFCURVE",
"406 776 CURVE",
"410 786 OFFCURVE",
"423 792 OFFCURVE",
"432 801 CURVE",
"436 792 OFFCURVE",
"449 781 OFFCURVE",
"449 770 CURVE",
"449 682 OFFCURVE",
"394 575 OFFCURVE",
"394 492 CURVE",
"394 481 OFFCURVE",
"394 471 OFFCURVE",
"390 465 CURVE SMOOTH",
"358 417 OFFCURVE",
"390 344 OFFCURVE",
"393 187 CURVE",
"397 145 OFFCURVE",
"419 102 OFFCURVE",
"419 61 CURVE",
"423 41 OFFCURVE",
"397 14 OFFCURVE",
"384 -6 CURVE",
"376 4 OFFCURVE",
"363 19 OFFCURVE",
"354 30 CURVE",
"345 46 OFFCURVE",
"341 61 OFFCURVE",
"333 77 CURVE",
"320 57 OFFCURVE",
"302 41 OFFCURVE",
"298 19 CURVE",
"294 -6 OFFCURVE",
"285 -17 OFFCURVE",
"268 -12 CURVE",
"242 -6 OFFCURVE",
"220 -1 OFFCURVE",
"194 10 CURVE",
"185 14 OFFCURVE",
"177 19 OFFCURVE",
"168 19 CURVE",
"129 4 OFFCURVE",
"103 30 OFFCURVE",
"77 57 CURVE",
"69 66 OFFCURVE",
"64 87 OFFCURVE",
"69 98 CURVE",
"90 207 OFFCURVE",
"96 374 OFFCURVE",
"164 478 CURVE",
"183 501 OFFCURVE",
"222 507 OFFCURVE",
"251 520 CURVE"
);
},
{
closed = 1;
nodes = (
"270 392 OFFCURVE",
"265 392 OFFCURVE",
"265 398 CURVE",
"237 381 OFFCURVE",
"198 369 OFFCURVE",
"188 337 CURVE",
"181 243 OFFCURVE",
"172 181 OFFCURVE",
"172 124 CURVE",
"172 108 OFFCURVE",
"216 93 OFFCURVE",
"242 77 CURVE",
"250 72 OFFCURVE",
"276 77 OFFCURVE",
"281 87 CURVE",
"294 118 OFFCURVE",
"333 149 OFFCURVE",
"337 187 CURVE",
"341 223 OFFCURVE",
"298 254 OFFCURVE",
"309 327 CURVE",
"323 381 OFFCURVE",
"309 392 OFFCURVE",
"270 387 CURVE"
);
}
);
width = 600;
}
);
unicode = 0064;
},
{
glyphname = e;
lastChange = "2018-01-13 18:03:34 +0000";
layers = (
{
layerId = "7185A08A-2B1C-4BBD-ABBC-D0B58775A973";
paths = (
{
closed = 1;
nodes = (
"294 254 OFFCURVE",
"294 254 OFFCURVE",
"294 254 CURVE",
"266 254 OFFCURVE",
"226 264 OFFCURVE",
"226 254 CURVE",
"217 225 OFFCURVE",
"170 186 OFFCURVE",
"179 157 CURVE",
"179 99 OFFCURVE",
"275 70 OFFCURVE",
"313 41 CURVE",
"323 32 OFFCURVE",
"343 32 OFFCURVE",
"352 22 CURVE",
"362 11 OFFCURVE",
"372 3 OFFCURVE",
"382 -7 CURVE",
"372 -7 OFFCURVE",
"352 -27 OFFCURVE",
"343 -17 CURVE",
"323 -17 OFFCURVE",
"294 -7 OFFCURVE",
"275 3 CURVE",
"256 11 OFFCURVE",
"246 22 OFFCURVE",
"226 22 CURVE",
"197 22 OFFCURVE",
"120 81 OFFCURVE",
"110 108 CURVE",
"110 119 OFFCURVE",
"110 128 OFFCURVE",
"110 137 CURVE",
"71 157 OFFCURVE",
"81 186 OFFCURVE",
"91 215 CURVE",
"120 274 OFFCURVE",
"149 332 OFFCURVE",
"179 390 CURVE",
"197 419 OFFCURVE",
"217 438 OFFCURVE",
"246 458 CURVE",
"266 477 OFFCURVE",
"284 497 OFFCURVE",
"313 516 CURVE",
"343 545 OFFCURVE",
"391 535 OFFCURVE",
"421 497 CURVE",
"450 458 OFFCURVE",
"469 419 OFFCURVE",
"498 380 CURVE",
"498 371 OFFCURVE",
"498 351 OFFCURVE",
"488 341 CURVE",
"450 274 OFFCURVE",
"372 264 OFFCURVE",
"305 254 CURVE"
);
},
{
closed = 1;
nodes = (
"226 322 OFFCURVE",
"236 312 OFFCURVE",
"246 312 CURVE",
"294 332 OFFCURVE",
"343 341 OFFCURVE",
"391 361 CURVE",
"401 361 OFFCURVE",
"410 380 OFFCURVE",
"401 380 CURVE",
"391 409 OFFCURVE",
"382 428 OFFCURVE",
"362 458 CURVE",
"352 487 OFFCURVE",
"333 487 OFFCURVE",
"313 458 CURVE",
"284 428 OFFCURVE",
"256 390 OFFCURVE",
"226 351 CURVE",
"226 351 OFFCURVE",
"226 341 OFFCURVE",
"217 322 CURVE"
);
}
);
width = 600;
}
);
unicode = 0065;
},
{
glyphname = f;
lastChange = "2018-01-13 17:59:46 +0000";
layers = (
{
layerId = "7185A08A-2B1C-4BBD-ABBC-D0B58775A973";
paths = (
{
closed = 1;
nodes = (
"63 65 OFFCURVE",
"69 106 OFFCURVE",
"73 146 CURVE",
"72 161 OFFCURVE",
"55 176 OFFCURVE",
"53 192 CURVE",
"52 208 OFFCURVE",
"34 238 OFFCURVE",
"41 247 CURVE",
"71 272 OFFCURVE",
"76 305 OFFCURVE",
"74 336 CURVE",
"67 432 OFFCURVE",
"100 522 OFFCURVE",
"133 612 CURVE",
"152 661 OFFCURVE",
"171 710 OFFCURVE",
"200 752 CURVE",
"199 760 OFFCURVE",
"199 768 OFFCURVE",
"207 768 CURVE",
"214 777 OFFCURVE",
"229 787 OFFCURVE",
"245 788 CURVE",
"238 779 OFFCURVE",
"239 763 OFFCURVE",
"232 754 CURVE",
"227 731 OFFCURVE",
"228 707 OFFCURVE",
"221 683 CURVE",
"216 650 OFFCURVE",
"201 617 OFFCURVE",
"198 586 CURVE",
"183 560 OFFCURVE",
"170 536 OFFCURVE",
"164 511 CURVE",
"159 471 OFFCURVE",
"154 423 OFFCURVE",
"151 382 CURVE",
"144 350 OFFCURVE",
"147 319 OFFCURVE",
"141 294 CURVE",
"142 272 OFFCURVE",
"152 255 OFFCURVE",
"176 257 CURVE",
"184 258 OFFCURVE",
"193 242 OFFCURVE",
"200 236 CURVE",
"193 235 OFFCURVE",
"186 226 OFFCURVE",
"170 225 CURVE",
"138 222 OFFCURVE",
"131 198 OFFCURVE",
"133 174 CURVE",
"131 118 OFFCURVE",
"128 63 OFFCURVE",
"115 14 CURVE",
"116 0 OFFCURVE",
"101 -11 OFFCURVE",
"94 -19 CURVE",
"85 -3 OFFCURVE",
"68 2 OFFCURVE",
"60 9 CURVE"
);
}
);
width = 280;
}
);
unicode = 0066;
},
{
glyphname = g;
lastChange = "2018-01-13 18:01:02 +0000";
layers = (
{
layerId = "7185A08A-2B1C-4BBD-ABBC-D0B58775A973";
paths = (
{
closed = 1;
nodes = (
"233 437 OFFCURVE",
"279 437 OFFCURVE",
"326 448 CURVE",
"359 448 OFFCURVE",
"383 437 OFFCURVE",
"383 401 CURVE",
"383 333 OFFCURVE",
"424 294 OFFCURVE",
"424 237 CURVE",
"424 190 OFFCURVE",
"400 155 OFFCURVE",
"389 109 CURVE",
"378 29 OFFCURVE",
"330 2 OFFCURVE",
"317 -41 CURVE",
"317 -47 OFFCURVE",
"305 -60 OFFCURVE",
"299 -72 CURVE",
"286 -91 OFFCURVE",
"280 -115 OFFCURVE",
"268 -134 CURVE",
"261 -159 OFFCURVE",
"249 -178 OFFCURVE",
"249 -196 CURVE",
"243 -221 OFFCURVE",
"224 -221 OFFCURVE",
"206 -221 CURVE",
"168 -221 OFFCURVE",
"125 -215 OFFCURVE",
"81 -215 CURVE",
"75 -215 OFFCURVE",
"63 -209 OFFCURVE",
"57 -209 CURVE",
"57 -196 OFFCURVE",
"63 -184 OFFCURVE",
"69 -184 CURVE",
"88 -171 OFFCURVE",
"106 -159 OFFCURVE",
"131 -153 CURVE",
"187 -140 OFFCURVE",
"224 -103 OFFCURVE",
"255 -60 CURVE",
"274 -29 OFFCURVE",
"274 -28 OFFCURVE",
"296 40 CURVE",
"296 51 OFFCURVE",
"296 64 OFFCURVE",
"285 64 CURVE",
"274 64 OFFCURVE",
"263 64 OFFCURVE",
"252 51 CURVE",
"181 -6 OFFCURVE",
"145 15 OFFCURVE",
"63 26 CURVE",
"41 26 OFFCURVE",
"30 84 OFFCURVE",
"30 119 CURVE",
"30 245 OFFCURVE",
"56 379 OFFCURVE",
"138 469 CURVE",
"149 494 OFFCURVE",
"194 482 OFFCURVE",
"217 493 CURVE",
"217 493 OFFCURVE",
"217 482 OFFCURVE",
"228 482 CURVE"
);
},
{
closed = 1;
nodes = (
"228 424 OFFCURVE",
"216 424 OFFCURVE",
"216 435 CURVE",
"205 413 OFFCURVE",
"152 416 OFFCURVE",
"152 403 CURVE",
"141 323 OFFCURVE",
"114 213 OFFCURVE",
"80 156 CURVE",
"80 145 OFFCURVE",
"67 121 OFFCURVE",
"80 98 CURVE",
"80 87 OFFCURVE",
"103 76 OFFCURVE",
"114 76 CURVE",
"160 98 OFFCURVE",
"253 109 OFFCURVE",
"299 133 CURVE",
"379 179 OFFCURVE",
"326 264 OFFCURVE",
"338 333 CURVE",
"338 346 OFFCURVE",
"315 368 OFFCURVE",
"302 368 CURVE",
"280 379 OFFCURVE",
"250 424 OFFCURVE",
"228 424 CURVE"
);
}
);
width = 463;
}
);
unicode = 0067;
},
{
glyphname = h;
lastChange = "2018-01-13 18:03:17 +0000";
layers = (
{
layerId = "7185A08A-2B1C-4BBD-ABBC-D0B58775A973";
paths = (
{
closed = 1;
nodes = (
"398 146 OFFCURVE",
"396 225 OFFCURVE",
"390 303 CURVE",
"381 350 OFFCURVE",
"375 380 OFFCURVE",
"368 413 CURVE",
"344 408 OFFCURVE",
"309 462 OFFCURVE",
"302 446 CURVE",
"203 371 OFFCURVE",
"180 262 OFFCURVE",
"141 164 CURVE",
"140 118 OFFCURVE",
"158 52 OFFCURVE",
"138 26 CURVE",
"120 -2 OFFCURVE",
"112 -14 OFFCURVE",
"102 -16 CURVE",
"100 -6 OFFCURVE",
"84 15 OFFCURVE",
"84 15 CURVE",
"83 126 OFFCURVE",
"94 243 OFFCURVE",
"105 359 CURVE",
"124 488 OFFCURVE",
"136 498 OFFCURVE",
"157 617 CURVE",
"155 673 OFFCURVE",
"167 735 OFFCURVE",
"180 792 CURVE",
"185 818 OFFCURVE",
"224 812 OFFCURVE",
"220 815 CURVE",
"216 800 OFFCURVE",
"234 793 OFFCURVE",
"241 760 CURVE",
"233 678 OFFCURVE",
"237 610 OFFCURVE",
"221 516 CURVE",
"218 481 OFFCURVE",
"252 538 OFFCURVE",
"246 502 CURVE",
"242 467 OFFCURVE",
"220 452 OFFCURVE",
"242 467 CURVE",
"272 487 OFFCURVE",
"288 511 OFFCURVE",
"311 516 CURVE",
"353 534 OFFCURVE",
"386 541 OFFCURVE",
"404 500 CURVE",
"406 490 OFFCURVE",
"406 490 OFFCURVE",
"406 490 CURVE",
"517 458 OFFCURVE",
"495 384 OFFCURVE",
"505 281 CURVE",
"487 198 OFFCURVE",
"491 130 OFFCURVE",
"483 47 CURVE",
"480 12 OFFCURVE",
"449 -5 OFFCURVE",
"441 -16 CURVE",
"426 -9 OFFCURVE",
"441 5 OFFCURVE",
"420 36 CURVE",
"420 36 OFFCURVE",
"418 49 OFFCURVE",
"416 58 CURVE",
"416 58 OFFCURVE",
"416 58 OFFCURVE",
"416 58 CURVE"
);
}
);
width = 600;
}
);
unicode = 0068;
},
{
glyphname = i;
lastChange = "2018-01-14 13:34:19 +0000";
layers = (
{
layerId = "7185A08A-2B1C-4BBD-ABBC-D0B58775A973";
paths = (
{
closed = 1;
nodes = (
"247 63 OFFCURVE",
"251 119 OFFCURVE",
"254 177 CURVE",
"260 269 OFFCURVE",
"265 362 OFFCURVE",
"277 453 CURVE",
"278 469 OFFCURVE",
"309 481 OFFCURVE",
"327 494 CURVE",
"337 471 OFFCURVE",
"355 449 OFFCURVE",
"354 426 CURVE",
"356 340 OFFCURVE",
"351 253 OFFCURVE",
"346 167 CURVE",
"345 143 OFFCURVE",
"338 117 OFFCURVE",
"331 92 CURVE",
"323 68 OFFCURVE",
"312 41 OFFCURVE",
"300 17 CURVE",
"294 3 OFFCURVE",
"282 -9 OFFCURVE",
"271 -16 CURVE",
"266 -19 OFFCURVE",
"255 -7 OFFCURVE",
"244 1 CURVE"
);
},
{
closed = 1;
nodes = (
"352 741 OFFCURVE",
"381 736 OFFCURVE",
"401 720 CURVE",
"409 712 OFFCURVE",
"402 672 OFFCURVE",
"392 656 CURVE",
"374 623 OFFCURVE",
"351 593 OFFCURVE",
"326 567 CURVE",
"323 564 OFFCURVE",
"299 576 OFFCURVE",
"290 587 CURVE",
"283 596 OFFCURVE",
"283 613 OFFCURVE",
"279 626 CURVE",
"261 680 OFFCURVE",
"274 716 OFFCURVE",
"342 743 CURVE"
);
}
);
width = 600;
}
);
unicode = 0069;
},
{
glyphname = j;
lastChange = "2018-01-13 18:05:28 +0000";
layers = (
{
layerId = "7185A08A-2B1C-4BBD-ABBC-D0B58775A973";
paths = (
{
closed = 1;
nodes = (
"364 407 OFFCURVE",
"360 366 OFFCURVE",
"358 328 CURVE",
"364 229 OFFCURVE",
"350 141 OFFCURVE",
"337 51 CURVE",
"320 -38 OFFCURVE",
"268 -57 OFFCURVE",
"220 -103 CURVE",
"196 -125 OFFCURVE",
"178 -148 OFFCURVE",
"153 -161 CURVE",
"144 -162 OFFCURVE",
"126 -157 OFFCURVE",
"117 -159 CURVE",
"114 -148 OFFCURVE",
"112 -130 OFFCURVE",
"121 -129 CURVE",
"167 -72 OFFCURVE",
"214 -16 OFFCURVE",
"252 39 CURVE",
"276 72 OFFCURVE",
"287 121 OFFCURVE",
"290 162 CURVE",
"300 220 OFFCURVE",
"291 278 OFFCURVE",
"294 326 CURVE",
"295 375 OFFCURVE",
"290 413 OFFCURVE",
"291 461 CURVE",
"290 470 OFFCURVE",
"304 494 OFFCURVE",
"304 502 CURVE",
"325 497 OFFCURVE",
"346 478 OFFCURVE",
"354 471 CURVE",
"356 461 OFFCURVE",
"358 443 OFFCURVE",
"359 431 CURVE"
);
},
{
closed = 1;
nodes = (
"259 563 OFFCURVE",
"247 569 OFFCURVE",
"239 568 CURVE",
"244 589 OFFCURVE",
"252 600 OFFCURVE",
"259 611 CURVE",
"283 645 OFFCURVE",
"318 669 OFFCURVE",
"343 693 CURVE",
"350 703 OFFCURVE",
"366 706 OFFCURVE",
"384 710 CURVE",
"384 710 OFFCURVE",
"395 691 OFFCURVE",
"395 691 CURVE",
"377 630 OFFCURVE",
"332 574 OFFCURVE",
"268 565 CURVE"
);
}
);
width = 600;
}
);
unicode = 006A;
},
{
glyphname = k;
lastChange = "2018-01-14 13:34:26 +0000";
layers = (
{
layerId = "7185A08A-2B1C-4BBD-ABBC-D0B58775A973";
paths = (
{
closed = 1;
nodes = (
"232 762 OFFCURVE",
"228 738 OFFCURVE",
"223 715 CURVE",
"217 615 OFFCURVE",
"208 523 OFFCURVE",
"203 423 CURVE",
"205 413 OFFCURVE",
"208 349 OFFCURVE",
"213 329 CURVE",
"232 345 OFFCURVE",
"241 348 OFFCURVE",
"252 350 CURVE",
"266 376 OFFCURVE",
"361 489 OFFCURVE",
"379 505 CURVE",
"390 507 OFFCURVE",
"410 513 OFFCURVE",
"431 519 CURVE",
"423 506 OFFCURVE",
"428 486 OFFCURVE",
"421 472 CURVE",
"396 444 OFFCURVE",
"349 307 OFFCURVE",
"327 267 CURVE",
"327 267 OFFCURVE",
"335 177 OFFCURVE",
"335 177 CURVE",
"387 147 OFFCURVE",
"427 124 OFFCURVE",
"465 101 CURVE",
"478 95 OFFCURVE",
"491 87 OFFCURVE",
"497 66 CURVE",
"507 69 OFFCURVE",
"502 45 OFFCURVE",
"492 43 CURVE",
"482 40 OFFCURVE",
"472 37 OFFCURVE",
"458 45 CURVE",
"406 75 OFFCURVE",
"354 105 OFFCURVE",
"265 276 CURVE",
"265 276 OFFCURVE",
"244 270 OFFCURVE",
"234 267 CURVE",
"258 219 OFFCURVE",
"213 184 OFFCURVE",
"200 147 CURVE",
"186 122 OFFCURVE",
"167 105 OFFCURVE",
"153 80 CURVE",
"145 67 OFFCURVE",
"135 64 OFFCURVE",
"127 52 CURVE",
"125 67 OFFCURVE",
"124 33 OFFCURVE",
"119 10 CURVE",
"111 -4 OFFCURVE",
"101 -6 OFFCURVE",
"101 -6 CURVE",
"88 1 OFFCURVE",
"88 1 OFFCURVE",
"85 12 CURVE",
"97 92 OFFCURVE",
"100 111 OFFCURVE",
"114 180 CURVE",
"120 280 OFFCURVE",
"126 381 OFFCURVE",
"135 470 CURVE",
"129 491 OFFCURVE",
"110 520 OFFCURVE",
"115 543 CURVE",
"116 620 OFFCURVE",
"130 689 OFFCURVE",
"135 756 CURVE",
"141 770 OFFCURVE",
"139 780 OFFCURVE",
"139 780 CURVE",
"154 806 OFFCURVE",
"161 819 OFFCURVE",
"177 845 CURVE",
"192 827 OFFCURVE",
"218 812 OFFCURVE",
"231 805 CURVE"
);
}
);
width = 552;
}
);
unicode = 006B;
},
{
glyphname = l;
lastChange = "2018-01-13 18:06:54 +0000";
layers = (
{
layerId = "7185A08A-2B1C-4BBD-ABBC-D0B58775A973";
paths = (
{
closed = 1;
nodes = (
"200 176 OFFCURVE",
"205 321 OFFCURVE",
"210 466 CURVE",
"213 567 OFFCURVE",
"214 667 OFFCURVE",
"226 773 CURVE",
"232 802 OFFCURVE",
"249 822 OFFCURVE",
"257 840 CURVE",
"272 816 OFFCURVE",
"287 793 OFFCURVE",
"282 762 CURVE",
"282 590 OFFCURVE",
"273 415 OFFCURVE",
"273 243 CURVE",
"273 187 OFFCURVE",
"293 137 OFFCURVE",
"313 85 CURVE",
"318 59 OFFCURVE",
"326 19 OFFCURVE",
"331 -8 CURVE",
"301 -19 OFFCURVE",
"271 -30 OFFCURVE",
"248 -23 CURVE",
"229 -30 OFFCURVE",
"213 -5 OFFCURVE",
"198 19 CURVE"
);
}
);
width = 600;
}
);
unicode = 006C;
},
{
glyphname = m;
lastChange = "2018-01-13 18:07:51 +0000";
layers = (
{
layerId = "7185A08A-2B1C-4BBD-ABBC-D0B58775A973";
paths = (
{
closed = 1;
nodes = (
"212 539 OFFCURVE",
"249 542 OFFCURVE",
"302 547 CURVE",
"317 548 OFFCURVE",
"332 549 OFFCURVE",
"345 577 CURVE",
"363 629 OFFCURVE",
"388 606 OFFCURVE",
"423 544 CURVE",
"451 468 OFFCURVE",
"486 407 OFFCURVE",
"546 412 CURVE",
"561 413 OFFCURVE",
"580 349 OFFCURVE",
"582 324 CURVE",
"575 233 OFFCURVE",
"558 155 OFFCURVE",
"551 63 CURVE",
"538 37 OFFCURVE",
"518 9 OFFCURVE",
"518 9 CURVE",
"501 34 OFFCURVE",
"484 58 OFFCURVE",
"483 71 CURVE",
"481 96 OFFCURVE",
"477 148 OFFCURVE",
"476 160 CURVE",
"483 252 OFFCURVE",
"461 340 OFFCURVE",
"384 360 CURVE",
"370 358 OFFCURVE",
"370 358 OFFCURVE",
"362 358 CURVE",
"364 332 OFFCURVE",
"366 307 OFFCURVE",
"368 293 CURVE",
"370 268 OFFCURVE",
"374 217 OFFCURVE",
"377 178 CURVE",
"345 202 OFFCURVE",
"322 213 OFFCURVE",
"290 237 CURVE",
"272 260 OFFCURVE",
"264 285 OFFCURVE",
"263 299 CURVE",
"218 385 OFFCURVE",
"203 384 OFFCURVE",
"180 292 CURVE",
"165 200 OFFCURVE",
"156 134 OFFCURVE",
"141 43 CURVE",
"126 29 OFFCURVE",
"112 28 OFFCURVE",
"105 27 CURVE",
"88 39 OFFCURVE",
"71 63 OFFCURVE",
"69 89 CURVE",
"90 220 OFFCURVE",
"98 376 OFFCURVE",
"118 520 CURVE",
"124 532 OFFCURVE",
"153 535 OFFCURVE",
"151 561 CURVE"
);
}
);
width = 600;
}
);
unicode = 006D;
},
{
glyphname = n;
lastChange = "2018-01-13 18:08:37 +0000";
layers = (
{
layerId = "7185A08A-2B1C-4BBD-ABBC-D0B58775A973";
paths = (
{
closed = 1;
nodes = (
"338 383 OFFCURVE",
"331 408 OFFCURVE",
"322 436 CURVE",
"296 417 OFFCURVE",
"259 403 OFFCURVE",
"249 375 CURVE",
"210 258 OFFCURVE",
"119 130 OFFCURVE",
"123 -12 CURVE",
"123 -23 OFFCURVE",
"98 -37 OFFCURVE",
"86 -51 CURVE",
"79 -34 OFFCURVE",
"65 -20 OFFCURVE",
"65 -3 CURVE",
"69 147 OFFCURVE",
"65 300 OFFCURVE",
"128 442 CURVE",
"137 461 OFFCURVE",
"128 497 OFFCURVE",
"140 511 CURVE",
"163 533 OFFCURVE",
"207 567 OFFCURVE",
"221 558 CURVE",
"289 503 OFFCURVE",
"297 533 OFFCURVE",
"365 516 CURVE",
"420 505 OFFCURVE",
"453 472 OFFCURVE",
"440 408 CURVE",
"409 286 OFFCURVE",
"426 233 OFFCURVE",
"410 58 CURVE",
"406 38 OFFCURVE",
"382 24 OFFCURVE",
"368 8 CURVE",
"359 30 OFFCURVE",
"343 52 OFFCURVE",
"343 74 CURVE",
"329 203 OFFCURVE",
"336 278 OFFCURVE",
"340 378 CURVE"
);
}
);
width = 448;
}
);
unicode = 006E;
},
{
glyphname = o;
lastChange = "2018-01-13 18:10:05 +0000";
layers = (
{
layerId = "7185A08A-2B1C-4BBD-ABBC-D0B58775A973";
paths = (
{
closed = 1;
nodes = (
"324 530 OFFCURVE",
"356 542 OFFCURVE",
"390 529 CURVE",
"419 518 OFFCURVE",
"403 502 OFFCURVE",
"405 478 CURVE",
"497 375 OFFCURVE",
"493 271 OFFCURVE",
"491 168 CURVE",
"491 136 OFFCURVE",
"413 91 OFFCURVE",
"409 60 CURVE",
"401 -9 OFFCURVE",
"352 3 OFFCURVE",
"287 21 CURVE",
"232 40 OFFCURVE",
"179 73 OFFCURVE",
"132 107 CURVE",
"96 133 OFFCURVE",
"86 112 OFFCURVE",
"55 144 CURVE",
"80 161 OFFCURVE",
"78 193 OFFCURVE",
"99 232 CURVE",
"125 284 OFFCURVE",
"136 347 OFFCURVE",
"171 391 CURVE",
"215 446 OFFCURVE",
"221 500 OFFCURVE",
"275 546 CURVE",
"279 541 OFFCURVE",
"282 537 OFFCURVE",
"286 533 CURVE"
);
},
{
closed = 1;
nodes = (
"278 140 OFFCURVE",
"391 152 OFFCURVE",
"398 175 CURVE",
"458 217 OFFCURVE",
"422 315 OFFCURVE",
"434 380 CURVE",
"437 401 OFFCURVE",
"344 425 OFFCURVE",
"341 446 CURVE",
"321 432 OFFCURVE",
"388 414 OFFCURVE",
"290 395 CURVE",
"257 342 OFFCURVE",
"227 285 OFFCURVE",
"197 228 CURVE",
"169 171 OFFCURVE",
"190 132 OFFCURVE",
"271 132 CURVE"
);
}
);
width = 600;
}
);
unicode = 006F;
},
{
glyphname = p;
lastChange = "2018-01-13 18:11:58 +0000";
layers = (
{
layerId = "7185A08A-2B1C-4BBD-ABBC-D0B58775A973";
paths = (
{
closed = 1;
nodes = (
"107 36 OFFCURVE",
"95 -134 OFFCURVE",
"110 -17 CURVE",
"123 26 OFFCURVE",
"95 84 OFFCURVE",
"95 142 CURVE",
"95 200 OFFCURVE",
"80 258 OFFCURVE",
"80 316 CURVE",
"80 387 OFFCURVE",
"56 431 OFFCURVE",
"56 504 CURVE",
"56 519 OFFCURVE",
"71 533 OFFCURVE",
"71 563 CURVE",
"99 548 OFFCURVE",
"129 548 OFFCURVE",
"129 533 CURVE",
"157 489 OFFCURVE",
"202 474 OFFCURVE",
"245 489 CURVE",
"288 519 OFFCURVE",
"346 519 OFFCURVE",
"404 533 CURVE",
"419 533 OFFCURVE",
"432 533 OFFCURVE",
"432 533 CURVE",
"490 474 OFFCURVE",
"548 431 OFFCURVE",
"535 345 CURVE",
"535 287 OFFCURVE",
"535 229 OFFCURVE",
"520 171 CURVE",
"520 113 OFFCURVE",
"477 83 OFFCURVE",
"432 83 CURVE",
"374 70 OFFCURVE",
"316 70 OFFCURVE",
"260 55 CURVE",
"230 40 OFFCURVE",
"215 27 OFFCURVE",
"215 -3 CURVE",
"187 -76 OFFCURVE",
"227 123 OFFCURVE",
"197 37 CURVE",
"184 -21 OFFCURVE",
"169 -66 OFFCURVE",
"154 -122 CURVE",
"139 -152 OFFCURVE",
"135 -151 OFFCURVE",
"120 -166 CURVE",
"107 -138 OFFCURVE",
"107 -123 OFFCURVE",
"92 -93 CURVE"
);
},
{
closed = 1;
nodes = (
"330 400 OFFCURVE",
"298 412 OFFCURVE",
"264 412 CURVE",
"182 412 OFFCURVE",
"148 304 OFFCURVE",
"182 221 CURVE",
"213 124 OFFCURVE",
"281 76 OFFCURVE",
"378 142 CURVE",
"412 157 OFFCURVE",
"478 221 OFFCURVE",
"429 303 CURVE",
"412 303 OFFCURVE",
"429 335 OFFCURVE",
"429 352 CURVE",
"429 366 OFFCURVE",
"429 400 OFFCURVE",
"429 400 CURVE",
"412 417 OFFCURVE",
"378 417 OFFCURVE",
"364 417 CURVE"
);
}
);
width = 600;
}
);
unicode = 0070;
},
{
glyphname = q;
lastChange = "2018-01-13 18:14:54 +0000";
layers = (
{
layerId = "7185A08A-2B1C-4BBD-ABBC-D0B58775A973";
paths = (
{
closed = 1;
nodes = (
"509 408 OFFCURVE",
"512 431 OFFCURVE",
"504 446 CURVE",
"494 461 OFFCURVE",
"462 481 OFFCURVE",
"456 477 CURVE",
"423 446 OFFCURVE",
"394 465 OFFCURVE",
"364 484 CURVE",
"311 515 OFFCURVE",
"249 544 OFFCURVE",
"196 493 CURVE",
"152 453 OFFCURVE",
"114 399 OFFCURVE",
"84 347 CURVE",
"26 244 OFFCURVE",
"49 145 OFFCURVE",
"105 51 CURVE",
"113 35 OFFCURVE",
"132 24 OFFCURVE",
"146 21 CURVE",
"197 16 OFFCURVE",
"250 122 OFFCURVE",
"301 131 CURVE",
"366 142 OFFCURVE",
"373 105 OFFCURVE",
"375 60 CURVE",
"362 97 OFFCURVE",
"364 21 OFFCURVE",
"357 -53 CURVE",
"352 -129 OFFCURVE",
"376 -185 OFFCURVE",
"432 -235 CURVE",
"439 -241 OFFCURVE",
"449 -245 OFFCURVE",
"459 -249 CURVE",
"463 -241 OFFCURVE",
"468 -231 OFFCURVE",
"468 -222 CURVE",
"475 -140 OFFCURVE",
"480 -57 OFFCURVE",
"483 26 CURVE",
"486 97 OFFCURVE",
"486 169 OFFCURVE",
"507 128 CURVE",
"515 213 OFFCURVE",
"534 183 OFFCURVE",
"539 267 CURVE",
"541 306 OFFCURVE",
"520 348 OFFCURVE",
"515 368 CURVE"
);
},
{
closed = 1;
nodes = (
"228 397 LINE",
"257 425 OFFCURVE",
"288 437 OFFCURVE",
"321 417 CURVE SMOOTH",
"354 397 OFFCURVE",
"465 364 OFFCURVE",
"436 305 CURVE SMOOTH",
"407 246 OFFCURVE",
"371 251 OFFCURVE",
"310 204 CURVE SMOOTH",
"249 157 OFFCURVE",
"191 195 OFFCURVE",
"165 225 CURVE SMOOTH",
"139 255 OFFCURVE",
"202 305 OFFCURVE",
"216 358 CURVE"
);
}
);
width = 600;
}
);
unicode = 0071;
},
{
glyphname = r;
lastChange = "2018-01-13 18:15:57 +0000";
layers = (
{
layerId = "7185A08A-2B1C-4BBD-ABBC-D0B58775A973";
paths = (
{
closed = 1;
nodes = (
"206 579 OFFCURVE",
"217 569 OFFCURVE",
"222 551 CURVE",
"231 517 OFFCURVE",
"239 517 OFFCURVE",
"254 532 CURVE",
"293 566 OFFCURVE",
"400 516 OFFCURVE",
"435 472 CURVE",
"453 451 OFFCURVE",
"446 454 OFFCURVE",
"432 425 CURVE",
"411 383 OFFCURVE",
"392 375 OFFCURVE",
"366 412 CURVE",
"337 456 OFFCURVE",
"249 435 OFFCURVE",
"233 399 CURVE",
"219 370 OFFCURVE",
"206 189 OFFCURVE",
"199 147 CURVE",
"195 118 OFFCURVE",
"222 92 OFFCURVE",
"215 66 CURVE",
"211 43 OFFCURVE",
"173 6 OFFCURVE",
"164 6 CURVE",
"178 17 OFFCURVE",
"159 51 OFFCURVE",
"160 69 CURVE",
"164 168 OFFCURVE",
"130 202 OFFCURVE",
"136 299 CURVE",
"140 338 OFFCURVE",
"169 501 OFFCURVE",
"173 537 CURVE",
"177 556 OFFCURVE",
"185 574 OFFCURVE",
"193 600 CURVE"
);
}
);
width = 600;
}
);
unicode = 0072;
},
{
glyphname = s;
lastChange = "2018-01-13 18:16:27 +0000";
layers = (
{
layerId = "7185A08A-2B1C-4BBD-ABBC-D0B58775A973";
paths = (
{
closed = 1;
nodes = (
"297 475 OFFCURVE",
"263 413 OFFCURVE",
"275 377 CURVE",
"280 363 OFFCURVE",
"302 363 OFFCURVE",
"312 350 CURVE",
"338 322 OFFCURVE",
"372 294 OFFCURVE",
"383 255 CURVE",
"392 224 OFFCURVE",
"372 175 OFFCURVE",
"361 136 CURVE",
"351 103 OFFCURVE",
"335 74 OFFCURVE",
"322 42 CURVE",
"311 11 OFFCURVE",
"300 -10 OFFCURVE",
"275 25 CURVE",
"271 32 OFFCURVE",
"258 29 OFFCURVE",
"249 29 CURVE",
"224 29 OFFCURVE",
"198 26 OFFCURVE",
"172 31 CURVE",
"166 32 OFFCURVE",
"159 54 OFFCURVE",
"154 67 CURVE",
"146 102 OFFCURVE",
"138 136 OFFCURVE",
"130 171 CURVE",
"128 184 OFFCURVE",
"127 199 OFFCURVE",
"132 207 CURVE",
"135 214 OFFCURVE",
"149 217 OFFCURVE",
"154 213 CURVE",
"173 194 OFFCURVE",
"191 173 OFFCURVE",
"207 149 CURVE",
"230 109 OFFCURVE",
"258 106 OFFCURVE",
"280 147 CURVE",
"289 163 OFFCURVE",
"297 182 OFFCURVE",
"300 201 CURVE",
"301 211 OFFCURVE",
"291 230 OFFCURVE",
"283 237 CURVE",
"266 249 OFFCURVE",
"246 249 OFFCURVE",
"231 263 CURVE",
"220 276 OFFCURVE",
"209 303 OFFCURVE",
"209 324 CURVE",
"208 367 OFFCURVE",
"210 413 OFFCURVE",
"219 454 CURVE",
"232 527 OFFCURVE",
"313 577 OFFCURVE",
"359 545 CURVE",
"367 540 OFFCURVE",
"374 528 OFFCURVE",
"375 519 CURVE",
"376 511 OFFCURVE",
"368 500 OFFCURVE",
"361 495 CURVE",
"350 484 OFFCURVE",
"337 477 OFFCURVE",
"330 471 CURVE"
);
}
);
width = 600;
}
);
unicode = 0073;
},
{
glyphname = t;
lastChange = "2018-01-13 18:17:09 +0000";
layers = (
{
layerId = "7185A08A-2B1C-4BBD-ABBC-D0B58775A973";
paths = (
{
closed = 1;
nodes = (
"308 482 OFFCURVE",
"321 471 OFFCURVE",
"327 459 CURVE",
"327 459 OFFCURVE",
"321 438 OFFCURVE",
"314 427 CURVE",
"308 416 OFFCURVE",
"308 416 OFFCURVE",
"295 416 CURVE",
"265 416 OFFCURVE",
"259 372 OFFCURVE",
"259 327 CURVE SMOOTH",
"259 235 OFFCURVE",
"241 150 OFFCURVE",
"228 61 CURVE",
"222 40 OFFCURVE",
"197 18 OFFCURVE",
"185 -5 CURVE",
"185 -5 OFFCURVE",
"173 -5 OFFCURVE",
"173 6 CURVE",
"149 40 OFFCURVE",
"149 106 OFFCURVE",
"173 139 CURVE",
"179 172 OFFCURVE",
"185 195 OFFCURVE",
"173 227 CURVE",
"167 238 OFFCURVE",
"167 261 OFFCURVE",
"173 283 CURVE",
"173 349 OFFCURVE",
"179 416 OFFCURVE",
"185 482 CURVE",
"197 570 OFFCURVE",
"204 648 OFFCURVE",
"222 736 CURVE",
"222 759 OFFCURVE",
"241 770 OFFCURVE",
"259 781 CURVE",
"259 781 OFFCURVE",
"265 791 OFFCURVE",
"265 791 CURVE",
"277 791 OFFCURVE",
"283 803 OFFCURVE",
"289 803 CURVE",
"295 791 OFFCURVE",
"308 781 OFFCURVE",
"295 770 CURVE",
"295 714 OFFCURVE",
"289 659 OFFCURVE",
"283 604 CURVE",
"283 570 OFFCURVE",
"277 538 OFFCURVE",
"277 504 CURVE",
"277 493 OFFCURVE",
"283 482 OFFCURVE",
"289 471 CURVE",
"289 482 OFFCURVE",
"295 482 OFFCURVE",
"295 482 CURVE"
);
}
);
width = 600;
}
);
unicode = 0074;
},
{
glyphname = u;
lastChange = "2018-01-13 18:18:06 +0000";
layers = (
{
layerId = "7185A08A-2B1C-4BBD-ABBC-D0B58775A973";
paths = (
{
closed = 1;
nodes = (
"59 201 OFFCURVE",
"98 336 OFFCURVE",
"97 464 CURVE",
"97 487 OFFCURVE",
"117 525 OFFCURVE",
"133 530 CURVE",
"158 540 OFFCURVE",
"183 480 OFFCURVE",
"184 441 CURVE",
"185 364 OFFCURVE",
"189 288 OFFCURVE",
"195 212 CURVE",
"195 198 OFFCURVE",
"211 174 OFFCURVE",
"219 173 CURVE",
"231 174 OFFCURVE",
"248 189 OFFCURVE",
"252 204 CURVE",
"269 272 OFFCURVE",
"282 343 OFFCURVE",
"297 412 CURVE",
"306 454 OFFCURVE",
"315 495 OFFCURVE",
"325 536 CURVE",
"327 543 OFFCURVE",
"336 547 OFFCURVE",
"342 550 CURVE",
"343 550 OFFCURVE",
"349 539 OFFCURVE",
"349 532 CURVE",
"344 410 OFFCURVE",
"363 283 OFFCURVE",
"319 167 CURVE",
"291 96 OFFCURVE",
"259 33 OFFCURVE",
"195 19 CURVE",
"157 11 OFFCURVE",
"135 34 OFFCURVE",
"120 89 CURVE"
);
}
);
width = 411;
}
);
unicode = 0075;
},
{
glyphname = v;
lastChange = "2018-01-13 18:19:05 +0000";
layers = (
{
layerId = "7185A08A-2B1C-4BBD-ABBC-D0B58775A973";
paths = (
{
closed = 1;
nodes = (
"238 519 OFFCURVE",
"242 480 OFFCURVE",
"239 434 CURVE",
"235 378 OFFCURVE",
"231 320 OFFCURVE",
"229 263 CURVE",
"229 255 OFFCURVE",
"240 245 OFFCURVE",
"246 236 CURVE",
"252 243 OFFCURVE",
"257 249 OFFCURVE",
"262 257 CURVE",
"324 349 OFFCURVE",
"384 440 OFFCURVE",
"446 530 CURVE",
"452 537 OFFCURVE",
"468 535 OFFCURVE",
"479 536 CURVE",
"478 523 OFFCURVE",
"480 507 OFFCURVE",
"475 496 CURVE",
"397 352 OFFCURVE",
"319 207 OFFCURVE",
"238 64 CURVE",
"224 38 OFFCURVE",
"196 23 OFFCURVE",
"174 2 CURVE",
"162 31 OFFCURVE",
"151 61 OFFCURVE",
"137 90 CURVE",
"88 189 OFFCURVE",
"123 299 OFFCURVE",
"109 404 CURVE",
"100 473 OFFCURVE",
"126 507 OFFCURVE",
"186 508 CURVE"
);
}
);
width = 600;
}
);
unicode = 0076;
},
{
glyphname = w;
lastChange = "2018-01-13 18:19:36 +0000";
layers = (
{
layerId = "7185A08A-2B1C-4BBD-ABBC-D0B58775A973";
paths = (
{
closed = 1;
nodes = (
"80 262 OFFCURVE",
"104 372 OFFCURVE",
"132 481 CURVE",
"137 499 OFFCURVE",
"165 509 OFFCURVE",
"182 522 CURVE",
"192 496 OFFCURVE",
"214 469 OFFCURVE",
"212 445 CURVE",
"205 380 OFFCURVE",
"185 316 OFFCURVE",
"173 253 CURVE",
"170 237 OFFCURVE",
"173 220 OFFCURVE",
"174 204 CURVE",
"185 211 OFFCURVE",
"197 214 OFFCURVE",
"206 226 CURVE",
"229 251 OFFCURVE",
"249 280 OFFCURVE",
"273 306 CURVE",
"295 327 OFFCURVE",
"308 316 OFFCURVE",
"313 285 CURVE",
"314 282 OFFCURVE",
"313 278 OFFCURVE",
"314 274 CURVE",
"330 249 OFFCURVE",
"343 222 OFFCURVE",
"358 195 CURVE",
"371 216 OFFCURVE",
"389 237 OFFCURVE",
"400 261 CURVE",
"435 336 OFFCURVE",
"465 416 OFFCURVE",
"501 490 CURVE",
"510 509 OFFCURVE",
"537 514 OFFCURVE",
"555 525 CURVE",
"564 499 OFFCURVE",
"586 465 OFFCURVE",
"579 451 CURVE",
"522 340 OFFCURVE",
"461 235 OFFCURVE",
"400 127 CURVE",
"396 121 OFFCURVE",
"389 113 OFFCURVE",
"384 106 CURVE",
"370 88 OFFCURVE",
"352 52 OFFCURVE",
"345 55 CURVE",
"325 63 OFFCURVE",
"305 84 OFFCURVE",
"295 106 CURVE",
"259 180 OFFCURVE",
"249 182 OFFCURVE",
"203 110 CURVE",
"179 74 OFFCURVE",
"152 35 OFFCURVE",
"124 3 CURVE",
"119 -3 OFFCURVE",
"91 5 OFFCURVE",
"87 13 CURVE",
"74 57 OFFCURVE",
"66 103 OFFCURVE",
"54 153 CURVE"
);
}
);
width = 600;
}
);
unicode = 0077;
},
{
glyphname = x;
lastChange = "2018-01-13 18:20:04 +0000";
layers = (
{
layerId = "7185A08A-2B1C-4BBD-ABBC-D0B58775A973";
paths = (
{
closed = 1;
nodes = (
"116 53 OFFCURVE",
"138 113 OFFCURVE",
"160 162 CURVE",
"173 162 OFFCURVE",
"173 162 OFFCURVE",
"173 162 CURVE",
"232 258 OFFCURVE",
"223 306 OFFCURVE",
"151 373 CURVE",
"124 385 OFFCURVE",
"102 421 OFFCURVE",
"102 451 CURVE",
"102 512 OFFCURVE",
"138 530 OFFCURVE",
"173 500 CURVE",
"209 469 OFFCURVE",
"232 433 OFFCURVE",
"258 421 CURVE",
"267 421 OFFCURVE",
"294 433 OFFCURVE",
"316 433 CURVE",
"338 469 OFFCURVE",
"374 500 OFFCURVE",
"397 512 CURVE",
"410 530 OFFCURVE",
"423 512 OFFCURVE",
"423 512 CURVE",
"423 500 OFFCURVE",
"423 500 OFFCURVE",
"423 481 CURVE",
"397 451 OFFCURVE",
"374 421 OFFCURVE",
"361 385 CURVE",
"351 355 OFFCURVE",
"351 325 OFFCURVE",
"361 306 CURVE",
"388 228 OFFCURVE",
"423 150 OFFCURVE",
"459 65 CURVE",
"459 53 OFFCURVE",
"459 35 OFFCURVE",
"459 5 CURVE",
"445 17 OFFCURVE",
"423 17 OFFCURVE",
"410 17 CURVE",
"374 65 OFFCURVE",
"338 101 OFFCURVE",
"303 150 CURVE",
"281 180 OFFCURVE",
"258 180 OFFCURVE",
"245 150 CURVE",
"209 101 OFFCURVE",
"187 35 OFFCURVE",
"160 -13 CURVE",
"151 -31 OFFCURVE",
"124 -31 OFFCURVE",
"116 -43 CURVE",
"116 -43 OFFCURVE",
"102 -13 OFFCURVE",
"89 5 CURVE"
);
}
);
width = 600;
}
);
unicode = 0078;
},
{
glyphname = y;
lastChange = "2018-01-13 18:20:28 +0000";
layers = (
{
layerId = "7185A08A-2B1C-4BBD-ABBC-D0B58775A973";
paths = (
{
closed = 1;
nodes = (
"154 480 OFFCURVE",
"158 467 OFFCURVE",
"164 453 CURVE",
"187 393 OFFCURVE",
"210 333 OFFCURVE",
"236 274 CURVE",
"260 216 OFFCURVE",
"283 209 OFFCURVE",
"305 261 CURVE",
"350 363 OFFCURVE",
"438 403 OFFCURVE",
"499 482 CURVE",
"504 490 OFFCURVE",
"523 485 OFFCURVE",
"536 485 CURVE",
"530 475 OFFCURVE",
"526 462 OFFCURVE",
"519 453 CURVE",
"506 435 OFFCURVE",
"486 421 OFFCURVE",
"474 401 CURVE",
"460 380 OFFCURVE",
"426 355 OFFCURVE",
"470 324 CURVE",
"470 324 OFFCURVE",
"469 308 OFFCURVE",
"464 306 CURVE",
"311 211 OFFCURVE",
"276 -3 OFFCURVE",
"165 -141 CURVE",
"153 -156 OFFCURVE",
"136 -166 OFFCURVE",
"121 -179 CURVE",
"121 -152 OFFCURVE",
"117 -126 OFFCURVE",
"124 -104 CURVE",
"133 -74 OFFCURVE",
"149 -47 OFFCURVE",
"165 -22 CURVE",
"199 28 OFFCURVE",
"186 72 OFFCURVE",
"168 125 CURVE",
"140 209 OFFCURVE",
"120 296 OFFCURVE",
"103 383 CURVE",
"98 413 OFFCURVE",
"116 450 OFFCURVE",
"122 483 CURVE",
"131 487 OFFCURVE",
"139 490 OFFCURVE",
"149 493 CURVE"
);
}
);
width = 600;
}
);
unicode = 0079;
},
{
glyphname = z;
lastChange = "2018-01-13 18:20:51 +0000";
layers = (
{
layerId = "7185A08A-2B1C-4BBD-ABBC-D0B58775A973";
paths = (
{
closed = 1;
nodes = (
"231 -5 OFFCURVE",
"165 -20 OFFCURVE",
"101 -27 CURVE",
"89 -30 OFFCURVE",
"64 -21 OFFCURVE",
"64 -17 CURVE",
"64 -3 OFFCURVE",
"69 17 OFFCURVE",
"79 27 CURVE",
"170 129 OFFCURVE",
"261 230 OFFCURVE",
"351 331 CURVE",
"358 340 OFFCURVE",
"359 350 OFFCURVE",
"364 359 CURVE",
"354 363 OFFCURVE",
"343 369 OFFCURVE",
"332 372 CURVE",
"271 380 OFFCURVE",
"209 384 OFFCURVE",
"150 397 CURVE",
"131 401 OFFCURVE",
"119 424 OFFCURVE",
"102 439 CURVE",
"121 451 OFFCURVE",
"140 473 OFFCURVE",
"162 475 CURVE",
"253 485 OFFCURVE",
"344 494 OFFCURVE",
"435 494 CURVE",
"464 494 OFFCURVE",
"493 468 OFFCURVE",
"513 445 CURVE",
"520 436 OFFCURVE",
"501 401 OFFCURVE",
"488 384 CURVE",
"412 296 OFFCURVE",
"334 211 OFFCURVE",
"258 124 CURVE",
"253 117 OFFCURVE",
"246 101 OFFCURVE",
"250 97 CURVE",
"256 88 OFFCURVE",
"268 85 OFFCURVE",
"280 85 CURVE",
"312 88 OFFCURVE",
"344 101 OFFCURVE",
"376 97 CURVE",
"406 95 OFFCURVE",
"434 73 OFFCURVE",
"461 59 CURVE",
"471 55 OFFCURVE",
"478 41 OFFCURVE",
"488 34 CURVE",
"499 25 OFFCURVE",
"513 19 OFFCURVE",
"526 12 CURVE",
"510 9 OFFCURVE",
"493 2 OFFCURVE",
"478 2 CURVE",
"419 0 OFFCURVE",
"358 0 OFFCURVE",
"298 0 CURVE",
"298 2 OFFCURVE",
"298 4 OFFCURVE",
"297 7 CURVE"
);
}
);
width = 600;
}
);
unicode = 007A;
},
{
glyphname = zero;
lastChange = "2018-01-13 17:41:55 +0000";
layers = (
{
layerId = "7185A08A-2B1C-4BBD-ABBC-D0B58775A973";
paths = (
{
closed = 1;
nodes = (
"52 311 OFFCURVE",
"65 378 OFFCURVE",
"95 439 CURVE",
"107 464 OFFCURVE",
"107 494 OFFCURVE",
"119 518 CURVE",
"126 536 OFFCURVE",
"138 561 OFFCURVE",
"150 574 CURVE",
"180 604 OFFCURVE",
"211 634 OFFCURVE",
"247 664 CURVE",
"254 677 OFFCURVE",
"272 677 OFFCURVE",
"284 683 CURVE",
"284 683 OFFCURVE",
"290 683 OFFCURVE",
"290 689 CURVE",
"290 689 OFFCURVE",
"290 689 OFFCURVE",
"284 689 CURVE",
"284 695 OFFCURVE",
"278 695 OFFCURVE",
"278 702 CURVE",
"278 707 OFFCURVE",
"272 713 OFFCURVE",
"278 720 CURVE",
"278 720 OFFCURVE",
"290 725 OFFCURVE",
"296 720 CURVE",
"302 720 OFFCURVE",
"308 713 OFFCURVE",
"315 707 CURVE",
"333 695 OFFCURVE",
"351 689 OFFCURVE",
"375 702 CURVE",
"381 702 OFFCURVE",
"394 695 OFFCURVE",
"405 683 CURVE",
"424 671 OFFCURVE",
"443 646 OFFCURVE",
"461 628 CURVE",
"485 610 OFFCURVE",
"497 592 OFFCURVE",
"503 561 CURVE",
"509 555 OFFCURVE",
"515 549 OFFCURVE",
"522 543 CURVE",
"528 536 OFFCURVE",
"533 536 OFFCURVE",
"533 531 CURVE",
"533 513 OFFCURVE",
"533 494 OFFCURVE",
"533 476 CURVE",
"533 457 OFFCURVE",
"522 439 OFFCURVE",
"522 421 CURVE",
"522 415 OFFCURVE",
"528 403 OFFCURVE",
"528 397 CURVE",
"528 390 OFFCURVE",
"533 378 OFFCURVE",
"528 378 CURVE",
"509 348 OFFCURVE",
"509 311 OFFCURVE",
"503 275 CURVE",
"485 214 OFFCURVE",
"473 153 OFFCURVE",
"436 98 CURVE",
"405 50 OFFCURVE",
"357 25 OFFCURVE",
"308 7 CURVE",
"266 -12 OFFCURVE",
"223 -5 OFFCURVE",
"180 19 CURVE",
"162 31 OFFCURVE",
"144 37 OFFCURVE",
"126 50 CURVE",
"113 55 OFFCURVE",
"101 62 OFFCURVE",
"95 74 CURVE",
"89 104 OFFCURVE",
"77 141 OFFCURVE",
"71 172 CURVE",
"65 177 OFFCURVE",
"65 190 OFFCURVE",
"65 196 CURVE",
"59 202 OFFCURVE",
"52 208 OFFCURVE",
"52 220 CURVE",
"46 226 OFFCURVE",
"40 232 OFFCURVE",
"40 239 CURVE"
);
},
{
closed = 1;
nodes = (
"412 385 OFFCURVE",
"418 385 OFFCURVE",
"418 385 CURVE",
"412 372 OFFCURVE",
"412 360 OFFCURVE",
"412 342 CURVE",
"412 330 OFFCURVE",
"412 311 OFFCURVE",
"394 311 CURVE",
"375 311 OFFCURVE",
"381 336 OFFCURVE",
"381 348 CURVE",
"387 390 OFFCURVE",
"394 439 OFFCURVE",
"405 482 CURVE",
"418 536 OFFCURVE",
"418 579 OFFCURVE",
"394 628 CURVE",
"387 634 OFFCURVE",
"387 641 OFFCURVE",
"381 641 CURVE",
"357 653 OFFCURVE",
"339 664 OFFCURVE",
"315 677 CURVE",
"315 677 OFFCURVE",
"308 677 OFFCURVE",
"302 671 CURVE",
"296 664 OFFCURVE",
"290 653 OFFCURVE",
"284 641 CURVE",
"266 622 OFFCURVE",
"254 610 OFFCURVE",
"235 592 CURVE",
"223 567 OFFCURVE",
"211 549 OFFCURVE",
"192 531 CURVE",
"187 518 OFFCURVE",
"180 506 OFFCURVE",
"174 494 CURVE",
"162 439 OFFCURVE",
"156 390 OFFCURVE",
"144 336 CURVE",
"138 318 OFFCURVE",
"138 299 OFFCURVE",
"138 275 CURVE",
"138 275 OFFCURVE",
"144 269 OFFCURVE",
"144 269 CURVE",
"150 269 OFFCURVE",
"150 275 OFFCURVE",
"156 275 CURVE",
"156 287 OFFCURVE",
"156 293 OFFCURVE",
"162 299 CURVE",
"174 324 OFFCURVE",
"192 342 OFFCURVE",
"205 367 CURVE",
"211 390 OFFCURVE",
"229 385 OFFCURVE",
"241 385 CURVE",
"247 385 OFFCURVE",
"254 378 OFFCURVE",
"254 372 CURVE",
"254 367 OFFCURVE",
"247 360 OFFCURVE",
"247 354 CURVE",
"223 305 OFFCURVE",
"192 257 OFFCURVE",
"168 208 CURVE",
"168 202 OFFCURVE",
"168 196 OFFCURVE",
"168 190 CURVE",
"187 153 OFFCURVE",
"205 116 OFFCURVE",
"223 80 CURVE",
"223 74 OFFCURVE",
"229 68 OFFCURVE",
"229 62 CURVE",
"229 62 OFFCURVE",
"223 55 OFFCURVE",
"223 50 CURVE",
"235 50 OFFCURVE",
"247 44 OFFCURVE",
"254 50 CURVE",
"266 62 OFFCURVE",
"278 55 OFFCURVE",
"284 50 CURVE",
"315 37 OFFCURVE",
"333 50 OFFCURVE",
"357 62 CURVE",
"357 62 OFFCURVE",
"357 74 OFFCURVE",
"357 86 CURVE",
"351 86 OFFCURVE",
"351 86 OFFCURVE",
"345 80 CURVE",
"339 80 OFFCURVE",
"339 80 OFFCURVE",
"333 80 CURVE",
"333 74 OFFCURVE",
"326 74 OFFCURVE",
"320 74 CURVE",
"326 80 OFFCURVE",
"326 86 OFFCURVE",
"326 86 CURVE",
"333 93 OFFCURVE",
"339 104 OFFCURVE",
"339 111 CURVE",
"363 159 OFFCURVE",
"381 202 OFFCURVE",
"400 251 CURVE",
"405 269 OFFCURVE",
"412 287 OFFCURVE",
"424 299 CURVE",
"443 318 OFFCURVE",
"448 336 OFFCURVE",
"443 360 CURVE",
"443 385 OFFCURVE",
"436 409 OFFCURVE",
"430 433 CURVE",
"430 433 OFFCURVE",
"430 439 OFFCURVE",
"424 439 CURVE",
"424 439 OFFCURVE",
"424 433 OFFCURVE",
"424 433 CURVE",
"418 421 OFFCURVE",
"418 403 OFFCURVE",
"412 385 CURVE"
);
},
{
closed = 1;
nodes = (
"509 513 OFFCURVE",
"503 518 OFFCURVE",
"497 518 CURVE",
"491 525 OFFCURVE",
"485 518 OFFCURVE",
"479 525 CURVE",
"466 531 OFFCURVE",
"466 525 OFFCURVE",
"466 518 CURVE",
"466 494 OFFCURVE",
"473 470 OFFCURVE",
"473 446 CURVE",
"473 446 OFFCURVE",
"473 439 OFFCURVE",
"479 439 CURVE",
"479 439 OFFCURVE",
"479 446 OFFCURVE",
"479 446 CURVE",
"491 464 OFFCURVE",
"503 476 OFFCURVE",
"509 494 CURVE",
"509 500 OFFCURVE",
"515 500 OFFCURVE",
"515 513 CURVE"
);
}
);
width = 600;
}
);
unicode = 0030;
},
{
glyphname = one;
lastChange = "2018-01-13 17:38:51 +0000";
layers = (
{
layerId = "7185A08A-2B1C-4BBD-ABBC-D0B58775A973";
paths = (
{
closed = 1;
nodes = (
"330 720 OFFCURVE",
"351 693 OFFCURVE",
"344 669 CURVE",
"336 643 OFFCURVE",
"329 621 OFFCURVE",
"340 591 CURVE",
"351 564 OFFCURVE",
"347 530 OFFCURVE",
"348 500 CURVE",
"349 486 OFFCURVE",
"350 475 OFFCURVE",
"368 474 CURVE",
"373 474 OFFCURVE",
"382 462 OFFCURVE",
"383 456 CURVE",
"384 394 OFFCURVE",
"383 332 OFFCURVE",
"385 269 CURVE",
"386 236 OFFCURVE",
"391 204 OFFCURVE",
"393 171 CURVE",
"393 158 OFFCURVE",
"389 146 OFFCURVE",
"386 133 CURVE",
"378 85 OFFCURVE",
"371 36 OFFCURVE",
"362 -12 CURVE",
"360 -22 OFFCURVE",
"350 -34 OFFCURVE",
"340 -39 CURVE",
"327 -45 OFFCURVE",
"318 -34 OFFCURVE",
"312 -21 CURVE",
"311 -18 OFFCURVE",
"308 -13 OFFCURVE",
"305 -13 CURVE",
"279 -7 OFFCURVE",
"276 13 OFFCURVE",
"276 35 CURVE",
"276 75 OFFCURVE",
"280 115 OFFCURVE",
"275 154 CURVE",
"269 206 OFFCURVE",
"280 255 OFFCURVE",
"288 305 CURVE",
"292 329 OFFCURVE",
"296 356 OFFCURVE",
"279 374 CURVE",
"266 388 OFFCURVE",
"260 402 OFFCURVE",
"257 419 CURVE",
"252 452 OFFCURVE",
"249 486 OFFCURVE",
"246 519 CURVE",
"244 541 OFFCURVE",
"245 563 OFFCURVE",
"245 585 CURVE",
"245 587 OFFCURVE",
"243 591 OFFCURVE",
"241 592 CURVE",
"240 593 OFFCURVE",
"236 591 OFFCURVE",
"234 590 CURVE",
"226 582 OFFCURVE",
"217 575 OFFCURVE",
"211 566 CURVE",
"198 550 OFFCURVE",
"182 548 OFFCURVE",
"164 552 CURVE",
"158 554 OFFCURVE",
"150 561 OFFCURVE",
"148 568 CURVE",
"146 573 OFFCURVE",
"151 582 OFFCURVE",
"155 586 CURVE",
"189 619 OFFCURVE",
"223 650 OFFCURVE",
"256 683 CURVE",
"265 692 OFFCURVE",
"272 703 OFFCURVE",
"281 712 CURVE",
"287 718 OFFCURVE",
"295 720 OFFCURVE",
"297 721 CURVE"
);
}
);
width = 600;
}
);
unicode = 0031;
},
{
glyphname = two;
lastChange = "2018-01-13 17:39:03 +0000";
layers = (
{
layerId = "7185A08A-2B1C-4BBD-ABBC-D0B58775A973";
paths = (
{
closed = 1;
nodes = (
"350 25 OFFCURVE",
"375 17 OFFCURVE",
"399 5 CURVE",
"403 4 OFFCURVE",
"403 -12 OFFCURVE",
"400 -19 CURVE",
"398 -24 OFFCURVE",
"384 -28 OFFCURVE",
"380 -26 CURVE",
"364 -16 OFFCURVE",
"348 -19 OFFCURVE",
"332 -17 CURVE",
"305 -13 OFFCURVE",
"280 0 OFFCURVE",
"254 7 CURVE",
"236 12 OFFCURVE",
"218 15 OFFCURVE",
"200 19 CURVE",
"182 22 OFFCURVE",
"164 23 OFFCURVE",
"146 28 CURVE",
"129 32 OFFCURVE",
"124 45 OFFCURVE",
"130 62 CURVE",
"134 73 OFFCURVE",
"141 82 OFFCURVE",
"144 93 CURVE",
"148 104 OFFCURVE",
"148 115 OFFCURVE",
"150 125 CURVE",
"152 134 OFFCURVE",
"154 142 OFFCURVE",
"158 150 CURVE",
"164 163 OFFCURVE",
"171 175 OFFCURVE",
"179 188 CURVE",
"189 205 OFFCURVE",
"199 222 OFFCURVE",
"209 239 CURVE",
"212 243 OFFCURVE",
"215 248 OFFCURVE",
"215 252 CURVE",
"214 291 OFFCURVE",
"241 317 OFFCURVE",
"259 348 CURVE",
"277 377 OFFCURVE",
"295 406 OFFCURVE",
"311 435 CURVE",
"325 461 OFFCURVE",
"337 488 OFFCURVE",
"350 514 CURVE",
"356 524 OFFCURVE",
"364 532 OFFCURVE",
"371 542 CURVE",
"391 570 OFFCURVE",
"383 603 OFFCURVE",
"380 633 CURVE",
"379 644 OFFCURVE",
"357 658 OFFCURVE",
"343 662 CURVE",
"331 665 OFFCURVE",
"312 659 OFFCURVE",
"302 651 CURVE",
"281 630 OFFCURVE",
"266 605 OFFCURVE",
"245 584 CURVE",
"238 576 OFFCURVE",
"225 571 OFFCURVE",
"214 571 CURVE",
"201 571 OFFCURVE",
"190 580 OFFCURVE",
"199 595 CURVE",
"207 611 OFFCURVE",
"216 627 OFFCURVE",
"228 639 CURVE",
"245 656 OFFCURVE",
"265 671 OFFCURVE",
"284 686 CURVE",
"308 705 OFFCURVE",
"333 711 OFFCURVE",
"362 695 CURVE",
"370 691 OFFCURVE",
"380 691 OFFCURVE",
"389 689 CURVE",
"393 688 OFFCURVE",
"397 688 OFFCURVE",
"400 686 CURVE",
"414 677 OFFCURVE",
"428 668 OFFCURVE",
"441 657 CURVE",
"446 653 OFFCURVE",
"447 644 OFFCURVE",
"449 636 CURVE",
"450 632 OFFCURVE",
"450 627 OFFCURVE",
"450 622 CURVE",
"450 611 OFFCURVE",
"451 600 OFFCURVE",
"449 589 CURVE",
"446 575 OFFCURVE",
"437 562 OFFCURVE",
"450 547 CURVE",
"453 544 OFFCURVE",
"450 534 OFFCURVE",
"446 529 CURVE",
"437 515 OFFCURVE",
"430 502 OFFCURVE",
"435 485 CURVE",
"436 481 OFFCURVE",
"435 474 OFFCURVE",
"432 471 CURVE",
"409 456 OFFCURVE",
"413 428 OFFCURVE",
"402 407 CURVE",
"395 394 OFFCURVE",
"387 381 OFFCURVE",
"380 368 CURVE",
"373 355 OFFCURVE",
"368 341 OFFCURVE",
"360 328 CURVE",
"350 311 OFFCURVE",
"339 294 OFFCURVE",
"328 277 CURVE",
"315 256 OFFCURVE",
"302 235 OFFCURVE",
"290 213 CURVE",
"274 182 OFFCURVE",
"260 151 OFFCURVE",
"245 119 CURVE",
"244 117 OFFCURVE",
"243 115 OFFCURVE",
"241 113 CURVE",
"237 107 OFFCURVE",
"233 101 OFFCURVE",
"228 95 CURVE",
"236 92 OFFCURVE",
"243 88 OFFCURVE",
"251 85 CURVE",
"257 83 OFFCURVE",
"264 82 OFFCURVE",
"271 80 CURVE",
"282 76 OFFCURVE",
"291 69 OFFCURVE",
"287 55 CURVE",
"283 41 OFFCURVE",
"289 36 OFFCURVE",
"302 35 CURVE",
"309 33 OFFCURVE",
"317 32 OFFCURVE",
"324 30 CURVE",
"325 32 OFFCURVE",
"325 33 OFFCURVE",
"326 34 CURVE"
);
}
);
width = 600;
}
);
unicode = 0032;
},
{
glyphname = three;
lastChange = "2018-01-13 17:39:25 +0000";
layers = (
{
layerId = "7185A08A-2B1C-4BBD-ABBC-D0B58775A973";
paths = (
{
closed = 1;
nodes = (
"349 231 OFFCURVE",
"351 245 OFFCURVE",
"351 259 CURVE",
"351 263 OFFCURVE",
"352 269 OFFCURVE",
"351 270 CURVE",
"335 276 OFFCURVE",
"318 288 OFFCURVE",
"302 288 CURVE",
"280 288 OFFCURVE",
"261 293 OFFCURVE",
"242 303 CURVE",
"230 308 OFFCURVE",
"229 327 OFFCURVE",
"240 337 CURVE",
"256 351 OFFCURVE",
"275 363 OFFCURVE",
"291 377 CURVE",
"297 384 OFFCURVE",
"303 392 OFFCURVE",
"308 400 CURVE",
"313 405 OFFCURVE",
"313 412 OFFCURVE",
"318 416 CURVE",
"343 431 OFFCURVE",
"351 458 OFFCURVE",
"362 482 CURVE",
"378 516 OFFCURVE",
"391 554 OFFCURVE",
"403 590 CURVE",
"409 609 OFFCURVE",
"410 630 OFFCURVE",
"411 651 CURVE",
"411 656 OFFCURVE",
"404 663 OFFCURVE",
"399 666 CURVE",
"395 668 OFFCURVE",
"387 667 OFFCURVE",
"381 664 CURVE",
"365 659 OFFCURVE",
"350 654 OFFCURVE",
"335 646 CURVE",
"322 636 OFFCURVE",
"311 626 OFFCURVE",
"300 615 CURVE",
"280 597 OFFCURVE",
"260 576 OFFCURVE",
"240 560 CURVE",
"234 554 OFFCURVE",
"225 554 OFFCURVE",
"216 554 CURVE",
"203 554 OFFCURVE",
"198 563 OFFCURVE",
"203 575 CURVE",
"220 609 OFFCURVE",
"240 640 OFFCURVE",
"274 660 CURVE",
"286 668 OFFCURVE",
"294 681 OFFCURVE",
"307 690 CURVE",
"325 702 OFFCURVE",
"347 714 OFFCURVE",
"368 725 CURVE",
"372 728 OFFCURVE",
"381 725 OFFCURVE",
"384 723 CURVE",
"410 704 OFFCURVE",
"435 684 OFFCURVE",
"460 664 CURVE",
"470 656 OFFCURVE",
"475 646 OFFCURVE",
"469 633 CURVE",
"468 630 OFFCURVE",
"466 626 OFFCURVE",
"466 622 CURVE",
"478 551 OFFCURVE",
"442 489 OFFCURVE",
"421 426 CURVE",
"411 399 OFFCURVE",
"396 370 OFFCURVE",
"362 362 CURVE",
"360 360 OFFCURVE",
"356 356 OFFCURVE",
"356 352 CURVE",
"357 345 OFFCURVE",
"360 337 OFFCURVE",
"362 330 CURVE",
"367 323 OFFCURVE",
"371 316 OFFCURVE",
"376 309 CURVE",
"378 306 OFFCURVE",
"381 303 OFFCURVE",
"384 302 CURVE",
"403 290 OFFCURVE",
"414 265 OFFCURVE",
"410 242 CURVE",
"405 216 OFFCURVE",
"402 189 OFFCURVE",
"397 163 CURVE",
"395 151 OFFCURVE",
"389 141 OFFCURVE",
"385 130 CURVE",
"378 112 OFFCURVE",
"371 93 OFFCURVE",
"364 74 CURVE",
"358 59 OFFCURVE",
"356 43 OFFCURVE",
"348 31 CURVE",
"344 23 OFFCURVE",
"333 20 OFFCURVE",
"324 15 CURVE",
"318 14 OFFCURVE",
"310 13 OFFCURVE",
"310 11 CURVE",
"308 -13 OFFCURVE",
"286 -9 OFFCURVE",
"273 -19 CURVE",
"269 -20 OFFCURVE",
"263 -19 OFFCURVE",
"260 -18 CURVE",
"246 -2 OFFCURVE",
"236 -15 OFFCURVE",
"225 -22 CURVE",
"212 -31 OFFCURVE",
"196 -34 OFFCURVE",
"182 -39 CURVE",
"169 -43 OFFCURVE",
"156 -47 OFFCURVE",
"144 -52 CURVE",
"133 -58 OFFCURVE",
"101 -54 OFFCURVE",
"94 -43 CURVE",
"86 -34 OFFCURVE",
"94 -14 OFFCURVE",
"106 -1 CURVE",
"124 15 OFFCURVE",
"140 22 OFFCURVE",
"163 11 CURVE",
"171 8 OFFCURVE",
"183 12 OFFCURVE",
"192 16 CURVE",
"227 41 OFFCURVE",
"263 65 OFFCURVE",
"297 90 CURVE",
"328 114 OFFCURVE",
"341 146 OFFCURVE",
"342 184 CURVE",
"343 195 OFFCURVE",
"347 205 OFFCURVE",
"349 216 CURVE",
"349 216 OFFCURVE",
"348 216 OFFCURVE",
"348 216 CURVE"
);
}
);
width = 600;
}
);
unicode = 0033;
},
{
glyphname = four;
lastChange = "2018-01-13 17:39:39 +0000";
layers = (
{
layerId = "7185A08A-2B1C-4BBD-ABBC-D0B58775A973";
paths = (
{
closed = 1;
nodes = (
"209 281 OFFCURVE",
"199 281 OFFCURVE",
"189 277 CURVE",
"168 271 OFFCURVE",
"154 277 OFFCURVE",
"151 299 CURVE",
"150 310 OFFCURVE",
"150 324 OFFCURVE",
"156 334 CURVE",
"181 386 OFFCURVE",
"209 436 OFFCURVE",
"234 488 CURVE",
"257 535 OFFCURVE",
"278 583 OFFCURVE",
"301 631 CURVE",
"319 667 OFFCURVE",
"337 703 OFFCURVE",
"355 740 CURVE",
"362 755 OFFCURVE",
"377 756 OFFCURVE",
"389 753 CURVE",
"402 751 OFFCURVE",
"407 739 OFFCURVE",
"405 727 CURVE",
"402 710 OFFCURVE",
"394 693 OFFCURVE",
"394 676 CURVE",
"394 656 OFFCURVE",
"386 642 OFFCURVE",
"377 627 CURVE",
"367 611 OFFCURVE",
"358 594 OFFCURVE",
"350 577 CURVE",
"336 548 OFFCURVE",
"323 520 OFFCURVE",
"309 490 CURVE",
"292 454 OFFCURVE",
"275 416 OFFCURVE",
"256 380 CURVE",
"251 369 OFFCURVE",
"241 360 OFFCURVE",
"233 349 CURVE",
"227 342 OFFCURVE",
"227 337 OFFCURVE",
"238 337 CURVE",
"245 337 OFFCURVE",
"252 338 OFFCURVE",
"258 338 CURVE",
"273 339 OFFCURVE",
"287 340 OFFCURVE",
"302 339 CURVE",
"311 339 OFFCURVE",
"314 334 OFFCURVE",
"309 325 CURVE",
"307 322 OFFCURVE",
"309 319 OFFCURVE",
"308 315 CURVE",
"311 317 OFFCURVE",
"317 319 OFFCURVE",
"318 322 CURVE",
"321 336 OFFCURVE",
"325 352 OFFCURVE",
"328 367 CURVE",
"330 384 OFFCURVE",
"341 391 OFFCURVE",
"356 392 CURVE",
"368 392 OFFCURVE",
"374 375 OFFCURVE",
"372 358 CURVE",
"371 335 OFFCURVE",
"359 310 OFFCURVE",
"373 286 CURVE",
"375 284 OFFCURVE",
"371 276 OFFCURVE",
"368 270 CURVE",
"363 262 OFFCURVE",
"354 254 OFFCURVE",
"353 245 CURVE",
"346 211 OFFCURVE",
"343 177 OFFCURVE",
"337 142 CURVE",
"337 139 OFFCURVE",
"335 135 OFFCURVE",
"333 132 CURVE",
"330 128 OFFCURVE",
"327 124 OFFCURVE",
"325 120 CURVE",
"318 91 OFFCURVE",
"312 63 OFFCURVE",
"304 35 CURVE",
"303 27 OFFCURVE",
"294 21 OFFCURVE",
"289 14 CURVE",
"285 19 OFFCURVE",
"279 23 OFFCURVE",
"276 30 CURVE",
"263 52 OFFCURVE",
"277 72 OFFCURVE",
"280 94 CURVE",
"287 128 OFFCURVE",
"294 163 OFFCURVE",
"301 198 CURVE",
"303 210 OFFCURVE",
"305 223 OFFCURVE",
"307 235 CURVE",
"311 260 OFFCURVE",
"303 271 OFFCURVE",
"278 275 CURVE",
"260 277 OFFCURVE",
"240 279 OFFCURVE",
"218 282 CURVE"
);
}
);
width = 600;
}
);
unicode = 0034;
},
{
glyphname = five;
lastChange = "2018-01-13 17:39:53 +0000";
layers = (
{
layerId = "7185A08A-2B1C-4BBD-ABBC-D0B58775A973";
paths = (
{
closed = 1;
nodes = (
"161 87 OFFCURVE",
"160 80 OFFCURVE",
"161 74 CURVE",
"165 46 OFFCURVE",
"168 47 OFFCURVE",
"194 40 CURVE",
"233 29 OFFCURVE",
"262 52 OFFCURVE",
"295 62 CURVE",
"329 73 OFFCURVE",
"335 108 OFFCURVE",
"352 133 CURVE",
"358 143 OFFCURVE",
"363 155 OFFCURVE",
"369 166 CURVE",
"394 214 OFFCURVE",
"390 264 OFFCURVE",
"379 315 CURVE",
"373 342 OFFCURVE",
"362 369 OFFCURVE",
"354 396 CURVE",
"353 398 OFFCURVE",
"351 401 OFFCURVE",
"349 402 CURVE",
"337 410 OFFCURVE",
"308 408 OFFCURVE",
"297 399 CURVE",
"288 391 OFFCURVE",
"281 390 OFFCURVE",
"276 404 CURVE",
"272 414 OFFCURVE",
"260 424 OFFCURVE",
"260 434 CURVE",
"260 457 OFFCURVE",
"263 481 OFFCURVE",
"269 502 CURVE",
"289 563 OFFCURVE",
"310 624 OFFCURVE",
"333 684 CURVE",
"336 693 OFFCURVE",
"355 698 OFFCURVE",
"368 699 CURVE",
"380 701 OFFCURVE",
"393 694 OFFCURVE",
"405 694 CURVE",
"428 693 OFFCURVE",
"450 694 OFFCURVE",
"473 695 CURVE",
"484 695 OFFCURVE",
"494 697 OFFCURVE",
"505 697 CURVE",
"515 697 OFFCURVE",
"528 696 OFFCURVE",
"520 679 CURVE",
"520 677 OFFCURVE",
"525 673 OFFCURVE",
"527 670 CURVE",
"530 665 OFFCURVE",
"535 660 OFFCURVE",
"533 656 CURVE",
"532 653 OFFCURVE",
"525 649 OFFCURVE",
"520 649 CURVE",
"484 648 OFFCURVE",
"448 648 OFFCURVE",
"412 647 CURVE",
"407 647 OFFCURVE",
"400 642 OFFCURVE",
"398 638 CURVE",
"381 584 OFFCURVE",
"364 530 OFFCURVE",
"346 477 CURVE",
"344 469 OFFCURVE",
"345 459 OFFCURVE",
"331 460 CURVE",
"328 460 OFFCURVE",
"324 450 OFFCURVE",
"321 445 CURVE",
"325 443 OFFCURVE",
"329 439 OFFCURVE",
"333 439 CURVE",
"348 441 OFFCURVE",
"363 443 OFFCURVE",
"378 447 CURVE",
"401 454 OFFCURVE",
"412 448 OFFCURVE",
"423 427 CURVE",
"428 417 OFFCURVE",
"428 407 OFFCURVE",
"431 398 CURVE",
"434 385 OFFCURVE",
"450 373 OFFCURVE",
"463 366 CURVE",
"474 361 OFFCURVE",
"480 357 OFFCURVE",
"482 344 CURVE",
"484 332 OFFCURVE",
"488 319 OFFCURVE",
"491 307 CURVE",
"491 306 OFFCURVE",
"492 305 OFFCURVE",
"492 305 CURVE",
"470 278 OFFCURVE",
"480 244 OFFCURVE",
"472 215 CURVE",
"464 188 OFFCURVE",
"459 161 OFFCURVE",
"451 135 CURVE",
"448 123 OFFCURVE",
"442 109 OFFCURVE",
"423 112 CURVE",
"419 112 OFFCURVE",
"413 102 OFFCURVE",
"410 96 CURVE",
"404 85 OFFCURVE",
"402 70 OFFCURVE",
"394 61 CURVE",
"387 53 OFFCURVE",
"374 51 OFFCURVE",
"364 45 CURVE",
"353 39 OFFCURVE",
"344 29 OFFCURVE",
"333 23 CURVE",
"320 16 OFFCURVE",
"306 11 OFFCURVE",
"292 5 CURVE",
"282 2 OFFCURVE",
"272 -2 OFFCURVE",
"262 -4 CURVE",
"249 -7 OFFCURVE",
"235 -10 OFFCURVE",
"222 -10 CURVE",
"201 -10 OFFCURVE",
"180 -7 OFFCURVE",
"159 -6 CURVE",
"155 -5 OFFCURVE",
"150 -5 OFFCURVE",
"147 -6 CURVE",
"122 -16 OFFCURVE",
"110 -7 OFFCURVE",
"111 20 CURVE",
"112 28 OFFCURVE",
"113 36 OFFCURVE",
"114 44 CURVE",
"116 61 OFFCURVE",
"117 76 OFFCURVE",
"114 94 CURVE",
"110 116 OFFCURVE",
"121 142 OFFCURVE",
"130 164 CURVE",
"134 176 OFFCURVE",
"153 169 OFFCURVE",
"156 154 CURVE",
"159 134 OFFCURVE",
"160 114 OFFCURVE",
"162 94 CURVE",
"162 94 OFFCURVE",
"161 94 OFFCURVE",
"161 94 CURVE"
);
}
);
width = 600;
}
);
unicode = 0035;
},
{
glyphname = six;
lastChange = "2018-01-13 17:40:17 +0000";
layers = (
{
layerId = "7185A08A-2B1C-4BBD-ABBC-D0B58775A973";
paths = (
{
closed = 1;
nodes = (
"265 380 OFFCURVE",
"276 375 OFFCURVE",
"285 371 CURVE",
"292 371 OFFCURVE",
"297 371 OFFCURVE",
"302 371 CURVE",
"318 375 OFFCURVE",
"332 371 OFFCURVE",
"343 354 CURVE",
"359 334 OFFCURVE",
"373 334 OFFCURVE",
"399 338 CURVE",
"399 338 OFFCURVE",
"410 334 OFFCURVE",
"410 329 CURVE",
"410 313 OFFCURVE",
"415 313 OFFCURVE",
"424 313 CURVE",
"445 313 OFFCURVE",
"452 304 OFFCURVE",
"452 283 CURVE",
"440 246 OFFCURVE",
"440 211 OFFCURVE",
"431 174 CURVE",
"424 158 OFFCURVE",
"415 149 OFFCURVE",
"410 137 CURVE",
"410 128 OFFCURVE",
"410 123 OFFCURVE",
"406 112 CURVE",
"406 103 OFFCURVE",
"399 98 OFFCURVE",
"394 86 CURVE",
"394 82 OFFCURVE",
"389 77 OFFCURVE",
"389 70 CURVE",
"394 36 OFFCURVE",
"359 10 OFFCURVE",
"322 15 CURVE",
"318 19 OFFCURVE",
"306 15 OFFCURVE",
"302 15 CURVE",
"281 3 OFFCURVE",
"260 3 OFFCURVE",
"239 15 CURVE",
"225 24 OFFCURVE",
"214 31 OFFCURVE",
"198 36 CURVE",
"177 40 OFFCURVE",
"177 56 OFFCURVE",
"172 77 CURVE",
"168 86 OFFCURVE",
"163 98 OFFCURVE",
"151 107 CURVE",
"142 123 OFFCURVE",
"142 144 OFFCURVE",
"142 158 CURVE",
"138 204 OFFCURVE",
"138 246 OFFCURVE",
"138 292 CURVE",
"142 318 OFFCURVE",
"147 350 OFFCURVE",
"158 375 CURVE",
"172 421 OFFCURVE",
"193 468 OFFCURVE",
"209 514 CURVE",
"214 518 OFFCURVE",
"214 530 OFFCURVE",
"214 535 CURVE",
"218 539 OFFCURVE",
"218 546 OFFCURVE",
"225 551 CURVE",
"255 576 OFFCURVE",
"276 613 OFFCURVE",
"297 648 CURVE",
"306 664 OFFCURVE",
"311 680 OFFCURVE",
"332 673 CURVE",
"339 673 OFFCURVE",
"348 689 OFFCURVE",
"352 694 CURVE",
"359 694 OFFCURVE",
"369 699 OFFCURVE",
"369 699 CURVE",
"378 694 OFFCURVE",
"378 689 OFFCURVE",
"373 685 CURVE",
"359 664 OFFCURVE",
"343 648 OFFCURVE",
"327 627 CURVE",
"327 627 OFFCURVE",
"322 622 OFFCURVE",
"322 622 CURVE",
"332 606 OFFCURVE",
"322 597 OFFCURVE",
"318 585 CURVE",
"292 539 OFFCURVE",
"272 493 OFFCURVE",
"244 451 CURVE",
"235 433 OFFCURVE",
"235 412 OFFCURVE",
"235 396 CURVE",
"230 375 OFFCURVE",
"244 380 OFFCURVE",
"255 380 CURVE"
);
},
{
closed = 1;
nodes = (
"225 165 OFFCURVE",
"225 165 OFFCURVE",
"218 165 CURVE",
"218 153 OFFCURVE",
"218 144 OFFCURVE",
"225 133 CURVE",
"225 128 OFFCURVE",
"230 119 OFFCURVE",
"235 112 CURVE",
"239 103 OFFCURVE",
"251 103 OFFCURVE",
"255 91 CURVE",
"265 82 OFFCURVE",
"276 82 OFFCURVE",
"285 91 CURVE",
"292 98 OFFCURVE",
"302 107 OFFCURVE",
"311 112 CURVE",
"327 119 OFFCURVE",
"332 128 OFFCURVE",
"339 144 CURVE",
"352 186 OFFCURVE",
"364 232 OFFCURVE",
"378 278 CURVE",
"378 283 OFFCURVE",
"373 299 OFFCURVE",
"369 308 CURVE",
"369 308 OFFCURVE",
"364 313 OFFCURVE",
"359 313 CURVE",
"339 304 OFFCURVE",
"322 313 OFFCURVE",
"306 318 CURVE",
"281 329 OFFCURVE",
"260 345 OFFCURVE",
"235 329 CURVE",
"230 329 OFFCURVE",
"225 324 OFFCURVE",
"225 318 CURVE",
"225 308 OFFCURVE",
"225 304 OFFCURVE",
"225 299 CURVE",
"225 278 OFFCURVE",
"218 251 OFFCURVE",
"218 232 CURVE",
"218 211 OFFCURVE",
"225 186 OFFCURVE",
"225 165 CURVE"
);
},
{
closed = 1;
nodes = (
"311 91 OFFCURVE",
"311 91 OFFCURVE",
"311 91 CURVE",
"306 91 OFFCURVE",
"302 91 OFFCURVE",
"302 86 CURVE",
"302 86 OFFCURVE",
"302 82 OFFCURVE",
"302 82 CURVE",
"306 77 OFFCURVE",
"318 77 OFFCURVE",
"322 70 CURVE",
"327 70 OFFCURVE",
"332 82 OFFCURVE",
"339 86 CURVE",
"339 86 OFFCURVE",
"332 91 OFFCURVE",
"332 98 CURVE",
"327 98 OFFCURVE",
"327 98 OFFCURVE",
"322 91 CURVE",
"318 91 OFFCURVE",
"318 91 OFFCURVE",
"311 91 CURVE"
);
},
{
closed = 1;
nodes = (
"352 45 OFFCURVE",
"364 56 OFFCURVE",
"373 66 CURVE",
"369 66 OFFCURVE",
"369 70 OFFCURVE",
"369 70 CURVE",
"359 61 OFFCURVE",
"348 52 OFFCURVE",
"343 45 CURVE",
"343 40 OFFCURVE",
"343 40 OFFCURVE",
"343 36 CURVE"
);
}
);
width = 600;
}
);
unicode = 0036;
},
{
glyphname = seven;
lastChange = "2018-01-13 17:40:37 +0000";
layers = (
{
layerId = "7185A08A-2B1C-4BBD-ABBC-D0B58775A973";
paths = (
{
closed = 1;
nodes = (
"296 679 OFFCURVE",
"311 682 OFFCURVE",
"327 683 CURVE",
"340 684 OFFCURVE",
"355 682 OFFCURVE",
"367 680 CURVE",
"382 678 OFFCURVE",
"394 673 OFFCURVE",
"409 683 CURVE",
"416 687 OFFCURVE",
"428 683 OFFCURVE",
"437 679 CURVE",
"438 679 OFFCURVE",
"439 663 OFFCURVE",
"437 661 CURVE",
"417 647 OFFCURVE",
"405 626 OFFCURVE",
"399 602 CURVE",
"388 565 OFFCURVE",
"380 527 OFFCURVE",
"371 490 CURVE",
"364 460 OFFCURVE",
"357 429 OFFCURVE",
"352 400 CURVE",
"341 347 OFFCURVE",
"330 293 OFFCURVE",
"322 238 CURVE",
"317 202 OFFCURVE",
"316 163 OFFCURVE",
"311 125 CURVE",
"308 107 OFFCURVE",
"311 88 OFFCURVE",
"297 72 CURVE",
"292 66 OFFCURVE",
"293 53 OFFCURVE",
"293 43 CURVE",
"293 26 OFFCURVE",
"287 17 OFFCURVE",
"272 12 CURVE",
"258 8 OFFCURVE",
"245 -2 OFFCURVE",
"231 -8 CURVE",
"211 -15 OFFCURVE",
"207 -8 OFFCURVE",
"211 13 CURVE",
"216 29 OFFCURVE",
"222 44 OFFCURVE",
"225 60 CURVE",
"226 67 OFFCURVE",
"221 74 OFFCURVE",
"221 81 CURVE",
"219 89 OFFCURVE",
"216 97 OFFCURVE",
"218 103 CURVE",
"230 146 OFFCURVE",
"241 191 OFFCURVE",
"259 232 CURVE",
"286 294 OFFCURVE",
"291 360 OFFCURVE",
"297 426 CURVE",
"304 493 OFFCURVE",
"315 560 OFFCURVE",
"340 622 CURVE",
"343 627 OFFCURVE",
"342 633 OFFCURVE",
"343 638 CURVE",
"339 638 OFFCURVE",
"335 638 OFFCURVE",
"330 638 CURVE",
"309 637 OFFCURVE",
"288 636 OFFCURVE",
"266 635 CURVE",
"257 634 OFFCURVE",
"247 633 OFFCURVE",
"238 631 CURVE",
"227 629 OFFCURVE",
"211 625 OFFCURVE",
"211 640 CURVE",
"211 652 OFFCURVE",
"222 668 OFFCURVE",
"231 672 CURVE",
"247 679 OFFCURVE",
"265 678 OFFCURVE",
"281 681 CURVE",
"281 679 OFFCURVE",
"281 678 OFFCURVE",
"281 677 CURVE"
);
}
);
width = 600;
}
);
unicode = 0037;
},
{
glyphname = eight;
lastChange = "2018-01-13 17:40:54 +0000";
layers = (
{
layerId = "7185A08A-2B1C-4BBD-ABBC-D0B58775A973";
paths = (
{
closed = 1;
nodes = (
"92 163 OFFCURVE",
"94 202 OFFCURVE",
"100 241 CURVE",
"103 258 OFFCURVE",
"113 275 OFFCURVE",
"122 291 CURVE",
"138 319 OFFCURVE",
"150 350 OFFCURVE",
"172 371 CURVE",
"215 415 OFFCURVE",
"207 470 OFFCURVE",
"214 521 CURVE",
"221 561 OFFCURVE",
"214 606 OFFCURVE",
"239 642 CURVE",
"261 677 OFFCURVE",
"290 707 OFFCURVE",
"317 739 CURVE",
"324 748 OFFCURVE",
"334 750 OFFCURVE",
"341 735 CURVE",
"344 732 OFFCURVE",
"353 728 OFFCURVE",
"359 729 CURVE",
"395 733 OFFCURVE",
"429 723 OFFCURVE",
"463 710 CURVE",
"467 708 OFFCURVE",
"473 710 OFFCURVE",
"479 710 CURVE",
"490 710 OFFCURVE",
"499 708 OFFCURVE",
"494 693 CURVE",
"491 686 OFFCURVE",
"491 680 OFFCURVE",
"492 672 CURVE",
"496 632 OFFCURVE",
"487 597 OFFCURVE",
"462 565 CURVE",
"447 545 OFFCURVE",
"440 519 OFFCURVE",
"429 496 CURVE",
"423 487 OFFCURVE",
"414 478 OFFCURVE",
"405 471 CURVE",
"404 470 OFFCURVE",
"394 475 OFFCURVE",
"393 479 CURVE",
"390 488 OFFCURVE",
"388 489 OFFCURVE",
"381 485 CURVE",
"372 481 OFFCURVE",
"363 478 OFFCURVE",
"353 474 CURVE",
"350 474 OFFCURVE",
"347 471 OFFCURVE",
"344 468 CURVE",
"346 465 OFFCURVE",
"348 461 OFFCURVE",
"352 458 CURVE",
"356 457 OFFCURVE",
"361 457 OFFCURVE",
"364 456 CURVE",
"377 454 OFFCURVE",
"382 449 OFFCURVE",
"381 436 CURVE",
"380 429 OFFCURVE",
"386 422 OFFCURVE",
"388 416 CURVE",
"395 398 OFFCURVE",
"403 381 OFFCURVE",
"405 363 CURVE",
"407 341 OFFCURVE",
"395 317 OFFCURVE",
"401 299 CURVE",
"412 270 OFFCURVE",
"399 250 OFFCURVE",
"393 227 CURVE",
"386 203 OFFCURVE",
"377 180 OFFCURVE",
"368 158 CURVE",
"361 138 OFFCURVE",
"352 119 OFFCURVE",
"346 100 CURVE",
"340 82 OFFCURVE",
"334 77 OFFCURVE",
"316 82 CURVE",
"312 83 OFFCURVE",
"308 81 OFFCURVE",
"306 79 CURVE",
"297 68 OFFCURVE",
"289 58 OFFCURVE",
"282 45 CURVE",
"260 -1 OFFCURVE",
"208 -17 OFFCURVE",
"161 6 CURVE",
"112 29 OFFCURVE",
"93 71 OFFCURVE",
"89 119 CURVE"
);
},
{
closed = 1;
nodes = (
"355 364 OFFCURVE",
"353 402 OFFCURVE",
"315 422 CURVE",
"312 424 OFFCURVE",
"310 425 OFFCURVE",
"307 426 CURVE",
"306 423 OFFCURVE",
"304 420 OFFCURVE",
"304 417 CURVE",
"305 398 OFFCURVE",
"306 379 OFFCURVE",
"307 361 CURVE",
"308 348 OFFCURVE",
"299 342 OFFCURVE",
"287 348 CURVE",
"285 349 OFFCURVE",
"279 345 OFFCURVE",
"278 343 CURVE",
"274 329 OFFCURVE",
"272 314 OFFCURVE",
"267 300 CURVE",
"265 295 OFFCURVE",
"258 292 OFFCURVE",
"253 288 CURVE",
"252 294 OFFCURVE",
"248 300 OFFCURVE",
"249 303 CURVE",
"253 323 OFFCURVE",
"259 343 OFFCURVE",
"263 362 CURVE",
"264 365 OFFCURVE",
"261 369 OFFCURVE",
"260 371 CURVE",
"259 370 OFFCURVE",
"257 368 OFFCURVE",
"256 365 CURVE",
"244 338 OFFCURVE",
"235 312 OFFCURVE",
"224 286 CURVE",
"221 280 OFFCURVE",
"211 276 OFFCURVE",
"206 271 CURVE",
"205 278 OFFCURVE",
"202 285 OFFCURVE",
"204 291 CURVE",
"215 323 OFFCURVE",
"227 355 OFFCURVE",
"240 388 CURVE",
"241 391 OFFCURVE",
"241 396 OFFCURVE",
"241 400 CURVE",
"238 398 OFFCURVE",
"233 397 OFFCURVE",
"231 394 CURVE",
"219 374 OFFCURVE",
"200 358 OFFCURVE",
"198 332 CURVE",
"198 325 OFFCURVE",
"194 319 OFFCURVE",
"192 312 CURVE",
"182 286 OFFCURVE",
"169 261 OFFCURVE",
"160 234 CURVE",
"153 209 OFFCURVE",
"150 181 OFFCURVE",
"142 156 CURVE",
"138 143 OFFCURVE",
"138 131 OFFCURVE",
"142 116 CURVE",
"154 77 OFFCURVE",
"185 61 OFFCURVE",
"220 50 CURVE",
"223 49 OFFCURVE",
"227 49 OFFCURVE",
"229 51 CURVE",
"242 61 OFFCURVE",
"255 70 OFFCURVE",
"264 83 CURVE",
"278 101 OFFCURVE",
"290 123 OFFCURVE",
"303 143 CURVE",
"340 198 OFFCURVE",
"357 260 OFFCURVE",
"356 327 CURVE"
);
},
{
closed = 1;
nodes = (
"346 493 OFFCURVE",
"361 507 OFFCURVE",
"369 523 CURVE",
"385 552 OFFCURVE",
"398 583 OFFCURVE",
"410 615 CURVE",
"416 633 OFFCURVE",
"413 653 OFFCURVE",
"416 672 CURVE",
"417 682 OFFCURVE",
"419 692 OFFCURVE",
"407 697 CURVE",
"406 698 OFFCURVE",
"400 685 OFFCURVE",
"396 680 CURVE",
"394 676 OFFCURVE",
"390 673 OFFCURVE",
"387 670 CURVE",
"384 674 OFFCURVE",
"382 678 OFFCURVE",
"381 682 CURVE",
"378 687 OFFCURVE",
"375 699 OFFCURVE",
"373 698 CURVE",
"361 696 OFFCURVE",
"343 695 OFFCURVE",
"336 686 CURVE",
"318 663 OFFCURVE",
"309 634 OFFCURVE",
"309 604 CURVE",
"309 575 OFFCURVE",
"305 546 OFFCURVE",
"292 520 CURVE",
"290 517 OFFCURVE",
"289 511 OFFCURVE",
"290 510 CURVE",
"300 502 OFFCURVE",
"312 494 OFFCURVE",
"320 489 CURVE"
);
},
{
closed = 1;
nodes = (
"235 535 OFFCURVE",
"234 532 OFFCURVE",
"233 529 CURVE",
"227 511 OFFCURVE",
"236 497 OFFCURVE",
"243 483 CURVE",
"245 479 OFFCURVE",
"250 477 OFFCURVE",
"253 474 CURVE",
"254 479 OFFCURVE",
"257 484 OFFCURVE",
"256 489 CURVE",
"253 502 OFFCURVE",
"248 516 OFFCURVE",
"243 529 CURVE",
"243 533 OFFCURVE",
"241 535 OFFCURVE",
"238 542 CURVE"
);
},
{
closed = 1;
nodes = (
"301 579 OFFCURVE",
"300 582 OFFCURVE",
"299 584 CURVE",
"296 582 OFFCURVE",
"293 581 OFFCURVE",
"292 578 CURVE",
"286 565 OFFCURVE",
"282 552 OFFCURVE",
"277 538 CURVE",
"277 535 OFFCURVE",
"277 532 OFFCURVE",
"278 529 CURVE",
"281 531 OFFCURVE",
"286 531 OFFCURVE",
"287 534 CURVE",
"293 547 OFFCURVE",
"298 561 OFFCURVE",
"304 575 CURVE"
);
}
);
width = 600;
}
);
unicode = 0038;
},
{
glyphname = nine;
lastChange = "2018-01-13 17:41:20 +0000";
layers = (
{
layerId = "7185A08A-2B1C-4BBD-ABBC-D0B58775A973";
paths = (
{
closed = 1;
nodes = (
"280 81 OFFCURVE",
"291 126 OFFCURVE",
"295 168 CURVE",
"302 214 OFFCURVE",
"304 260 OFFCURVE",
"313 305 CURVE",
"321 357 OFFCURVE",
"333 411 OFFCURVE",
"343 465 CURVE",
"344 469 OFFCURVE",
"344 481 OFFCURVE",
"343 483 CURVE",
"335 484 OFFCURVE",
"326 484 OFFCURVE",
"319 481 CURVE",
"311 478 OFFCURVE",
"302 471 OFFCURVE",
"294 465 CURVE",
"277 448 OFFCURVE",
"256 445 OFFCURVE",
"237 459 CURVE",
"228 465 OFFCURVE",
"223 469 OFFCURVE",
"215 476 CURVE",
"196 488 OFFCURVE",
"178 502 OFFCURVE",
"160 515 CURVE",
"138 530 OFFCURVE",
"133 545 OFFCURVE",
"145 568 CURVE",
"156 588 OFFCURVE",
"171 603 OFFCURVE",
"169 627 CURVE",
"169 633 OFFCURVE",
"176 642 OFFCURVE",
"181 647 CURVE",
"205 665 OFFCURVE",
"228 680 OFFCURVE",
"250 695 CURVE",
"253 698 OFFCURVE",
"256 700 OFFCURVE",
"258 702 CURVE",
"265 722 OFFCURVE",
"282 726 OFFCURVE",
"299 722 CURVE",
"333 717 OFFCURVE",
"368 714 OFFCURVE",
"401 703 CURVE",
"421 696 OFFCURVE",
"427 672 OFFCURVE",
"430 651 CURVE",
"432 633 OFFCURVE",
"436 617 OFFCURVE",
"421 603 CURVE",
"421 602 OFFCURVE",
"420 598 OFFCURVE",
"421 596 CURVE",
"433 580 OFFCURVE",
"421 568 OFFCURVE",
"416 553 CURVE",
"403 511 OFFCURVE",
"392 468 OFFCURVE",
"380 426 CURVE",
"379 424 OFFCURVE",
"379 418 OFFCURVE",
"380 417 CURVE",
"402 400 OFFCURVE",
"386 381 OFFCURVE",
"382 365 CURVE",
"374 323 OFFCURVE",
"364 280 OFFCURVE",
"355 238 CURVE",
"344 190 OFFCURVE",
"333 141 OFFCURVE",
"323 91 CURVE",
"317 66 OFFCURVE",
"314 42 OFFCURVE",
"311 18 CURVE",
"310 9 OFFCURVE",
"310 -1 OFFCURVE",
"306 -9 CURVE",
"302 -13 OFFCURVE",
"294 -18 OFFCURVE",
"289 -18 CURVE",
"286 -18 OFFCURVE",
"279 -10 OFFCURVE",
"279 -4 CURVE",
"275 9 OFFCURVE",
"275 24 OFFCURVE",
"274 41 CURVE"
);
},
{
closed = 1;
nodes = (
"253 578 OFFCURVE",
"252 568 OFFCURVE",
"256 560 CURVE",
"265 550 OFFCURVE",
"277 539 OFFCURVE",
"287 530 CURVE",
"291 527 OFFCURVE",
"298 526 OFFCURVE",
"301 526 CURVE",
"319 530 OFFCURVE",
"340 532 OFFCURVE",
"353 542 CURVE",
"387 569 OFFCURVE",
"399 610 OFFCURVE",
"402 653 CURVE",
"402 659 OFFCURVE",
"394 669 OFFCURVE",
"387 675 CURVE",
"370 683 OFFCURVE",
"352 690 OFFCURVE",
"333 696 CURVE",
"325 700 OFFCURVE",
"317 700 OFFCURVE",
"316 686 CURVE",
"314 678 OFFCURVE",
"304 668 OFFCURVE",
"298 668 CURVE",
"274 666 OFFCURVE",
"265 663 OFFCURVE",
"256 639 CURVE",
"253 630 OFFCURVE",
"256 627 OFFCURVE",
"267 629 CURVE",
"268 629 OFFCURVE",
"272 627 OFFCURVE",
"275 627 CURVE",
"274 623 OFFCURVE",
"272 620 OFFCURVE",
"270 618 CURVE",
"260 610 OFFCURVE",
"249 603 OFFCURVE",
"252 587 CURVE"
);
},
{
closed = 1;
nodes = (
"277 480 OFFCURVE",
"274 481 OFFCURVE",
"272 481 CURVE",
"267 480 OFFCURVE",
"264 476 OFFCURVE",
"258 475 CURVE",
"262 472 OFFCURVE",
"265 469 OFFCURVE",
"268 469 CURVE",
"274 469 OFFCURVE",
"277 472 OFFCURVE",
"286 478 CURVE"
);
}
);
width = 600;
}
);
unicode = 0039;
},
{
glyphname = period;
lastChange = "2018-01-13 18:23:18 +0000";
layers = (
{
layerId = "7185A08A-2B1C-4BBD-ABBC-D0B58775A973";
paths = (
{
closed = 1;
nodes = (
"379 15 OFFCURVE",
"379 -10 OFFCURVE",
"330 -10 CURVE",
"322 -10 OFFCURVE",
"314 -19 OFFCURVE",
"314 -27 CURVE",
"298 -43 OFFCURVE",
"281 -36 OFFCURVE",
"273 -19 CURVE",
"265 6 OFFCURVE",
"281 88 OFFCURVE",
"305 103 CURVE",
"314 112 OFFCURVE",
"322 120 OFFCURVE",
"330 112 CURVE",
"346 103 OFFCURVE",
"363 88 OFFCURVE",
"379 71 CURVE",
"379 63 OFFCURVE",
"379 54 OFFCURVE",
"379 47 CURVE"
);
}
);
width = 600;
}
);
unicode = 002E;
},
{
glyphname = exclam;
lastChange = "2018-01-13 18:23:46 +0000";
layers = (
{
layerId = "7185A08A-2B1C-4BBD-ABBC-D0B58775A973";
paths = (
{
closed = 1;
nodes = (
"357 619 OFFCURVE",
"345 545 OFFCURVE",
"339 471 CURVE",
"335 423 OFFCURVE",
"343 375 OFFCURVE",
"339 328 CURVE",
"337 311 OFFCURVE",
"316 296 OFFCURVE",
"304 280 CURVE",
"295 294 OFFCURVE",
"278 307 OFFCURVE",
"277 321 CURVE",
"272 387 OFFCURVE",
"272 453 OFFCURVE",
"270 520 CURVE",
"267 572 OFFCURVE",
"264 625 OFFCURVE",
"260 677 CURVE",
"259 700 OFFCURVE",
"286 740 OFFCURVE",
"305 741 CURVE",
"336 743 OFFCURVE",
"370 717 OFFCURVE",
"366 693 CURVE"
);
},
{
closed = 1;
nodes = (
"295 131 OFFCURVE",
"305 102 OFFCURVE",
"316 74 CURVE",
"326 48 OFFCURVE",
"324 26 OFFCURVE",
"301 9 CURVE",
"283 -5 OFFCURVE",
"266 -9 OFFCURVE",
"245 7 CURVE",
"193 48 OFFCURVE",
"192 46 OFFCURVE",
"226 137 CURVE",
"230 151 OFFCURVE",
"231 167 OFFCURVE",
"239 177 CURVE",
"248 189 OFFCURVE",
"263 197 OFFCURVE",
"276 207 CURVE",
"284 193 OFFCURVE",
"292 180 OFFCURVE",
"299 167 CURVE",
"294 165 OFFCURVE",
"289 162 OFFCURVE",
"284 160 CURVE"
);
}
);
width = 600;
}
);
unicode = 0021;
},
{
glyphname = question;
lastChange = "2018-01-13 18:24:09 +0000";
layers = (
{
layerId = "7185A08A-2B1C-4BBD-ABBC-D0B58775A973";
paths = (
{
closed = 1;
nodes = (
"213 378 OFFCURVE",
"268 429 OFFCURVE",
"298 488 CURVE",
"302 495 OFFCURVE",
"310 500 OFFCURVE",
"315 506 CURVE",
"324 522 OFFCURVE",
"334 538 OFFCURVE",
"341 556 CURVE",
"351 581 OFFCURVE",
"361 608 OFFCURVE",
"367 634 CURVE",
"373 660 OFFCURVE",
"355 669 OFFCURVE",
"333 666 CURVE",
"311 664 OFFCURVE",
"290 654 OFFCURVE",
"268 651 CURVE",
"256 650 OFFCURVE",
"242 657 OFFCURVE",
"229 660 CURVE",
"236 671 OFFCURVE",
"240 688 OFFCURVE",
"250 693 CURVE",
"272 704 OFFCURVE",
"297 712 OFFCURVE",
"321 717 CURVE",
"402 732 OFFCURVE",
"459 673 OFFCURVE",
"437 593 CURVE",
"422 541 OFFCURVE",
"404 485 OFFCURVE",
"372 443 CURVE",
"340 401 OFFCURVE",
"321 358 OFFCURVE",
"305 311 CURVE",
"298 293 OFFCURVE",
"278 279 OFFCURVE",
"261 267 CURVE",
"257 265 OFFCURVE",
"240 283 OFFCURVE",
"229 292 CURVE",
"232 295 OFFCURVE",
"235 297 OFFCURVE",
"238 300 CURVE"
);
},
{
closed = 1;
nodes = (
"319 37 OFFCURVE",
"337 38 OFFCURVE",
"355 34 CURVE",
"363 32 OFFCURVE",
"369 21 OFFCURVE",
"376 14 CURVE",
"369 9 OFFCURVE",
"362 0 OFFCURVE",
"355 -1 CURVE",
"311 -8 OFFCURVE",
"266 -16 OFFCURVE",
"222 -19 CURVE",
"212 -20 OFFCURVE",
"194 -5 OFFCURVE",
"193 3 CURVE",
"189 50 OFFCURVE",
"199 95 OFFCURVE",
"229 133 CURVE",
"233 138 OFFCURVE",
"242 142 OFFCURVE",
"247 141 CURVE",
"253 138 OFFCURVE",
"258 130 OFFCURVE",
"259 124 CURVE",
"262 111 OFFCURVE",
"263 97 OFFCURVE",
"260 85 CURVE",
"253 51 OFFCURVE",
"259 30 OFFCURVE",
"298 39 CURVE"
);
}
);
width = 600;
}
);
unicode = 003F;
},
{
glyphname = hyphen;
lastChange = "2018-01-13 18:26:33 +0000";
layers = (
{
layerId = "7185A08A-2B1C-4BBD-ABBC-D0B58775A973";
paths = (
{
closed = 1;
nodes = (
"385 322 OFFCURVE",
"404 317 OFFCURVE",
"420 313 CURVE",
"406 308 OFFCURVE",
"396 300 OFFCURVE",
"379 291 CURVE",
"332 279 OFFCURVE",
"281 269 OFFCURVE",
"225 284 CURVE",
"214 287 OFFCURVE",
"200 291 OFFCURVE",
"200 295 CURVE",
"200 300 OFFCURVE",
"214 308 OFFCURVE",
"225 308 CURVE",
"271 317 OFFCURVE",
"317 322 OFFCURVE",
"367 326 CURVE"
);
}
);
width = 600;
}
);
unicode = 002D;
},
{
glyphname = endash;
lastChange = "2018-01-13 18:25:55 +0000";
layers = (
{
layerId = "7185A08A-2B1C-4BBD-ABBC-D0B58775A973";
paths = (
{
closed = 1;
nodes = (
"243 273 OFFCURVE",
"208 282 OFFCURVE",
"175 289 CURVE",
"169 289 OFFCURVE",
"160 289 OFFCURVE",
"160 297 CURVE",
"160 303 OFFCURVE",
"169 308 OFFCURVE",
"178 308 CURVE",
"262 333 OFFCURVE",
"347 308 OFFCURVE",
"430 308 CURVE",
"439 308 OFFCURVE",
"446 308 OFFCURVE",
"453 303 CURVE",
"448 303 OFFCURVE",
"444 289 OFFCURVE",
"434 289 CURVE",
"380 289 OFFCURVE",
"330 282 OFFCURVE",
"276 273 CURVE"
);
}
);
width = 600;
}
);
unicode = 2013;
},
{
glyphname = emdash;
lastChange = "2018-01-13 18:25:14 +0000";
layers = (
{
layerId = "7185A08A-2B1C-4BBD-ABBC-D0B58775A973";
paths = (
{
closed = 1;
nodes = (
"247 318 OFFCURVE",
"339 312 OFFCURVE",
"430 307 CURVE",
"452 307 OFFCURVE",
"473 298 OFFCURVE",
"493 292 CURVE",
"494 292 OFFCURVE",
"493 276 OFFCURVE",
"490 276 CURVE",
"458 270 OFFCURVE",
"426 270 OFFCURVE",
"394 265 CURVE",
"359 265 OFFCURVE",
"324 256 OFFCURVE",
"291 250 CURVE",
"233 234 OFFCURVE",
"184 256 OFFCURVE",
"136 270 CURVE",
"125 276 OFFCURVE",
"125 298 OFFCURVE",
"126 312 CURVE",
"126 318 OFFCURVE",
"142 318 OFFCURVE",
"149 329 CURVE"
);
}
);
width = 600;
}
);
unicode = 2014;
},
